<svg xmlns="http://www.w3.org/2000/svg" viewBox="0 0 640 480">
  <path fill="#74acdf" d="M0 0h640v480H0z"/>
  <path fill="#fff" d="M0 160h640v160H0z"/>
  <path fill="#f6b40e" stroke="#85340a" stroke-width="1.11199999" d="M317 241l27 60h1c1 0 0-1 0-1l-23-61m-1 23c0 9 5 14 5 22s4 13 5 16-1 5 0 5 3-2 2-7-4-6-3-16-4-12-3-21"/>
  <path fill="#f6b40e" stroke="#85340a" stroke-width="1.11199999" d="M317 240l2 65s0 1 1 1 1-1 1-1l2-65m-9 21c-4 8-1 15-4 22s-1 13-2 16-3 4-2 5 4-1 5-5-2-7 3-16 1-13 5-21"/>
  <path fill="#f6b40e" stroke="#85340a" stroke-width="1.11199999" d="M317 239l-23 61v1h1l27-60m-17 16c-7 6-6 14-12 19s-6 12-8 15-4 3-4 4 4 1 6-3 1-7 9-13 6-11 13-17"/>
  <path fill="#f6b40e" stroke="#85340a" stroke-width="1.11199999" d="M318 238l-45 48s-1 1 0 1h1l48-45m-22 8c-8 3-11 10-19 13s-10 8-13 10-5 1-5 2 3 2 7 0 4-6 13-9 10-8 18-11"/>
  <path fill="#85340a" d="M324 263c0 9 5 13 4 20 2-6-3-11-3-20m-7-23l19 41-16-42"/>
  <path fill="#85340a" d="M315 263c-3 8 0 14-4 21 4-5 1-11 5-20m2-24l2 45 2-45"/>
  <path fill="#85340a" d="M306 259c-6 6-5 13-11 18 6-3 6-10 12-16m11-21l-16 42 19-41"/>
  <path fill="#85340a" d="M300 253c-8 4-10 10-17 12 7 0 9-7 18-10m18-16l-31 33 33-31"/>
  <path fill="#f6b40e" stroke="#85340a" stroke-width="1.11199999" d="M319 237l-60 27s-1 0-1 1h1l61-23m-23-1c-9 0-14 5-22 5s-13 4-16 5-5-1-5 0 2 3 7 2 6-4 16-3 12-4 21-3"/>
  <path fill="#f6b40e" stroke="#85340a" stroke-width="1.11199999" d="M320 237l-65 2 65 2m-21-9c-8-4-15-1-22-4s-13-1-16-2-4-3-5-2 1 4 5 5 7-2 16 3 13 1 21 5"/>
  <path fill="#f6b40e" stroke="#85340a" stroke-width="1.11199999" d="M321 237l-61-23h-1c0 1 1 1 1 1l60 27m-16-17c-6-7-14-6-19-12s-12-6-15-8-3-4-4-4-1 4 3 6 7 1 13 9 11 6 17 13"/>
  <path fill="#f6b40e" stroke="#85340a" stroke-width="1.11199999" d="M322 238l-48-45h-1c-1 1 0 1 0 1l45 48m-8-22c-3-8-10-11-13-19s-8-10-10-13-1-5-2-5-2 3 0 7 6 4 9 13 8 10 11 18"/>
  <path fill="#85340a" d="M297 244c-9 0-13 5-20 4 6 2 11-3 20-3m23-7l-41 19 42-16"/>
  <path fill="#85340a" d="M297 235c-8-3-14 0-21-4 5 4 11 1 20 5m24 2l-45 2 45 2"/>
  <path fill="#85340a" d="M301 226c-6-6-13-5-18-11 3 6 10 6 16 12m21 11l-42-16 41 19"/>
  <path fill="#85340a" d="M307 220c-4-8-10-10-12-17 0 7 7 9 10 18m16 18l-33-31 31 33"/>
  <path fill="#f6b40e" stroke="#85340a" stroke-width="1.11199999" d="M323 239l-27-60h-1c-1 0 0 1 0 1l23 61m1-23c0-9-5-14-5-22s-4-13-5-16 1-5 0-5-3 2-2 7 4 6 3 16 4 12 3 21"/>
  <path fill="#f6b40e" stroke="#85340a" stroke-width="1.11199999" d="M323 240l-2-65s0-1-1-1-1 1-1 1l-2 65m9-21c4-8 1-15 4-22s1-13 2-16 3-4 2-5-4 1-5 5 2 7-3 16-1 13-5 21"/>
  <path fill="#f6b40e" stroke="#85340a" stroke-width="1.11199999" d="M323 241l23-61v-1h-1l-27 60m17-16c7-6 6-14 12-19s6-12 8-15 4-3 4-4-4-1-6 3-1 7-9 13-6 11-13 17"/>
  <path fill="#f6b40e" stroke="#85340a" stroke-width="1.11199999" d="M322 242l45-48s1-1 0-1h-1l-48 45m22-8c8-3 11-10 19-13s10-8 13-10 5-1 5-2-3-2-7 0-4 6-13 9-10 8-18 11"/>
  <path fill="#85340a" d="M316 217c0-9-5-13-4-20-2 6 3 11 3 20m7 23l-19-41 16 42"/>
  <path fill="#85340a" d="M325 217c3-8 0-14 4-21-4 5-1 11-5 20m-2 24l-2-45-2 45"/>
  <path fill="#85340a" d="M334 221c6-6 5-13 11-18-6 3-6 10-12 16m-11 21l16-42-19 41"/>
  <path fill="#85340a" d="M340 227c8-4 10-10 17-12-7 0-9 7-18 10m-18 16l31-33-33 31"/>
  <path fill="#f6b40e" stroke="#85340a" stroke-width="1.11199999" d="M321 243l60-27s1 0 1-1h-1l-61 23m23 1c9 0 14-5 22-5s13-4 16-5 5 1 5 0-2-3-7-2-6 4-16 3-12 4-21 3"/>
  <path fill="#f6b40e" stroke="#85340a" stroke-width="1.11199999" d="M320 243l65-2-65-2m21 9c8 4 15 1 22 4s13 1 16 2 4 3 5 2-1-4-5-5-7 2-16-3-13-1-21-5"/>
  <path fill="#f6b40e" stroke="#85340a" stroke-width="1.11199999" d="M319 243l61 23h1c0-1-1-1-1-1l-60-27m16 17c6 7 14 6 19 12s12 6 15 8 3 4 4 4 1-4-3-6-7-1-13-9-11-6-17-13"/>
  <path fill="#f6b40e" stroke="#85340a" stroke-width="1.11199999" d="M318 242l48 45h1c1-1 0-1 0-1l-45-48m8 22c3 8 10 11 13 19s8 10 10 13 1 5 2 5 2-3 0-7-6-4-9-13-8-10-11-18"/>
  <path fill="#85340a" d="M343 236c9 0 13-5 20-4-6-2-11 3-20 3m-23 7l41-19-42 16"/>
  <path fill="#85340a" d="M343 245c8 3 14 0 21 4-5-4-11-1-20-5m-24-2l45-2-45-2"/>
  <path fill="#85340a" d="M339 254c6 6 13 5 18 11-3-6-10-6-16-12m-21-11l42 16-41-19"/>
  <path fill="#85340a" d="M333 260c4 8 10 10 12 17 0-7-7-9-10-18m-16-18l33 31-31-33"/>
  <circle cx="320" cy="240" r="27" fill="#f6b40e" stroke="#85340a" stroke-width="1.44000006"/>
  <path fill="#843511" d="M329 234a5 5 0 0 0-5 2c2 2 7 2 10 0l-5-2zm0 0l4 2a5 5 0 0 1-7 0z"/>
  <path fill="#85340a" d="M329 233l-5 2h-2l2-2h4c4 0 6 3 6 3s-2-3-6-3z"/>
  <path fill="#85340a" d="M337 234c-5-4-11-5-14-2l-2 3c0 2 0 5 2 7h-1a15 15 0 0 1-2-9v-2c5-4 11-4 15 2z"/>
  <circle cx="329" cy="236" r="2" fill="#85340a"/>
  <path fill="#85340a" d="M334 238c-3 3-7 2-9 1l-2-2h2c2 1 4 1 8-1zm-18 6v2a2 2 0 0 0 2 2h8a2 2 0 0 0 2-2v-2h-2l-3 2-3-2h-2zm2 5c-2 0-3 2-5 3l3-2h7l3 2c-2-1-3-3-5-3h-4z"/>
  <path fill="#85340a" d="M317 252h-3c4-1 5 0 6 0 2 0 2-1 6 0h-9zm-3 0h-1c4 0 2 3 7 3s2-2 7-3-3 2-7 2c-3 0-2-2-6-2zm10 7a4 4 0 0 0-7 0 4 4 0 0 1 7 0zm-21-25c5-4 11-5 14-2l2 3c0 2 0 5-2 7h1a15 15 0 0 0 2-9v-2c-5-4-11-4-15 2z"/>
  <path fill="#85340a" d="M311 233l5 2h2l-2-2h-4c-4 0-6 3-6 3s2-3 6-3z"/>
  <path fill="#843511" d="M311 234a5 5 0 0 0-5 2c2 2 7 2 10 0l-5-2zm0 0l4 2a5 5 0 0 1-7 0z"/>
  <circle cx="311" cy="236" r="2" fill="#85340a"/>
  <path fill="#85340a" d="M306 238c3 3 7 2 9 1l2-2h-2c-2 1-4 1-8-1z"/>
</svg>
