<svg xmlns="http://www.w3.org/2000/svg" viewBox="0 0 640 480">
  <path fill="#006233" d="M640 480V0H0v480z"/>
  <g fill="#fff" stroke="#fff">
    <path stroke-width=".40079999" d="M262 249c-9 13-3 21 7 22s20-8 20-18l-4-2c2 5 0 7-4 10s-26 8-19-12z"/>
    <path d="M336 283c53 1 69-45 37-85l-3 4c2 19 5 37 5 56-6 7-16 4-17-3s-4-19-8-27l-3 4c3 7 6 15 7 23-15 16-32 20-25-2-12 19 6 32 26 3 4 20 21 8 22 3s1-34-3-50c15 23 15 40 7 51s-27 18-45 23z"/>
    <path d="M366 230c-11 1-17-1-11-9s12-1 13 8-20 21-27 21-16-13-6-25c-13 34 28 14 31 4zm-8-8c-1 0-2 2-2 3s5 1 5 0-1-2-3-2z"/>
    <path d="M305 246c-11 19 0 27 14 25s18-7 24-14a444 444 0 0 0-2-46c5-6 0-6-3-12s-3 8-1 10a447 447 0 0 1 2 47c-11 8-19 11-25 11s-15-9-10-21z"/>
    <path d="M327 252c0-15 0-31-2-41s0-6-2-12-3 8-1 10c1 16 2 31 2 47 1-1 3-1 3-4z"/>
    <path stroke-width=".40079999" d="M285 251l-3-5c0-2 1-4 2-5l4 6m2 1h9c12 0 24-2 23 13s-13 20-24 20-28-15-5-43h8a18 18 0 0 0 13-4c-1-9-1-18-2-26s0-7 1-10 8 6 2 12a160 160 0 0 1 1 24c-3 4-5 8-13 10s-12-12-21-8c2-10 25-12 27-4s-22 5-28 30c-2 8 7 15 17 15s19-6 20-16-12-7-17-7-12-1-16-2m8-18c1-1 6-2 8 0l-4 3z"/>
    <path d="M306 207a15 15 0 0 1 2 7c-1 3-4 7-7 7a6 6 0 0 1-6-3h-2c-4 6-6 8-10 8s-5-6-11-7-7 2-9 7c-8 21-16 0-12-10 0 9 3 15 5 15s3-4 6-8 6-9 11-9 2 7 10 7 8-3 11-8 1 1 1 2 4 7 9 2 0-3-1-3l2-5z"/>
    <path stroke-width=".40079999" d="M332 190a8 8 0 0 1-9-2c3-1 6-2 6-4s-5-4-10-4-10 3-10 6 6-1 7 2-11 3-18 3-13-4-16-8h-2c-3 0-6 11-10 11s-3-7-4-11 1 28 13 4h1c3 7 10 9 17 9s13-2 21-6 4 5 8 5 11-3 12-8 1-7-2-7-6 8-5 15v-2m-16-9c2-1 5-1 6 1h-3zm17 5c1-2 1-4 3-6s2 4-1 6zm16 3a28 28 0 0 1-2-6c-1-4 4-7 7-7l10 3 10 3c2 1 0 3-1 3s-16 9-22 9-7-2-9-6-1-18-1-24l2-3c1 8 1 17 1 25s2 3 3 3zm6 1c-5 1-4-3-5-5s0-6 4-5l14 5zm-5 4v3h1v-3"/>
    <path stroke-width="4.0079999" d="M270 229l3-2 3 2-3 2zm6-1l3-2 3 2-3 2zm-18-24l3-2 3 2-3 2zm1 7l3-2 3 2-3 2zm47 12l2-2 2 2-2 2zm-31-45zm4-1l2-2h-2zm89 18z" stroke-linecap="round" stroke-linejoin="round"/>
    <path stroke-width=".40079999" d="M293 239v3h5l4-3h-8z"/>
    <path d="M331 190h1v3h-1z"/>
  </g>
  <path fill="#fff" d="M322 326c51 0 93-38 93-85 0-26-13-49-32-64a70 70 0 0 1 19 48c0 41-36 73-79 73s-79-33-79-73a69 69 0 0 1 19-48c-20 15-32 38-32 64 0 47 41 85 93 85z"/>
  <g fill="#fff" stroke="#000" stroke-width="2">
    <path d="M309 373c-20 9-46 7-68-6-1 0-1 0-1 2s4 11-3 20 1 5 6 4c26-2 52-8 64-12zm0 11c-8 3-22 7-38 9s-6 5 5 6 26-6 35-13z"/>
    <path d="M322 364l13-2c9-2 3 12-13 12v5c16 0 32-16 29-23s-18-2-29-2-24-9-29 2 13 23 29 23v-5c-16 0-23-13-13-12z"/>
    <path d="M334 373c20 9 46 7 68-6 1 0 1 0 1 2s-4 11 3 20-1 5-6 4c-26-2-52-8-64-12zm1 11c8 3 22 7 38 9s6 5-5 6-26-6-35-13z"/>
    <path d="M322 382c1 4 1 11 7 8s9-8 9-14-5-10-16-10-16 6-16 10 2 10 9 14 6-5 7-8 1-1 1 0z"/>
  </g>
  <g fill="#fff" stroke="#000" stroke-width="2">
    <path d="M315 111c-3-16-28-17-32-19s-4 0-2 4 20 16 28 17 6 1 6-2z"/>
    <path d="M322 111c3-16-23-24-26-27s-4-2-2 3 14 21 20 24 7 4 8 1z"/>
    <path d="M343 121c2-19-18-22-24-28s-4-2-3 3 13 21 19 25 8 3 8 0z"/>
    <path d="M337 116c-21-13-36-5-42-6s-8 3 2 8 30 5 36 3 5-4 4-5zm32 9c-7-21-22-17-26-20s-5-2-4 3 17 17 25 20 6 2 5-3z"/>
    <path d="M366 128c-18-13-32-3-38-5s-2 2-1 2 26 11 37 7 5-2 1-4zm39 14c0-13-30-19-36-27s-7-2-5 5 23 21 34 23 7 0 7-1z"/>
    <path d="M404 144c-19-16-35-10-40-12s-8 2 1 8 28 9 36 8 4-3 3-4zm34 23c-5-23-22-27-27-31s-8-3-5 7 18 23 25 25 7 1 7-1z"/>
    <path d="M438 170c-14-20-32-20-37-22s-9 0-2 8 26 16 34 17 6-1 5-3z"/>
    <path d="M455 194c8-23-10-31-12-35s-4-4-5 0c-5 16 11 32 14 35s3 2 3 0z"/>
    <path d="M451 200c-6-26-23-24-27-28s-4-1-4 4 18 21 26 25 6 3 5-1zm16 30c11-24-2-41-6-44s-7-5-5 0-5 27 5 41 4 9 6 3z"/>
    <path d="M461 235c3-15-7-28-17-34s-6-2-6 2 15 25 19 32 4 1 4 0zm-2 39c-8-28 9-44 14-47s8-5 6 1 0 30-13 43-6 10-7 3z"/>
    <path d="M461 268c7-24-8-38-13-41s-7-4-5 1 0 26 11 38 5 7 7 2z"/>
    <path d="M452 256c-13 12-13 30-7 41s4 6 7 1 4-32 4-40-2-4-4-2z"/>
    <path d="M473 276c0 17-11 31-24 35s-7 2-6-3c3-19 19-26 25-32s4-1 4 1zm-44 50c20-17 9-29 10-40s-2-5-4-2c-13 12-14 32-11 41s3 3 5 2z"/>
    <path d="M457 315c-7 19-25 30-40 31s-9 0-6-6c11-20 32-22 41-27s6 0 5 2z"/>
    <path d="M401 350c27-12 21-32 26-37s-1-3-3-2c-16 8-28 21-28 35s1 6 5 4z"/>
    <path d="M365 373c34 5 49-18 59-20s1-3-1-3c-22-2-51 7-59 18s-4 4 1 5z"/>
    <path d="M399 336c-7 20-32 37-51 38s-9 0-6-5c15-25 41-29 51-36s7 1 6 3zm-71-225c3-16 28-17 32-19s4 0 2 4-20 16-28 17-6 1-6-2z"/>
    <path d="M321 111c-3-16 23-24 26-27s4-2 2 3-14 21-20 24-7 4-8 1z"/>
    <path d="M300 121c-2-19 18-22 24-28s4-2 3 3-13 21-19 25-8 3-8 0z"/>
    <path d="M306 116c21-13 36-5 42-6s8 3-2 8-30 5-36 3-5-4-4-5zm-32 9c7-21 22-17 26-20s5-2 4 3-17 17-25 20-6 2-5-3z"/>
    <path d="M277 128c18-13 32-3 38-5s2 2 1 2-26 11-37 7-5-1-2-4zm-39 14c0-13 30-19 36-27s7-2 5 5-23 21-34 23-6-1-6-2z"/>
    <path d="M239 144c19-16 35-10 40-12s8 2-1 8-28 9-36 8-5-3-4-4zm-34 23c5-23 22-27 27-31s8-3 5 7-18 23-25 25-7 1-6-1z"/>
    <path d="M205 170c14-20 32-20 37-22s9 0 2 8-26 16-34 17-6-2-5-3z"/>
    <path d="M188 194c-8-23 10-31 12-35s4-4 5 0c5 16-11 32-14 35s-3 2-3 0z"/>
    <path d="M191 200c6-26 23-24 27-28s4-1 4 4-18 21-26 25-5 3-5-1zm-15 30c-11-24 2-41 6-44s7-5 5 0 5 27-5 41-4 9-6 3z"/>
    <path d="M182 235c-3-15 7-28 17-34s6-2 6 2-15 25-19 32-4 1-4 0zm2 39c8-28-9-44-14-47s-8-5-6 1 0 30 13 43 5 10 7 3z"/>
    <path d="M182 268c-7-24 8-38 13-41s7-4 5 1 0 26-11 38-5 8-6 3z"/>
    <path d="M191 256c13 12 13 30 7 41s-4 6-7 1-4-32-4-40 2-4 4-2z"/>
    <path d="M170 276c0 17 11 31 24 35s7 2 6-3c-3-19-19-26-25-32s-5-2-5 0zm44 50c-20-17-9-29-10-40s2-5 4-2c13 12 14 32 11 41s-4 3-5 1z"/>
    <path d="M186 315c7 19 25 30 40 31s9 0 6-6c-11-20-32-22-41-27s-5 0-5 2z"/>
    <path d="M242 350c-27-12-21-32-26-37s1-3 3-2c16 8 28 21 28 35s-1 6-5 4z"/>
    <path d="M278 373c-34 5-49-18-59-20s-1-3 1-3c22-2 51 7 59 18s4 4-1 5z"/>
    <path d="M244 336c7 20 32 37 51 38s9 0 6-5c-15-25-41-29-51-36s-6 1-6 3z"/>
  </g>
  <path fill="#006233" d="M361 130c-4-3-21-1-24-3s19 1 24 3zm39 8c-4-6-24-9-27-15 5 10 21 9 27 15zm-3 6c-8-7-26-4-31-8 13 11 20 3 31 8zm-45-30c5 2 11 5 14 10s-10-6-15-9zm76 44c-3-6-14-13-15-16s13 11 15 16zm3 11c-9-13-24-12-30-17s22 8 30 17zm22 21c1-14-11-20-11-27-1 9 11 22 11 27zm-6 7c-2-12-18-13-21-20 0 7 19 14 21 20zm13-7c8 9 3 23 6 34-4-7-2-26-6-34zm-14 40c13 12 7 26 13 32-6-8-5-24-13-32zm26 2c-11 11-4 27-10 35 7-7 6-27 10-35zm-13 0c-1-13-14-19-15-26-1 7 12 17 15 26zm-6 30c2 9-6 27-3 33-6-10 4-29 3-33zm16 20c-5 16-15 14-19 24 3-9 16-17 19-24zm-33 7c-7 10-1 22-7 30 8-8 4-21 7-30zm16 28c-8 14-25 13-32 23 7-13 28-15 32-23zm-30-1c-14 9-10 19-21 29 14-11 13-22 21-29zm-6 37c-14 0-34 16-46 15 12 2 34-13 46-15zm-23-15c-1 13-37 21-41 30 4-12 36-20 41-30zM311 99c-5-4-10-7-12-10s6 8 10 11zm-8 4c-7-3-16-3-19-7s10 6 17 9zm-21 27c4-3 21-1 24-3s-19 1-24 3zm-39 8c4-6 24-9 27-15-5 10-21 9-27 15zm3 6c8-7 26-4 31-8-13 11-20 3-31 8zm31-19c4-9 17-9 20-15-5 8-16 9-20 15zm36-8c13-5 25-1 31-3-7 3-25 2-31 3zm-98 41c3-6 14-13 15-16s-13 11-15 16zm-3 11c9-13 24-12 30-17s-22 8-30 17zm-22 21c-1-14 11-20 11-27 1 9-11 22-11 27zm6 7c2-12 18-13 21-20 0 7-19 14-21 20zm-13-7c-8 9-3 23-6 34 4-7 2-26 6-34zm14 40c-13 12-7 26-13 32 6-8 5-24 13-32zm-26 2c11 11 4 27 10 35-7-7-6-27-10-35zm13 0c1-13 14-19 15-26 1 7-12 17-15 26zm7 30c-2 9 6 27 3 33 5-10-5-29-3-33zm-17 20c5 16 15 14 19 24-3-9-16-17-19-24zm33 7c7 10 1 22 7 30-8-8-4-21-7-30zm-16 28c8 14 25 13 32 23-7-13-28-15-32-23zm30-1c14 9 10 19 21 29-14-11-13-22-21-29zm6 37c14 0 34 16 46 15-12 2-34-12-46-15zm23-15c1 13 37 21 41 30-4-12-36-20-41-30zm53-220c3-11 17-14 19-20-1 6-18 14-19 20zm41-29c-2 9-17 14-19 20 0-9 16-14 19-20zm-12 21c7-11 22-8 27-14-3 7-22 7-27 14z"/>
  <path fill="none" stroke="#f7c608" stroke-width="8.12080002" d="M430 241c0 55-49 100-109 100s-109-45-109-100 49-100 109-100 109 45 109 100z" stroke-linecap="round" stroke-linejoin="round"/>
  <path fill="#f7c608" d="M300 340h-3l-8-2 2-8 8 2a1 1 0 0 1 1 2m-19-5h3l8 3-2 8-8-2a3 3 0 0 1-1-3"/>
  <path fill="#006233" d="M298 340h-2l-7-2 2-6h7m-16-4h2l6 2-2 6-6-2a2 2 0 0 1-1-2"/>
  <path fill="#f7c608" d="M270 331h-3l-7-4 5-7 7 4a1 1 0 0 1 1 2h-1m-16-10h3l7 4-5 7-7-4a3 3 0 0 1 0-3"/>
  <path fill="#006233" d="M268 330h-2l-6-3 3-5 6 3a1 1 0 0 1 0 2m-14-8h2l5 4-3 5-6-3c-1 0 0-2 0-2"/>
  <path fill="#f7c608" d="M244 314h-4l-6-5 7-5 6 5a1 1 0 0 1 0 2h-1m-13-13h3l5 6-7 5-5-6c0-1 0-2 1-3"/>
  <path fill="#006233" d="M243 312h-3l-5-5 5-4 5 4a1 1 0 0 1 0 2h-1m-11-11h3l4 5-5 4-4-5c0-1 0-2 1-2"/>
  <path fill="#f7c608" d="M225 291h-4l-4-7 8-3 4 7a1 1 0 0 1-1 2h-1m-8-16h4l3 7-8 3-3-7c0-1 1-2 2-2"/>
  <path fill="#006233" d="M224 289h-3l-3-6 6-2 3 5a1 1 0 0 1-1 2h-1m-7-13h3l2 6-6 2-3-6v-2"/>
  <path fill="#f7c608" d="M213 264h-3v-7h9l2 7a2 2 0 0 1-1 2h-1m-3-18h3a60 60 0 0 0 1 7h-9a71 71 0 0 1-1-7l2-2"/>
  <path fill="#006233" d="M213 263h-3v-6h6v6h-2m-3-15h2c0 2 0 4 1 6h-6v-6h2"/>
  <path fill="#f7c608" d="M210 235h-1l-2-2v-7h9a59 59 0 0 0-1 7h-3m3-18h1a2 2 0 0 1 1 2l-2 7h-9v-7h3"/>
  <path fill="#006233" d="M211 234h-2v-6h6a42 42 0 0 0-1 6h-2m2-15h2v6h-6v-6h2"/>
  <path fill="#f7c608" d="M216 207h-1a2 2 0 0 1-1-2l3-7 8 3-3 7h-3m8-16h1a1 1 0 0 1 1 2l-4 7-8-3 4-7h3"/>
  <path fill="#006233" d="M217 206h-1a1 1 0 0 1-1-2l3-6 6 2-2 6h-2m6-14h1a1 1 0 0 1 1 2l-3 5-6-2 3-6h2"/>
  <path fill="#f7c608" d="M231 181h-1a2 2 0 0 1 0-2l5-6 7 5-5 6h-3m13-14h1a1 1 0 0 1 0 2l-6 5-7-5 6-5h3"/>
  <path fill="#006233" d="M232 180h-1a1 1 0 0 1 0-2l4-5 5 4-4 5h-2m10-11h1a1 1 0 0 1 0 2l-5 4-5-4 5-5h2"/>
  <path fill="#f7c608" d="M253 160h-1a2 2 0 0 1 0-2l7-4 5 7-7 4h-3m16-10h1a1 1 0 0 1-1 2l-7 4-5-7 7-4h3"/>
  <path fill="#006233" d="M255 160h-1a1 1 0 0 1 0-2l6-3 3 5-5 4h-2m13-8h1a1 1 0 0 1 0 2l-6 3-3-5 6-3h2"/>
  <path fill="#f7c608" d="M281 146a2 2 0 0 1 1-2l8-2 2 8-8 3h-2m19-5a1 1 0 0 1-1 2l-8 2-2-8 8-2 2 2"/>
  <path fill="#006233" d="M283 146h1l6-2 2 6-6 2h-2m15-5h-7l-2-6 7-2h2"/>
  <path fill="#f7c608" d="M312 140l2-2h8v8h-8l-2-2m20 0l-2 2h-8v-8h8a3 3 0 0 1 2 2"/>
  <path fill="#006233" d="M313 140h8v6h-8m16 0h-8v-6h7v2"/>
  <path fill="#f7c608" d="M341 141h3l8 2-2 8-8-2a1 1 0 0 1-1-2m19 5h-2l-8-2 2-8 8 2a3 3 0 0 1 1 3"/>
  <path fill="#006233" d="M343 142h2l7 2-2 6h-7m16 4h-2l-6-2 2-6 6 2a2 2 0 0 1 1 2"/>
  <path fill="#f7c608" d="M371 151h3l7 4-5 7-7-4a1 1 0 0 1-1-2h1m17 9h-3l-7-4 5-7 7 4a3 3 0 0 1 0 3"/>
  <path fill="#006233" d="M373 152h2l6 3-3 5-6-3a1 1 0 0 1 0-2m14 8h-2l-6-4 3-5 6 3c1 0 0 2 0 2"/>
  <path fill="#f7c608" d="M397 167h4l6 5-7 5-6-5a1 1 0 0 1 0-2h1m13 13h-3l-5-6 7-5 5 6c0 1 0 2-1 3"/>
  <path fill="#006233" d="M398 168h3l5 5-5 4-5-4a1 1 0 0 1 0-2h1m11 11h-3l-4-5 5-4 4 5c0 1 0 2-1 2"/>
  <path fill="#f7c608" d="M417 190h4l4 7-8 3-4-7a1 1 0 0 1 1-2h1m8 16h-4l-3-7 8-3 3 7c0 1-1 2-2 2"/>
  <path fill="#006233" d="M417 191h3l3 6-6 2-3-5a1 1 0 0 1 1-2h1m7 13h-3l-3-6 6-2 3 6c0 1-1 2-1 2"/>
  <path fill="#f7c608" d="M429 217h3v7h-9l-2-7a2 2 0 0 1 1-2h1m3 18h-3a60 60 0 0 0-1-7h9a71 71 0 0 1 1 7l-2 2"/>
  <path fill="#006233" d="M429 218h3v6h-6v-6h2m3 15h-2c0-2 0-4-1-6h6v6h-2"/>
  <path fill="#f7c608" d="M432 245h1l2 2v7h-9a58 58 0 0 0 1-7h3m-2 18h-1a2 2 0 0 1-1-2l2-7h9v7h-3"/>
  <path fill="#006233" d="M431 247h2v6h-6a41 41 0 0 0 1-6h2m-2 15h-2v-6h6v6h-2"/>
  <path fill="#f7c608" d="M426 274h1a2 2 0 0 1 1 2l-3 7-8-3 3-7h3m-8 16h-1a1 1 0 0 1-1-2l4-7 8 3-4 7h-3"/>
  <path fill="#006233" d="M425 275h1a1 1 0 0 1 1 2l-3 6-6-2 2-6h2m-6 14h-1a1 1 0 0 1-1-2l3-5 6 2-3 6h-2"/>
  <path fill="#f7c608" d="M411 300h1a2 2 0 0 1 0 2l-5 6-7-5 5-6h3m-12 14h-1a1 1 0 0 1 0-2l6-5 7 5-6 6h-3"/>
  <path fill="#006233" d="M410 301h1a1 1 0 0 1 0 2l-4 5-5-4 4-5h2m-10 12h-1a1 1 0 0 1 0-2l5-4 5 4-4 5h-2"/>
  <path fill="#f7c608" d="M389 321h1a2 2 0 0 1 0 2l-7 4-5-7 7-4h3m-16 10h-1a1 1 0 0 1 0-2l7-4 5 7-7 4h-3"/>
  <path fill="#006233" d="M388 321h1a1 1 0 0 1 0 2l-6 3-3-5 5-4h2m-13 8h-1a1 1 0 0 1 0-2l6-3 3 5-6 3h-2"/>
  <path fill="#f7c608" d="M362 335a2 2 0 0 1-1 2l-8 2-3-8 8-3h2m-19 5a1 1 0 0 1 1-2l8-2 3 8-8 2-2-2"/>
  <path fill="#006233" d="M360 335h-1l-6 2-2-6 6-2h2m-15 5h7l2 6-7 2h-2"/>
  <path fill="#f7c608" d="M331 342l-2 2h-8v-8h8l2 2m-20 0l2-2h8v8h-8a3 3 0 0 1-2-2"/>
  <path fill="#006233" d="M329 342h-8v-6h8m-16 0h8v6h-7v-2"/>
</svg>
