<svg xmlns="http://www.w3.org/2000/svg" viewBox="0 0 640 481">
  <path fill="#00008b" d="M0 0h640v481H0z"/>
  <path fill="#fff" d="M175 236l10 31 31-12-19 28 29 17-33 3 4 32-22-24-23 24 5-32-33-3 28-17-18-28 31 12 10-31m349 56l5 15 15-5-9 13 14 8-16 1 2 16-11-12-11 12 3-16-16-1 13-8-8-13 14 5 5-15m-87-138l5 15 14-6-8 13 13 8-15 2 2 15-11-11-11 11 2-15-15-2 13-8-9-13 15 6 5-15m87-95l5 15 15-5-9 13 14 8-16 1 2 16-11-12-11 12 3-16-16-1 13-8-8-13 14 5 5-15m78 72l5 15 14-6-8 13 13 8-15 2 2 15-11-11-11 11 2-15-15-2 13-8-9-13 15 6 5-15m-43 70l4 9 10 1-8 6 3 10-9-5-8 5 2-10-8-6 10-1 4-9M146 0h58v58h146v58H204v58h-58v-57H0V58h146z"/>
  <path fill="#fff" d="M0 0h39l311 155v20h-40L0 20z"/>
  <path fill="#fff" d="M350 0h-40L0 155v20h39L350 20z"/>
  <path fill="red" d="M157 0h35v70h158v35H192v70h-35v-70H0V70h157z"/>
  <path fill="red" d="M0 0l117 58H90L0 13zm350 0h-27L207 58h26zm0 175l-117-58h26l90 45zM0 175h26l117-58h-26z"/>
</svg>
