<svg xmlns="http://www.w3.org/2000/svg" viewBox="0 0 640 480">
  <path fill="#009" d="M0 0h640v480H0V0z"/>
  <path fill="#fc0" d="M133 0l479 480V.3L133 0z"/>
  <path fill="#fff" d="M492.6 451.2l-26-19-27 19 10.2-31.3-26.5-20H456l10.2-31 10 31H509l-26 19 9.6 31zm50.7 28.5l25.5-19H536l-10-31-10.2 31H483l26.3 19M423 360.4l26.2-19.4h-32.8l-10-31.2-10.2 31h-32.7L390 360l-10.3 31.2 27-19 26 19-9.7-30.8zM362.6 300l26.2-19.3H356l-10-31.3-10 31h-33l26.6 19.3-10.2 31.2 27-19 26 19-9.8-31zM303 240.4l26.2-19.4h-32.8l-10-31.2-10.2 31h-32.7L270 240l-10.3 31.2 27-19 26 19-9.7-30.8zm-60.4-60.2l26.2-19.4H236l-10-31.2-10.2 31H183l26.5 19.3-10.2 31 27-19 26 19-9.7-31zm-59.7-60l26-19.3-33-1-10-31-10 31h-33l26 19-10 31 26.4-19 26 19-9.6-31zm-60-60L149 41h-32.6l-10-31.2-10.3 31H64L90 60 80 91.2l26.8-19 26 19-9.6-31zM29 .2l-10 31 26.7-19 26 19L63 .6l-.2-.4"/>
</svg>