<svg xmlns="http://www.w3.org/2000/svg" viewBox="0 0 640 480">
  <path fill="#229e45" d="M0 0h640v480H0z"/>
  <path fill="#f8e509" d="M321 436l302-196L320 44 17 241l304 195z"/>
  <path fill="#2b49a3" d="M453 240c0 70-57 127-128 127s-127-57-127-127 57-127 128-127 128 57 128 127z"/>
  <path fill="#ffffef" d="M283 316l-4-2-4 2v-5l-3-3h5l2-4 2 4h4l-3 3m86 26l-4-2-4 2v-5l-3-3h5l2-4 2 4h4l-3 3m-36-30l-3-2-4 2v-4l-3-3h4l2-4 2 4h4l-3 3m87-8l-3-2-3 2v-4l-3-3h4l2-3 2 4h4l-3 3m-87-22l-4-2-4 2v-5l-3-3h5l2-4 2 4h4l-3 3m-104-34l-4-2-4 2v-5l-3-3h5l2-4 2 4h4l-3 3m13 57l-4-2-4 2v-5l-3-3h5l2-4 2 4h4l-3 3m132-67l-3-2-4 2v-4l-3-3h4l2-4 2 4h4l-3 3m-7 38l-3-2h-3v-3l-2-2h6l-2 2m-137 53l-3-2h-3v-3l-2-2h6l-2 2m200 15h-4v-2l-2-2h4l-2 2"/>
  <path fill="#ffffef" d="M219 288l-3-2h-3v-3l-2-2h6l-2 2"/>
  <path fill="#ffffef" d="M219 288l-3-2h-3v-3l-2-2h6l-2 2m42 3l-3-2h-3v-3l-2-2h6l-2 2m-5 17l-3-2h-3v-3l-2-2h6l-2 2m87-22l-3-2h-3v-3l-2-2h6l-2 2m-25 3l-3-2h-3v-3l-2-2h6l-2 2m-69-6h-3v-2h1m168 45l-3-2h-3v-3l-2-2h6l-2 2m-21 6h-4v-3l-2-2h5l-2 2m10 2h-4v-2l-2-2h4l-2 2m29-23h-4v-2l-2-2h4l-2 2m-39 42h-5v-3l-2-2h6l-2 2m1 14h-5v-3l-2-2h6l-2 2m-19-23h-4v-2l-2-2h4l-2 2m-18 2h-4v-2l-2-2h4l-2 2m-30-25h-4v-2l-2-2h4l-2 2m4 57h-3v-2h1m-46-87l-4-2-4 2v-5l-3-3h5l2-4 2 4h4l-3 3"/>
  <path fill="#fff" d="M444 286a125 125 0 0 0 6-20c-68-60-143-90-239-84a125 125 0 0 0-8 21c113-11 196 39 241 83z"/>
  <path fill="#309e3a" d="M414 252h2a3 3 0 0 0 0 2v2h3l-2-2-2-3a4 4 0 0 1 1-3h6l3 3a4 4 0 0 1-1 3h-2a2 2 0 0 0 0-2h-4a1 1 0 0 0 0 1l2 2 2 3v4h-7l-3-3a5 5 0 0 1 1-4zm-11-8h2a3 3 0 0 0 0 2v2h3l-2-2-2-3a4 4 0 0 1 0-3h6l3 3a4 4 0 0 1 0 3h-2a2 2 0 0 0 0-2h-4a1 1 0 0 0 0 1l2 2 2 2v4l-2 2h-5l-3-3a5 5 0 0 1 0-4zm-14-4l7-12 9 5v2l-6-4-2 3 6 4v2l-6-4-2 3 7 4v2l-9-6zm-21-17v-2l5 3-3 5h-6l-3-3a6 6 0 0 1-1-3 9 9 0 0 1 1-4l3-3h7l3 3a5 5 0 0 1 0 4h-3a3 3 0 0 0 0-2h-5l-3 3a6 6 0 0 0-1 4l2 2h3v-2h-3zm-90-22l2-14h4v10l4-9h4l-2 14h-3l2-11-4 11h-3v-11l-2 11h-3zm-14-2v-13h10v2h-8v3h7v2h-7v4h8v2h-11zm-47-8a9 9 0 0 1 1-4v-2h5l5 2a9 9 0 0 1 0 11l-5 2-5-2a7 7 0 0 1-2-5z"/>
  <path fill="#f7ffff" d="M219 191a5 5 0 0 0 1 4h6a5 5 0 0 0 1-4 5 5 0 0 0-1-4h-6a5 5 0 0 0-1 4z"/>
  <path fill="#309e3a" d="M233 199v-15h11v2a4 4 0 0 1-1 3h-1l2 2 2 3h-3l-2-3v-2h-3v6h-3z"/>
  <path fill="#fff" d="M236 190v4z"/>
  <path fill="#309e3a" d="M249 185h10v2a10 10 0 0 1 0 3v3l-2 2h-9v-10z"/>
  <path fill="#fff" d="M252 188v9h6v-3a8 8 0 0 0 0-3h-6z"/>
  <path fill="#309e3a" d="M318 210l3-14h8l2 2a4 4 0 0 1 0 3v2h-8v5h-3z"/>
  <path fill="#fff" d="M323 200v4h5a2 2 0 0 0 0-1h-4z"/>
  <path fill="#309e3a" d="M331 214l5-13 6 2h3v2a4 4 0 0 1 0 2l-2 2h-3v7h-3v-6h-2l-2 6h-3z"/>
  <path fill="#fff" d="M336 207h6a2 2 0 0 0 0-1h-5v3z"/>
  <path fill="#309e3a" d="M347 214l2-3h7l4 3a9 9 0 0 1-3 10h-5l-4-3a7 7 0 0 1 0-6z"/>
  <path fill="#fff" d="M350 214a5 5 0 0 0 0 4l2 2h3l2-3a5 5 0 0 0 0-4l-2-2h-3l-2 3z"/>
  <path fill="#309e3a" d="M374 233l6-12 5 3 3 2v2a4 4 0 0 1 0 2l-2 2h-3v8l-3-2v-6h-2l-3 5h-3z"/>
  <path fill="#fff" d="M381 227h2l-2 3z"/>
  <path fill="#309e3a" d="M426 259l3-3h7a7 7 0 0 1 3 4 7 7 0 0 1-1 5l-4 3h-5a7 7 0 0 1-3-4 7 7 0 0 1 1-5z"/>
  <path fill="#fff" d="M429 260a5 5 0 0 0-1 4l2 3h3l3-2a5 5 0 0 0 1-4l-2-3h-3l-3 2z"/>
  <path fill="#309e3a" d="M302 205l2-10 7 2v2h-5v2h5v2h-5v3h5v2l-7-2z"/>
</svg>
