<svg xmlns="http://www.w3.org/2000/svg" viewBox="0 0 640 480">
  <path d="M0 320h640v160H0z"/>
  <path fill="#fff" d="M0 160h640v160H0z"/>
  <path fill="#ce1126" d="M0 0h640v160H0z"/>
  <path fill="#fff" stroke="#c09300" stroke-width="1.26999998" d="M321 242l55 51-4-92c-1-14-13-11-22-6s-19 6-30 2-21 4-30-2-21-8-22 6l-4 92 56-51z" stroke-linejoin="round"/>
  <path fill="#c09300" d="M275 197l-4 90-6 6 4-92 6-3zm8 6l-3 75-6 7 4-87 6 5zm7 6l-3 63-5 5 3-72 4 4zm8 3l-3 53-5 4 3-59 5 2zm7 0l-2 45-5 5 2-49h5zM365 197l4 90 6 6-4-92-6-3zm-8 6l3 75 6 7-4-87-6 5zm-7 6l3 63 5 5-3-72-4 4zm-8 3l3 53 5 4-3-59-5 2zm-7 0l2 45 5 5-2-49h-5z"/>
  <path fill="#c09300" stroke="#c09300" stroke-width="1.074" d="M323 252l8 35-3 3-3-2-4-31 2 31-3 3-3-3 2-31-4 31-3 2-3-3 8-35h5z"/>
  <g stroke="#c09300" stroke-linejoin="round">
    <path fill="#fff" stroke-width="1.18900001" d="M303 237l-15 54 21 3 9-41-15-17z"/>
    <path fill="none" stroke-width="1.26999998" d="M298 255l2 4 10-9"/>
    <path fill="none" stroke-width="1.26999998" d="M305 244l2 19 6-8m-3 3l3 12m1-4l-7 11m2 11l-2-11-2-11-5 6-2-7-7 7 3 12 5-8 3 8 5-7"/>
    <path fill="none" stroke-width="1.26999998" d="M292 290l4-6 3 9 4-6 3 8"/>
  </g>
  <g stroke="#c09300" stroke-linejoin="round">
    <path fill="#fff" stroke-width="1.18900001" d="M337 237l15 54-21 3-9-41 15-17z"/>
    <path fill="none" stroke-width="1.26999998" d="M342 255l-2 4-10-9"/>
    <path fill="none" stroke-width="1.26999998" d="M335 244l-2 19-6-8m3 3l-3 12m-1-4l7 11m-2 11l2-11 2-11 5 6 2-7 7 7-3 12-5-8-3 8-5-7"/>
    <path fill="none" stroke-width="1.26999998" d="M348 290l-4-6-3 9-4-6-3 8"/>
  </g>
  <path fill="#fff" stroke="#c09300" stroke-width="2.37800002" d="M320 315c16 0 31-1 40-4s4-3 4-5 2-6 4-6-3-4-6-4-4-5-8-4-21 3-34 3-26-1-34-3-8-1-8 4-4 4-6 4 1 4 4 6 0 4 4 5 24 4 40 4z" stroke-linecap="round" stroke-linejoin="round"/>
  <path fill="#fff" stroke="#c09300" stroke-width="1.26999998" d="M298 291h15c3 0 4 4-1 5h-14l-15-3c-4-2-1-6 1-5l14 3zm43 0h-15c-3 0-4 4 1 5h15l15-3c4-2 1-6-1-5l-14 3z" stroke-linecap="round" stroke-linejoin="round"/>
  <path fill="#fff" stroke="#c09300" stroke-width="1.26999998" d="M282 288c-4-1-6 4-4 6l4-3c0-1-1-1 0-3zm15 12c0-3 3-2 3-5s-1-3-2-3a3 3 0 0 0-3 3c-1 3 2 3 2 5zm18-7c4 0 3 5 2 8s-3-3-3-4 3-2 2-4zm42-4c4-1 6 4 4 6l-4-3c-1-2 1-2-1-4zm-15 12c0-3-3-2-3-5s1-3 2-3a3 3 0 0 1 3 3c1 3-2 3-2 5zm-18-7c-4 0-3 5-2 8s3-3 3-4-2-3-1-5z" stroke-linecap="round" stroke-linejoin="round"/>
  <path fill="#fff" stroke="#c09300" stroke-width=".89099997" d="M284 290zm6 2zm23 3zm-7 0zm50-4zm-6 2zm-23 3zm7 0z" stroke-linecap="round" stroke-linejoin="round"/>
  <g fill="#c09300">
    <path d="M283 300zm44 3h1a1 1 0 0 1 0 1h-1zm0 2zM286 296h-1v2h-3v2h11v-3-1h-1c-1 0 0 1 0 1h-2s-1 0-1-1v-2h-1s-1 0-1 1v1h-1c-1 0-1 0-1-1v-2h1v-2zm-3 6zm-1 4v-1h1v1h-1zm2 1zm71 0h1v1h-1zm-68 1h1s1 1 0 1h-1zm18 1v-2-2h2v1h-1v2a8 8 0 0 0 0 2h-1zm24-8h-1s0 1 1 1h-2v1h7v-2a9 9 0 0 1 0-2h-3v-5h-1zm0 7h-1v-1zm-24-7h-1c-1 0-1 1 0 1a3 3 0 0 1 0 1v6h-1c1 0 1-1 0-1h-1v-2h-3c-1 0-1 1-1 2s2 0 1 1h-3v-2h-1a1 1 0 0 0 0 2 2 2 0 0 1 0 2h7c1 0 0 0 0 1h3v-9zm-5 3h1-1zm53-6h-1c-1 0-1 1 0 1h2s1 1 1 2v3c1 1-1 1-1 1h-2v2c-1 0-1-1-2-1h-2c0-1 0-2-1-2s-2 1-1 2 0 1-1 2a4 4 0 0 0-1 2c-1 1-1-1-1-1h-1l-2 2a15 15 0 0 0 0 2h1c1 0 1 1 0 1l2-2h6v-2h10c1 0 0-1 0-1s-2 1-3 0-1-2-1-3 0-2-1-3h-2zm-5 8zm5 0zm-7 0h1a2 2 0 0 1 0 1zm-4 1zm7 1zm-14 4h2a5 5 0 0 0 0-1h-2zm-5 0zm-16-7h-1c0 1 1 1 0 2h-1v-2h-1v2a2 2 0 0 1-1 2h-2c-1 0 1 1 1 1h10v2h1v-2h4v-2-2h-2v2c0 1-1 0-1-1a4 4 0 0 0 0-1h-6c-1 0-1-1-1-1zm2 3h5v2h-1a6 6 0 0 1 0-1h-4zm9 0z"/>
  </g>
  <path fill="#fff" stroke="#c09300" stroke-width="1.14999998" d="M320 262a61 61 0 0 0 24-50h-2c-5 0-19-3-22-7s-17 7-22 7h-2a61 61 0 0 0 24 50z"/>
  <path fill="#fff" stroke="#c09300" stroke-width=".91600001" d="M342 214h-1c-5 0-16-3-21-6s-16 6-21 6h-1v3a58 58 0 0 0 2 12 57 57 0 0 0 20 30 57 57 0 0 0 20-30 58 58 0 0 0 2-12v-3z"/>
  <path fill="#c09300" d="M312 212l-13 2h-1v3a58 58 0 0 0 2 12 57 57 0 0 0 11 21zm16 0v39a57 57 0 0 0 12-22 58 58 0 0 0 2-12v-3h-1l-13-2z"/>
  <g>
    <path fill="#fff" stroke="#c09300" stroke-width="1.21800005" d="M330 202c1 0-1-3-1-3l7 2s-6-12-6-21-1-12-2-13-7-3-10-3-2 1-2 1-7-1-9 0-2 6-1 5 5 0 7 2 1 8-1 15-8 14-8 14l8-3v4l6-4 3 3 3-3a12 12 0 0 0 7 3z"/>
    <path fill="none" stroke="#c09300" stroke-width="1.26999998" d="M317 182s-2 13-5 17m8-17s-1 13-3 18m6-17s0 15 1 17m2-16s1 12 4 17"/>
    <path fill="#c09300" stroke="#c09300" stroke-width=".354" d="M314 176v-3c-2-2-4-4-7-2s1-3 3-3 5 1 8 6h-3l-1 1zM306 167v-2c2-1 5-1 9 0s0-2 2-1 9 2 10 3v2h-9l-4-2-5-2h-3z"/>
    <circle cx="319" cy="169" r="1" fill="#fff"/>
  </g>
</svg>
