<svg xmlns="http://www.w3.org/2000/svg" viewBox="0 0 640 480">
  <path fill="#0d5eaf" d="M0 0h640v53H0z"/>
  <path fill="#fff" d="M0 53h640v53H0z"/>
  <path fill="#0d5eaf" d="M0 107h640v53H0z"/>
  <path fill="#fff" d="M0 160h640v53H0z"/>
  <path fill="#0d5eaf" d="M0 213h640v53H0z"/>
  <path fill="#fff" d="M0 267h640v53H0z"/>
  <path fill="#0d5eaf" d="M0 320h640v53H0z"/>
  <path fill="#fff" d="M0 373h640v53H0z"/>
  <path fill="#0d5eaf" d="M0 427h640v53H0zM0 0h237v267H0z"/>
  <g fill="#fff">
    <path d="M95 0h47v267H95z"/>
    <path d="M0 107h237v53H0z"/>
  </g>
</svg>
