<svg xmlns="http://www.w3.org/2000/svg" viewBox="0 0 640 480">
  <path fill="#ba0000" d="M640 480H0V0h640z"/>
  <path fill="#fff" d="M310 232s-48-21-41-75c7-26 19-44 40-53 10-3 20-4 31-5-3 3-5 5-6 9s-1 12 2 17a50 50 0 0 1 7 22 34 34 0 0 1-14 32c-6 5-14 6-19 12a26 26 0 0 0-9 17c0 15 4 17 9 25z"/>
  <path fill="#ba0000" stroke="#000" stroke-width="2.15199995" d="M301 154"/>
  <path fill="none" stroke="#ba0000" stroke-width="2.15199995" d="M304 227c-19-17-17-59-3-73"/>
  <path fill="#ba0000" d="M313 145l3 5-6-2-4 5v-6l-6-2h6v-6l3 5h6"/>
  <path fill="#fff" d="M314 229s6-52 59-62c27-1 47 5 63 23s10 18 14 28c-3-2-6-3-10-4s-11 3-16 7a50 50 0 0 1-19 13 34 34 0 0 1-34-4c-6-5-10-11-17-15a26 26 0 0 0-19-3c-14 4-15 9-21 16z"/>
  <path fill="#ba0000" stroke="#000" stroke-width="2.15199995" d="M386 197"/>
  <path fill="none" stroke="#ba0000" stroke-width="2.15199995" d="M318 221c10-23 51-34 68-24"/>
  <path fill="#ba0000" d="M399 206l-4 4v-6l-6-3h6v-6l3 6h6l-4 4 3 6"/>
  <path fill="#fff" d="M318 233s51-11 77 37c10 25 10 46-2 67-6 8-14 16-22 22 1-4 1-7 0-11s-6-10-12-13a50 50 0 0 1-19-14 34 34 0 0 1-7-34c2-7 7-13 9-21a26 26 0 0 0-3-19c-9-12-13-12-22-15z"/>
  <path fill="#ba0000" stroke="#000" stroke-width="2.15199995" d="M371 291"/>
  <path fill="none" stroke="#ba0000" stroke-width="2.15199995" d="M326 234c25 3 48 38 44 57"/>
  <path fill="#ba0000" d="M367 305l-6-2h6v-6l3 5h6l-4 5 3 5-6-2-4 5"/>
  <path fill="#fff" d="M317 238s25 46-14 84c-21 16-42 23-64 17-10-4-19-9-28-15 4 0 7-1 10-3s8-9 9-15a50 50 0 0 1 8-22 34 34 0 0 1 30-16c8 0 15 3 23 3a26 26 0 0 0 17-8c9-12 7-16 8-25z"/>
  <path fill="#ba0000" stroke="#000" stroke-width="2.15199995" d="M276 305"/>
  <path fill="none" stroke="#ba0000" stroke-width="2.15199995" d="M318 246c5 25-23 57-43 59"/>
  <path fill="#ba0000" d="M261 305v-6l3 5h6l-4 4 3 5-6-3-4 4v-6l-6-3"/>
  <path fill="#fff" d="M311 237s-35 39-84 15c-22-15-35-32-38-55 0-11 2-21 5-31 2 3 3 6 6 9s11 4 17 3a50 50 0 0 1 23 1 34 34 0 0 1 26 23c3 7 2 15 5 22a26 26 0 0 0 13 14c14 5 18 2 27 0z"/>
  <path fill="#ba0000" stroke="#000" stroke-width="2.15199995" d="M234 220"/>
  <path fill="none" stroke="#ba0000" stroke-width="2.15199995" d="M304 241c-22 12-61-3-70-21"/>
  <path fill="#ba0000" d="M229 206h6l-4 5 3 6-5-3-4 5v-6l-5-3h6v-6"/>
</svg>
