<svg xmlns="http://www.w3.org/2000/svg" viewBox="0 0 640 480"><path fill="#171796" d="M0 0h640v480H0z"/><path fill="#fff" d="M0 0h640v320H0z"/><path fill="red" d="M0 0h640v160H0zm320 364.1c51.3 0 93.3-42 93.3-93.3V160H226.7v110.9c0 51.3 42 93.2 93.3 93.2z"/><path fill="#fff" d="M320 362.7c50.3 0 91.5-41.2 91.5-91.5V161.8h-183v109.4c0 50.3 41.2 91.5 91.5 91.5z"/><path fill="red" d="M267.1 165.2h-35.2v38.7h35.2zm0 77.4h35.2v-38.7h-35.2zm-35.2 28.3a89.37 89.37 0 00.6 10.4h34.6v-38.7h-35.2zm105.7-28.3h-35.2v38.7h35.2zm0 77.4h35.2v-38.7h-35.2zm35.2 21.2a90 90 0 0020.1-21.2h-20.1zM267.1 320h35.2v-38.7h-35.2zm-20.1 0a90 90 0 0020.1 21.2V320zm79.1 38.7a88.38 88.38 0 0011.5-1.6V320h-35.2v37.1a89.3 89.3 0 0011.4 1.6 101 101 0 0012.3 0z"/><path fill="red" d="M407.4 281.3a89.37 89.37 0 00.6-10.4v-28.3h-35.2v38.7zm-69.8-38.7h35.2v-38.7h-35.2zm0-77.4h-35.2v38.7h35.2zm70.4 38.7v-38.7h-35.2v38.7z"/><path fill="#fff" d="M410 158.8l21.8-49.5-16.6-26.9-27.6 10.2-19.4-22.1-25.5 14.6L320 66.5l-22.7 18.6-25.5-14.6-19.4 22.1-27.6-10.2-16.6 26.9 21.8 49.5a218.46 218.46 0 01180 0z"/><path fill="#0093dd" d="M253 94.8l-27.4-10.1-15.3 24.7 5.9 13.3 14.8 33.7a232 232 0 0134.6-12z"/><path fill="#fff" stroke="#000" stroke-width=".28" d="M251.4 119.3a13.21 13.21 0 011.5 6.2 13.38 13.38 0 01-26.5 2.6 13.42 13.42 0 0025.1-6.6 5.37 5.37 0 00-.1-2.2z"/><path fill="#f7db17" d="M227.6 113.9l.9-4.8-3.7-3.2-.2-.2.2-.1 4.6-1.6.9-4.8V99l.2.1 3.7 3.2 4.6-1.6.2-.1v.2l-.9 4.8 3.7 3.2.2.1-.2.1-4.6 1.6-.9 4.8v.2l-.2-.1-3.7-3.2-4.6 1.6-.2.1z"/><path fill="#171796" d="M297.5 87.4L272.2 73 253 94.8l12.6 49.7a221.14 221.14 0 0136.1-6z"/><path fill="red" d="M262.5 132.2a234.38 234.38 0 0138.2-6.4l-1.1-12.9a249.24 249.24 0 00-40.3 6.7l3.2 12.6zm-6.4-25a264.33 264.33 0 0142.4-7.1l-1.1-12.7a268.41 268.41 0 00-44.5 7.4z"/><path fill="#171796" d="M387.2 94.9L367.9 73l-25.2 14.5-4.3 51.1a219.37 219.37 0 0136.1 6z"/><path fill="#f7db17" d="M347.7 98a3 3 0 012.6.3 1.7 1.7 0 01.8.6 8.34 8.34 0 011.2-.8 8.11 8.11 0 011.8-1 7 7 0 012.7-.8 9.42 9.42 0 012.9-.1 4.76 4.76 0 012.3.7c.7.3 1.3.7 2 1a10 10 0 002.1 1 7.29 7.29 0 003 .5 7.57 7.57 0 001.5-.1c.4-.1.7.2.2.4-3.3 2-5.9.2-8.1-.6a19.32 19.32 0 012.1 1.7 11.69 11.69 0 003.5 2.4 7.54 7.54 0 003.5.8 9.15 9.15 0 001.6-.1c.3 0 .4 0 .4.1a.4.4 0 01-.2.4 5.24 5.24 0 01-2.6.8 11.12 11.12 0 01-5.2-1.3 28 28 0 01-3.3-2.4 7.34 7.34 0 00-3-1.4 5.67 5.67 0 00-2.9.1 1.63 1.63 0 01.6.3 4.34 4.34 0 001.9.5c.4.1.3.4-.4.7a1.72 1.72 0 01-1.7.7c-1 .6-1.3.3-1.7-.2a2.35 2.35 0 01-.2.8v.4a1 1 0 01.2.7.76.76 0 00.2.4 1.61 1.61 0 01.4.7.52.52 0 00.2.4 3.39 3.39 0 01.6.6 1.52 1.52 0 011 1.3 1.11 1.11 0 01.7.9c.3.1.5.2.6.5a21.75 21.75 0 012.6.1 3.51 3.51 0 012 1.2 2.44 2.44 0 001.2 0 5 5 0 011.3-.4 5.86 5.86 0 012.3.1 2 2 0 011.2.8 1.51 1.51 0 001.8.2 2.87 2.87 0 012.4 0 3.59 3.59 0 011.1-.2 1.28 1.28 0 011-.4c.5 0 1 .1.8.8 0 .2-.1.4-.3.4a1.42 1.42 0 01-1.4.7c-.1.4-.2.7-.5.8.3.9 0 1.2-.6 1.2-.1.3-.3.4-.7.4a1.05 1.05 0 01-.9.5c0 .2.1.3.3.6.4.7-.2.9-.8.9a2 2 0 01.1 1.3c.6.4.7.8.1 1.2.4.7.3 1.3-.5 1.6a1.49 1.49 0 01-.3 1c-.2.2-.5.2-.3.5.3.5.2 1.2-.2 1.2-.1 0-.2 0-.2.2s0 .1-.1.2a8.64 8.64 0 00-1.6 1c-.1 0-.1.1-.2 0a11.32 11.32 0 01-1.7 2.3 1.39 1.39 0 01-1 1.2.32.32 0 01-.3.3.68.68 0 01.1 1 2.8 2.8 0 01-1.3.9c-1 .3-1.6.2-2-.2s-.2-.6 0-.7c-.6 0-.7-.3-.7-.7 0-.2.1-.2.3-.2a5.39 5.39 0 001-.3 1.21 1.21 0 01.5-.5 1.61 1.61 0 011.2-1.3 3.42 3.42 0 001.4-1.3l.8-1.4a1.14 1.14 0 01-.3-.8 2.65 2.65 0 01-.6-.5.67.67 0 01-.7-.5h-.3c-.2.1-.4.3-.7.2a10.63 10.63 0 01-1.1.9c-.1.4-.4.5-.7.6-.9.1-1.4 1.2-1.9 1.7-.2.1-.3.4-.4.7 0 .6-.1 1.1-.5 1.1s-.3 0-.3-.1h-.4a.76.76 0 01.1.9 1 1 0 01-.9.4 3.9 3.9 0 01-1.6-.2.65.65 0 01-.5-.7c-.3-.2-.4-.3-.4-.5s.2-.3.5-.2a1.42 1.42 0 01.6-.2 5.51 5.51 0 011.8-1.4 4.35 4.35 0 01.7-.6 2.16 2.16 0 01.9-1.4 1.42 1.42 0 01.2-.6v-.3a1.47 1.47 0 01-.2-1.1.45.45 0 010-.5c-1.1.6-1.4.4-1.5-.1-.4.3-.8.5-1 0a2.16 2.16 0 01-1.1.1 2.35 2.35 0 01-.8.2 3 3 0 01-.5.7 2.39 2.39 0 01-.5 1.4 11.11 11.11 0 01-.7 1.6.9.9 0 01-.1.5c.1.6-.1.9-.4 1a1.61 1.61 0 01-.4.7v.2a.8.8 0 01-.2 1 4.05 4.05 0 01-.9.5 1.16 1.16 0 01-1 0c-.5-.2-.5-.4-.4-.6a.45.45 0 01-.5 0c-.1-.1-.2-.2-.3-.2-.1-.2-.2-.4.1-.5a2.84 2.84 0 00.9-.6c.1-.2.2-.4.4-.4.2-.4.4-.7.6-.7a10.09 10.09 0 01.7-1.5c.1-.1.2-.3.1-.4s0-.3.1-.3.2-.1 0-.2a1.32 1.32 0 01.2-1.2 2.14 2.14 0 00.3-1.9 2.77 2.77 0 01-.1-.9.37.37 0 01-.3-.1c-.2-.1-.4 0-.6.2s-.3.6-.4.6c-.1.8-.5 1.5-.9 1.6a2.16 2.16 0 00-.1 1.1c0 .4 0 .7-.2.7a.82.82 0 00-.5.5c0 .1-.1.2-.1.3a.56.56 0 01-.1.9 2.16 2.16 0 01-2.2.3c-.6-.2-.7-.5-.7-.7-.8-.1-.7-.7 0-.9a3.31 3.31 0 001.9-1.4c0-.8.2-1.4.7-1.5a3.71 3.71 0 01.4-1.4 1.94 1.94 0 00.3-1.3c-.5-.3-.5-.6-.1-.9a.19.19 0 000-.3c-.3 0-.3-.3-.2-.6a.22.22 0 00-.2-.2c-.6-.1-.5-.3-.2-.6.1-.1.2-.3.1-.4a.76.76 0 01-.2-.5c-.4-.3-.2-.6 0-.9a2 2 0 01-.4-.8c-.7 0-1-.4-.6-.9.2-.2.4-.5.6-.6a.83.83 0 00.2-.8c-.2-.5.5-.9 1-1.3a.6.6 0 01-.1-.4c-.3-.3-.2-.6.1-.9a.6.6 0 01-.1-.4c-.8.2-.8-.3-.4-1.1-.5-.3-.3-.7.5-1.4a.6.6 0 01.1-.4 1.69 1.69 0 00-1 .3 1 1 0 01-.9.1c-.1-.2-.3-.3-.4-.4s-.3-.4-.2-.6c-.9.1-1.1-.6-.5-1a1.56 1.56 0 00.6-.8 4.71 4.71 0 011.3-1.5 1.27 1.27 0 01.1-.6 1.08 1.08 0 00-.7-.3.9.9 0 00-.6-.6c-.2-.1-.2-.2-.1-.4-.7-.3-.6-.6-.4-.9z"/><path fill="#0093dd" d="M409 156.5l20.7-47-15.3-24.7-27.3 10.1-12.6 49.7a216.21 216.21 0 0134.5 11.9z"/><path fill="#fff" d="M382.6 113a250.49 250.49 0 0139.6 13.7l-8 18.1a235 235 0 00-36.5-12.6z"/><path fill="red" d="M415.5 141.9l5.3-12.1a244.11 244.11 0 00-39.1-13.5l-3.2 12.4a227.9 227.9 0 0137 12.8v.4z"/><path d="M385.6 125.8a1.42 1.42 0 011.1-.1 2 2 0 011.1-.1 1.42 1.42 0 01.6-.2.19.19 0 000-.3c-.1-.1-.1-.2-.2-.4a3.6 3.6 0 01-1.1-1.4c-.4-.1-.5-.2-.5-.3a.9.9 0 01-.5-.1 1.44 1.44 0 01-1.3-.4 1.33 1.33 0 01-.6-.5l-.3-.3c-.2-.3-.2-.6.2-.6a1.7 1.7 0 00.7-.1 2.77 2.77 0 01.9-.1c.3 0 .5-.2.9-.5v-.4c-.1-.1 0-.2.2-.2a1.05 1.05 0 01.9.5 1.64 1.64 0 011.2.8 1.34 1.34 0 011.2.5c0 .2-.2.4-.5.6v.1a1.76 1.76 0 01.4.5 3 3 0 011.1.6c1-.1 2.6.6 4.8 2a19.31 19.31 0 014.1 1.2h.8a8.45 8.45 0 016.8 1.6 14.13 14.13 0 012.2.6 4.15 4.15 0 001.6.3 7.71 7.71 0 012.6.7 3.69 3.69 0 012.4 1.2c.4.5.3.9-.2 1.1-.3.6-.9.7-1.8.4-.6.1-1.3-.4-2-.9a11.88 11.88 0 01-2.5-1.3 3.38 3.38 0 00-1.2-.6 1.1 1.1 0 00-.8 0c-.1.1-.1.1 0 .2a1.23 1.23 0 01.4.8v1a1.15 1.15 0 00.6.9 3 3 0 001 .4.32.32 0 01.3.3 8.47 8.47 0 00.4 1.7l.3.3c.6.4.3.9-.3 1a3.36 3.36 0 01-1.4.8.57.57 0 01-.7-.2c-.2 0-.4-.1-.4-.2-.5-.3-.1-.9 1-.7a.22.22 0 01.2-.2 1.39 1.39 0 010-.9c-.1-.1-.2-.1-.3-.2a2.38 2.38 0 01-1.1-.6 12.78 12.78 0 00-2.3-1.4 5.46 5.46 0 01-1.8-.6h-.8a.37.37 0 00-.5.2c-.2.3-.5.2-.8.2h-1.1c-.2 0-.3.1-.5.1a1.5 1.5 0 00-1 .2.59.59 0 01-.7.1c-.1-.1-.3-.1-.4-.2-.3-.1-.5-.1-.5-.2-.5-.1-.6-.3-.6-.4-.6-.1-.3-.6.1-.6s.9.1 1.4.1a1.64 1.64 0 001.2-.2l.5-.5a3.87 3.87 0 01-1.8-.5c-1.2-.7-2.1-.9-2.8-.3a.66.66 0 01-.6.1.64.64 0 00-.6 0 3 3 0 01-1.3-.1 3.67 3.67 0 01-1.8.1c-.5.3-.9.3-1.1.1s-.4-.3-.6-.4-.5-.1-.5-.2c-.4 0-.5-.2-.5-.4-.2-.2-.1-.4.1-.5a1.16 1.16 0 011 0 2.19 2.19 0 01.5.3 1.27 1.27 0 01.6.1c.1-.2.5-.2.9-.2a6.89 6.89 0 01.8-.3v-.1a1.39 1.39 0 01-.8-.7 2.53 2.53 0 01-1.5-.6 1.69 1.69 0 01-1-.3h-.8a3.3 3.3 0 01-1.4 0h-.8a.78.78 0 01-1 .2 1.37 1.37 0 00-.8-.5c-.3-.1-.4-.2-.4-.3-.3-.2-.3-.4.1-.6a1.23 1.23 0 011 .1c.3-.2.4-.2.6-.1z"/><path fill="#f7db17" d="M402.9 94.7v.2l.9 4.8-3.7 3.2-.2.2.2.1 4.7 1.6.9 4.8v.2l.2-.2 3.7-3.2 4.7 1.6.2.1v-.2l-.9-4.8 3.7-3.2.2-.2-.2-.1-4.7-1.6-.9-4.8V93l-.2.2-3.7 3.2-4.7-1.6z"/></svg>