<svg xmlns="http://www.w3.org/2000/svg" width="640" height="480" viewBox="0 0 640 480">
  <path fill="#FFF" d="M640.0001 479.9997H.0002V0h639.9999v479.9997z"/>
  <path fill="#00C" d="M640.0001 108.0279H.0002V45.0027h639.9999v63.0252zm0 328.5468H.0002v-63.0252h639.9999v63.0252zM210.0458 178.8561L313.283 358.425l105.4593-178.8282-208.6965-.7407z"/>
  <path fill="#FFF" d="M293.7827 297.9468l19.6407 33.2865 20.0628-33.1497-39.7026-.1359v-.0009z"/>
  <path fill="#00C" d="M209.6615 300.5442l103.2462-179.5689 105.4494 178.8282-208.6956.7407z"/>
  <path fill="#FFF" d="M293.7827 179.6346l19.6407-33.2865 20.0628 33.1497-39.7026.1359v.0009zm-41.0436 74.5308l-20.2878 33.7329 38.3436-.1188-18.0558-33.6141zm-19.9404-62.3439l38.6478.2718-18.594 33.9939-20.0529-34.2657h-.0009zm141.7869 62.7282l19.5282 33.3522-39.1032-.4995 19.575-32.8527zm19.1718-62.7282l-38.6487.2718 18.5949 33.9939 20.0538-34.2657zm-107.1279-.0369l-26.6193 48.2949 27 47.1537 49.4343 1.1412 30.0411-48.2949-27.7596-48.6747-52.0983.3798h.0018z"/>
</svg>
