<svg xmlns="http://www.w3.org/2000/svg" width="640" height="480" viewBox="0 0 640 480">
  <path fill="#4B92DB" d="M0 0h640v480H0V0z"/>
  <g fill="#FFF">
    <path d="M364.919 377.7c-1.9 2.3-4.4 4.4-6.8 6.3-15.2-16.2-33-34.1-49.9-34.1-10.5 0-18.1 8.2-26.9 14-12.2 8.1-29 12.6-43.4 6.7-7.7-3-15.2-7.5-20.9-14.7 11.3 8 28.3 9.1 41.1 3.7 14.1-6 28.5-14.1 44.6-14.1 23.8.1 46.3 16.6 62.2 32.2zm-175.6-50.8c15.7 18.4 41.4 12.5 62.4 17.1 2.9.6 5.7 1.6 8.8 1.1-2.5-1.6-5.8-1.8-8.7-2.9-16.3-6.3-18.8-24.3-27.7-36.6 11.4 7.8 20.8 18.5 31.5 28.5 7.4 7 16.6 10 26.2 12-2.3.9-5.3.7-7.8 1.3-17.2 4.4-36.3 11.3-54.6 5.1-11.8-4.1-24.1-13.6-30.1-25.6zm-25.2-42.7c9.8 22.9 34.5 24.7 50.8 38.7 3.1 2.7 6.2 5.1 9.6 6.8l.2-.2c-3.8-3.5-7.9-7.7-10.8-12.1-9.4-14-6.2-33.2-13.5-48 6.6 8.1 12.7 16.4 16.5 25.7 6.1 14.9 8.1 31.9 21.8 43.2-14.8-5-31.8-4-45.1-13-13.9-9.4-26.8-24.3-29.5-41.1zm-10.5-46.2c1.4 20.1 22.3 30.9 32.2 47.5 2.1 3.5 4.3 7.2 7.4 10-.5-2.1-2.2-4-3.1-6.2-3.2-7.1-4.6-15.3-3.8-23.8 1-10.3 5.1-19.8 3.5-30.7 8.6 19 5.8 42.8 10.7 63.4 1.1 4.6 3.8 8.5 5.4 12.8-8.4-6.6-19.4-12.4-28.7-19.9-8.9-7.2-16.7-15.7-20.7-26.8-2.9-7.9-3.6-17.4-2.9-26.3zm.6-37.2c1-4.5 1.8-9.2 3.7-13.3-3.6 19 8.7 32.7 12.9 49.2 1.6 6.2 2.1 12.8 4.6 18.6.2.1.4-.1.6-.3-6.1-17.5 2.8-33.7 11.5-47.5 2.3-3.6 3.4-7.8 4.4-12.1.9 7.9-.7 17.1-2.1 25.3-1.8 10.5-5.3 20.4-8.1 30.5-1.8 6.3-1.3 13.5-.4 20.2l-.9-.7c-6.4-12.2-19.2-21.8-23-35.2-3.2-10.7-5.4-23.1-3.2-34.7zm6.8-20.4c0-14.4 5.4-26.1 13.6-36.8.2-.1.4-.4.7-.3-9 14.1-.8 31.8-2 47.8l-1.2 16.4c.2.1.2.6.6.4.5-1.8.7-3.8 1-5.7 2.2-13.2 13.4-22.4 23-31.7 2.3-2.2 3.9-4.8 5-7.6-.8 6.6-2.6 13.3-5.4 19.3-7.3 15.3-21.5 27.7-24.1 45.1-1.3-16.7-11.2-29.2-11.2-46.9zm23.6-48.5c4.5-5.2 9.6-9.2 15.6-10.8-11.7 8.3-11.1 23.1-14.6 35.5-1.3 4.5-3.2 8.8-4.3 13.4l.3.2c1.9-5.3 5.3-10.4 9.6-14.6 8.2-8 20.6-12.8 24.7-24.5-.2 16.3-13.6 28.6-25.9 38.2-5.5 4.3-10.2 10-13.1 16.1.5-4.5.7-8.2.3-12.6-1.2-14.2-2-30.2 7.4-40.9zm47.5-27.4c-8.7 7.8-14.5 17.9-21.2 27-5.5 7.6-13.2 12.2-19.7 18.6 3.5-7.6 4.2-16.2 8.7-23.5 7.7-12.5 20.4-17.3 32.2-22.1z"/>
    <path d="M275.119 377.7c1.9 2.3 4.4 4.4 6.8 6.3 15.2-16.2 33-34.1 49.9-34.1 10.5 0 18.1 8.2 26.9 14 12.2 8.1 29 12.6 43.4 6.7 7.7-3 15.2-7.5 20.9-14.7-11.3 8-28.3 9.1-41.1 3.7-14.1-6-28.5-14.1-44.6-14.1-23.8.1-46.3 16.6-62.2 32.2zm175.6-50.8c-15.7 18.4-41.4 12.5-62.4 17.1-2.9.6-5.7 1.6-8.8 1.1 2.5-1.6 5.8-1.8 8.7-2.9 16.3-6.3 18.8-24.3 27.7-36.6-11.4 7.8-20.8 18.5-31.5 28.5-7.4 7-16.6 10-26.2 12 2.3.9 5.3.7 7.8 1.3 17.2 4.4 36.3 11.3 54.6 5.1 11.8-4.1 24.1-13.6 30.1-25.6zm25.2-42.7c-9.8 22.9-34.5 24.7-50.8 38.7-3.1 2.7-6.2 5.1-9.6 6.8l-.2-.2c3.8-3.5 7.9-7.7 10.8-12.1 9.4-14 6.2-33.2 13.5-48-6.6 8.1-12.7 16.4-16.5 25.7-6.2 14.9-8.2 31.9-21.9 43.2 14.8-5 31.8-4 45.1-13 14-9.4 26.9-24.3 29.6-41.1zm10.5-46.2c-1.4 20.1-22.3 30.9-32.2 47.5-2.1 3.5-4.3 7.2-7.4 10 .5-2.1 2.2-4 3.1-6.2 3.2-7.1 4.6-15.3 3.8-23.8-1-10.3-5.1-19.8-3.5-30.7-8.6 19-5.8 42.8-10.7 63.4-1.1 4.6-3.8 8.5-5.4 12.8 8.4-6.6 19.4-12.4 28.7-19.9 8.9-7.2 16.7-15.7 20.7-26.8 2.9-7.9 3.6-17.4 2.9-26.3zm-.6-37.2c-1-4.5-1.8-9.2-3.7-13.3 3.6 19-8.7 32.7-12.9 49.2-1.6 6.2-2.1 12.8-4.6 18.6-.2.1-.4-.1-.6-.3 6.1-17.5-2.8-33.7-11.5-47.5-2.3-3.6-3.4-7.8-4.4-12.1-.9 7.9.7 17.1 2.1 25.3 1.8 10.5 5.3 20.4 8.1 30.5 1.8 6.3 1.3 13.5.4 20.2l.9-.7c6.4-12.2 19.2-21.8 23-35.2 3.2-10.7 5.3-23.1 3.2-34.7zm-6.8-20.4c0-14.4-5.4-26.1-13.6-36.8-.2-.1-.4-.4-.7-.3 9 14.1.8 31.8 2 47.8l1.2 16.4c-.2.1-.2.6-.6.4-.5-1.8-.7-3.8-1-5.7-2.2-13.2-13.4-22.4-23-31.7-2.3-2.2-3.9-4.8-5-7.6.8 6.6 2.6 13.3 5.4 19.3 7.3 15.3 21.5 27.7 24.1 45.1 1.3-16.7 11.2-29.2 11.2-46.9zm-23.6-48.5c-4.5-5.2-9.6-9.2-15.6-10.8 11.7 8.3 11.1 23.1 14.6 35.5 1.3 4.5 3.2 8.8 4.3 13.4l-.3.2c-1.9-5.3-5.3-10.4-9.6-14.6-8.2-8-20.6-12.8-24.7-24.5.2 16.3 13.6 28.6 25.9 38.2 5.5 4.3 10.2 10 13.1 16.1-.5-4.5-.7-8.2-.3-12.6 1.2-14.2 2-30.2-7.4-40.9zm-47.5-27.4c8.7 7.8 14.5 17.9 21.2 27 5.5 7.6 13.2 12.2 19.7 18.6-3.5-7.6-4.2-16.2-8.7-23.5-7.7-12.5-20.4-17.3-32.2-22.1z"/>
  </g>
  <path fill="#FFF" d="M426.1 267l-2.6-1.4c-5.4 11.5-12.6 22.1-21.3 31.1l-15-15.4c7.3-7.8 13.3-16.6 17.6-26.2l-2.6-1.4c-4.3 9.5-10.1 18.1-17.1 25.5l-13.6-14c5.8-6.2 10.5-13.4 13.8-21l-2.5-1.4c-3.3 7.6-7.8 14.5-13.3 20.4l-15-15.4c4.2-4.6 7.4-9.8 9.6-15.5l-2.5-1.4c-2.1 5.5-5.2 10.5-9.1 14.8l-13.6-14c3.9-4.5 6.1-10 6.4-16h19.3c-.2 5.4-1.2 10.5-3 15.2l2.5 1.4c2-5.3 3.2-10.9 3.3-16.7h21.2c-.2 9.7-2.3 18.8-5.9 27.2l2.5 1.4c3.9-8.9 6-18.6 6.2-28.6h19.2c-.2 13.6-3.2 26.5-8.5 38.1l2.6 1.4c5.6-12.2 8.6-25.7 8.8-39.5H435c-.2 17.9-4.3 34.9-11.4 50l2.5 1.4c7.7-16.3 11.8-34.3 11.8-52.9 0-15.9-2.9-31.2-8.6-45.5l-2.6 1.2c5.3 13.5 8.1 27.9 8.3 42.9h-21.2c-.2-11.9-2.4-23.5-6.6-34.2l-2.6 1.2c4 10.4 6.2 21.6 6.4 33.1h-19.2c-.2-8.8-1.8-17.3-4.8-25.2l-2.6 1.2c2.9 7.6 4.4 15.7 4.6 24.1h-21.2c-.2-5.3-1.1-10.5-2.9-15.4l-2.6 1.2c1.6 4.5 2.5 9.3 2.7 14.3h-19.3c-.3-6-2.6-11.6-6.4-16l13.6-14c4.2 4.6 7.4 10 9.4 15.8l2.6-1.2c-2.2-6.1-5.6-11.8-10-16.7l15-15.5c6.4 6.9 11.3 14.8 14.5 23.5l2.6-1.2c-3.4-9-8.5-17.3-15.2-24.4l13.6-14c8.4 8.9 14.9 19.3 19.2 30.6l2.6-1.2c-4.5-11.6-11.2-22.3-19.8-31.5l15-15.5c10.6 11.2 18.8 24.2 24.4 38.3l2.6-1.2c-5.8-14.9-14.6-28.6-26-40.3-11.4-11.8-24.8-20.8-39.3-26.8l-1 2.7c13.7 5.7 26.4 14.1 37.3 25.1l-15 15.5c-8.8-8.8-19-15.6-30-20.2l-1 2.7c10.7 4.5 20.6 11 29.1 19.6l-13.6 14c-6.6-6.6-14.2-11.6-22.5-15.1l-1 2.7c7.9 3.3 15.2 8.2 21.5 14.5l-15 15.5c-4.2-4.1-9.1-7.3-14.3-9.6l-1 2.7c4.9 2.1 9.4 5.1 13.3 8.9l-13.6 14c-4.3-4-9.8-6.3-15.6-6.6v-19.8c5.5.2 10.9 1.4 15.9 3.5l1-2.7c-5.3-2.3-11-3.6-16.9-3.7v-21.9c8.6.2 16.9 2 24.7 5.2l1-2.7c-8.1-3.4-16.8-5.3-25.7-5.4v-19.8c11.4.2 22.5 2.5 32.8 6.8l1-2.7c-10.6-4.4-22-6.8-33.8-7V95.7c14.5.2 28.5 3.1 41.6 8.5l1-2.7c-13.8-5.7-28.7-8.7-44-8.7-18.9 0-36.8 4.7-52.7 12.9l1.3 2.6c15.4-7.9 32.4-12.2 50-12.5v21.9c-14.4.2-28 3.8-40.1 10l1.3 2.5c11.9-6.1 25.1-9.4 38.8-9.6v19.8c-10.7.2-20.8 2.9-29.9 7.4l1.3 2.6c8.8-4.4 18.5-6.8 28.6-7.1v21.9c-6.7.2-13 1.8-18.7 4.6l1.3 2.6c5.4-2.6 11.3-4 17.4-4.2V188c-3 .2-5.8.9-8.5 2l1.3 2.6c2.7-1.1 5.6-1.7 8.6-1.7 6.1 0 11.7 2.4 16 6.8 4.3 4.4 6.6 10.3 6.6 16.5 0 12.9-10.2 23.3-22.7 23.3-6.1 0-11.7-2.4-16-6.8-4.3-4.4-6.6-10.3-6.6-16.5s2.4-12.1 6.6-16.5c2.2-2.2 4.7-3.9 7.4-5.1l-1.3-2.6c-2.6 1.1-5 2.7-7.1 4.6l-13.6-14c3.5-3.4 7.5-6.2 11.8-8.2l-1.3-2.6c-4.6 2.2-8.8 5.2-12.5 8.7l-15-15.5c5.3-5.2 11.2-9.5 17.6-12.7l-1.3-2.6c-6.8 3.4-12.9 7.9-18.3 13.2l-13.6-14c6.9-6.9 14.6-12.5 23-16.7l-1.3-2.5c-8.8 4.5-16.7 10.3-23.7 17.2l-15.1-15.5c8.6-8.7 18.4-15.8 28.9-21.2l-1.3-2.6c-22.9 11.9-41.6 31.2-53 54.9l2.5 1.4c5.3-11.1 12.3-21.4 20.9-30.5l15.1 15.5c-7 7.4-12.9 16-17.3 25.4l2.5 1.4c4.2-9 9.8-17.4 16.8-24.8l13.6 14c-5.5 5.9-10 12.7-13.4 20.2l2.5 1.4c3.2-7.1 7.5-13.7 12.9-19.5l15 15.5c-3.8 4.2-7 9.1-9.2 14.5l2.5 1.4c2-5.1 5-9.7 8.7-13.8l13.6 14c-3.7 4.3-6.1 9.9-6.5 16h-19.3c.2-5.7 1.3-11.1 3.4-16.2l-2.5-1.4c-2.2 5.4-3.6 11.4-3.7 17.6h-21.2c.2-9.8 2.3-19.4 6.2-28.1l-2.5-1.4c-4 9-6.4 18.9-6.6 29.4h-19.2c.2-13.7 3.3-26.9 8.8-38.9l-2.5-1.4c-5.7 12.2-9 25.9-9.2 40.3H205c.2-17.9 4.3-35.1 11.7-50.7l-2.5-1.4c-7.7 16.2-12.1 34.3-12.1 53.5 0 11.7 1.6 23.2 4.7 34.2l2.8-.7c-2.9-10.3-4.5-21-4.7-32h21.2c.1 9.2 1.5 18.1 4 26.7l2.8-.7c-2.5-8.3-3.8-17-3.9-26h19.2c.1 7.3 1.3 14.4 3.4 21.1l2.8-.7c-2-6.5-3.2-13.4-3.3-20.4h21.2c.1 5.2 1.1 10.3 2.7 15l2.8-.7c-1.6-4.5-2.5-9.4-2.7-14.3h19.3c.3 6 2.6 11.6 6.4 16l-13.6 14c-4.2-4.6-7.4-10-9.4-15.7l-2.8.7c2.2 6.3 5.6 12.1 10.2 17.1l-15 15.5c-7.3-7.8-12.7-17.1-15.8-27.2l-2.8.7c3.3 10.6 8.9 20.3 16.6 28.6l-13.6 14c-10.2-10.8-17.5-23.7-21.7-37.7l-2.8.7c4.3 14.5 11.9 27.9 22.4 39.1l-15 15.5c-13.3-14-22.8-30.9-28-49.2l-2.8.7c5.5 19.3 15.6 37 29.8 51.6 9.6 9.9 20.6 17.9 32.5 23.7l1.4-2.6c-11.3-5.5-21.7-13-30.9-22.2l15-15.5c7.8 7.8 16.7 14 26.3 18.6l1.4-2.6c-9.4-4.4-18.1-10.5-25.7-18.1l13.6-14c6.4 6.3 13.7 11.3 21.6 14.7l1.4-2.6c-7.7-3.3-14.8-8.1-21-14.2l15-15.5c4.8 4.7 10.4 8.2 16.5 10.5l1.4-2.6c-5.9-2.1-11.3-5.4-16-9.9l13.6-14c4.3 4 9.8 6.3 15.6 6.6v19.8c-4.6-.1-9-1-13.2-2.5l-1.4 2.6c4.7 1.7 9.6 2.7 14.7 2.8v21.9c-8.8-.2-17.3-2.1-25.2-5.5L292 282c8.3 3.6 17.3 5.6 26.6 5.8v19.8c-12.7-.2-24.9-3.1-36.1-8.3l-1.4 2.6c11.6 5.5 24.4 8.5 37.5 8.7v21.9c-16.9-.2-33.2-4.1-48-11.4l-1.4 2.6c15.7 7.7 32.9 11.8 50.8 11.8 18.8 0 36.8-4.5 53.1-13l-1.3-2.7c-15.2 7.9-32.2 12.5-50.3 12.7v-21.9c14.3-.2 28.1-3.8 40.6-10.2l-1.3-2.6c-11.9 6.1-25.2 9.7-39.3 9.9v-19.8c10.8-.2 21.1-2.9 30.5-7.7l-1.3-2.6c-8.8 4.5-18.7 7.2-29.2 7.4v-21.9c6.9-.2 13.5-1.9 19.5-4.9l-1.3-2.6c-5.5 2.8-11.7 4.4-18.1 4.6v-19.8c5.8-.3 11.2-2.6 15.6-6.6l13.6 14c-3.3 3.2-7 5.8-11 7.8l1.3 2.6c4.3-2.1 8.2-4.9 11.7-8.4l15 15.4c-5 5-10.7 9.1-17 12.3l1.3 2.6c6.4-3.3 12.4-7.6 17.7-12.9l13.6 14c-6.6 6.6-14.2 12.2-22.5 16.5l1.3 2.6c8.4-4.4 16.3-10.1 23.2-17l15 15.4c-8.4 8.4-18 15.5-28.5 21l1.3 2.7c11-5.7 21.2-13.3 30.2-22.6 9.4-9.6 17-20.7 22.7-32.8z"/>
  <path fill="#FFF" d="M326 186l.1.9h.7l-.1-.9h-.7zM325 184.8h.9v.7h-.9v-.7zM324.1 184.7l.1-.7-.8-.2-.1.8.8.1zM322.6 184.3l-.9-.1.1-.7.9.1-.1.7zM315.7 183.3h.9v.7h-.9v-.7zM314.5 184.9l.1-.7-.8-.1-.1.7.8.1zM313.7 185.9l-.9-.2.2-.7.9.2-.2.7zM312 186.9l-.1-.8.7-.1.1.7-.7.2zM218.4 261.8h-.6v1.3h.9v1.6h.8l-.2-1.9-.9-.3v-.7zM225 270.9l-.4-1.1-.9-2.2 1.8.8.6 1.8.8.6.9 1.8-.5.9-1.3-1.2-1-1.4zM251.8 305.7l-1-1.5 1.5.2 1.5 1.4.6 1.6-.8.5-.5-.7-1.2-.4-.1-1.1zM316.3 194H315l-.2-2.7.7-.5v-1.4h-4.2l-.1-1.4.6-.4-1-.4-.7 1-.2 1.1-1.2.2v.6h-.8v1.6l-3.3 2.9-6.7-.2c-.5 1.1-1.7-.1-1.7-.1-.2-.7-1.9 0-1.9 0 0 1.4-2.3-.6-2.3-.6l-4.2-3.1c-2.4-2.2-5.9.6-6.1 1.2.1 1.7-2.7.4-2.7.4s-2.4-.7-2.7.2c-.4 1-1.9.7-1.9.7l-.2.5-1.2.2-.2.7-1.4.2 3.6-.1c1-.1-.4 2.1-1 2l-1.7.1-.6.6h-1.5l-.7 1-2.3-.1s-1.3 1.1-1.2 1.5c.1.4-.2 1.5-.6 1.5s-1.1 1.1-.8 1.5c.2.4-.7 1.6-.7 1.6l-.2 1.2-.7.2v3.4l-1.4 1v1.5l-2.1 2.4.2 2-1.8 2 .2 2-1.1.4-.2.9-.5 2.6 1.2.1c.6-.2.5 1.6 0 1.9-.5.2-1.8.7-1.1 1.2s-1.9.4-1.9-.4c0-.7-1.4-1.4-1.8-1.1-.4.2-1-1.1-1-1.1-1.3-1.4-5.3.1-5.3.1l-.6 2c-1.3.2-2.1 2.5-2.1 2.5-1.1.4-1.9 1.7-1.5 2.1.4.4-.6.5-.6.5v2.7l-.6.9.1 3c.7 0 .6 1.4.6 1.4-1.2.1-1 1.7-1 1.7l-2.5.9-.5.7-3.1-.1-.8.9-.8-.9h-5.9l-.2-.6-1.2-.2-.1-1.4-1.8.1-.4.7-1.9.1c.1 1.2-1.9 3.1-2.1 2.6-.2-.5-1.5-1.9-1-2.1.6-.2 2.1-.5 2.1-.5v-.6l-4.4-.1-.5.7-1.8.1v2l-.8.3c-.6.4.1 1.7.1 1.7.8.9-.1 2.2-.1 2.2-.7.7.6 2.1.6 2.1 1 .2-.6 1-.6 1 .2 1.2 1 1.6 1 1.6-.7 1.2.5 1.9.5 1.9l.1 2.1.8.5v1.4l.5.9h1.9l-.1-3.1c-1.7-2 1.4-2.5 1.5-1.7.1.7 1.4 1.1 1.4 1.1.2 1.9 2.3 3 2.9 1.1.6-1.9 1.1-.7 1.4.1.4.9 2.6 3 2.6 3h1.8l.2 1.7c2-.1 2.6.1 3.4 3 .8 2.9 3.1 3.6 3.1 3.6l1.7-.1c0-1.5 1.7.3 1.7 1s3.2 3.6 3.2 3.6l3.2.7 3 2.5 2.3-.2h1c.6-2.1 3.4.1 3.7.9.2.7 2.1 2 2.4 1.4.2-.6 1.5-.2 1.8 1.6.2 1.9 1.1 1.5 1.1 1.5l6.8-.1 2.4-2.1 6.1-.1c3.1-.1 1.2-4.5.6-4.5-1.1-.9.4-4.5.4-4.5l-8.7-8.3c-2 0-.2-3-.2-3 1.5-1-.4-2.6-.4-2.6.2-1.5-.8-3.2-.8-3.2-2.1-1.5-1.5-4.3-1.5-4.3v-2c-1.8-1.7.7-2 .7-2 .8-1.5-.6-2.6-.6-2.6l-.1-1.6-1.9-.2-.2-5.8-4.3-6.3c-.8-.3-.2-1.7-.2-1.7 1.1-.6-.2-2.1-.2-2.1l-.1-2.7 2.5-.2.6-1h1.2l-.1-3.2c.6-1.6 2-.7 2-.7l1.7.1 1-1.9.2-1.5-1.3-.1c-1.4-.9-.7-4.1-.7-4.1 2.3-3.5 4.9-1.5 4.9-1.5l1.7-.1c2.5 1.7.2 5 .2 5-.5.7-.2 3.1-.2 3.1l.6 4-1.5 1.4c-1.3.7-1.3 2.5.1 2.9 1 .1.6 2.5-.8.9-2.1 0 1.2 2 .2 1.5 2.1 1.1 1.7-1 1.7-1l2.9-2.4c1.1-.9 3 1.9 3 2.2 0 .4 4.8.1 4.8.1 1.3.9 1.8 3.1 1.8 3.1 1.3-1.7 4-.1 2 .9 1.9 1.2 1.9 2.4 1.9 2.4 1.5-.5 1.5.7 1.5 1.1 0 .4.5-1.9.5-1.9-1.8-1.4 2.4-1.9 1.2.6l-.7 1.1 1.2 1 .1 2.9c2.6-.2 1.9-3.6 1.9-3.6l1.2-.2c0-1.1.8-.5.8-.5-.8-4.2 1.9-5 1.9-5 1.5-.4 1.7-3.7 1.7-3.7-1.1-.5-.5-2.2.7-.7s-.7-3-.7-3l-.9-.9-1.3-.1-.1-1.4h-2.1l-.4 1.7-.8.2-.2-.5-.4 1.4h-2.1l-.1-1.5 1.3-.4.5-.7.4-2h1.5l2-.6c.1-2.1 1.2-1.6 1.2-1.6l.7.6 1.1.9.1.7-.7.4-.1 1 .4 1.4h1c.4-2 2.9-2 3.6-.7l.7-1.7c-1.7-.9 0-2.2.4-1.6.5.6 1.6-1.6 1.6-1.6s.8 1.1 0-.4.6-2.2.6-2.2c-.2-1.5 1.5-1.2 1.5-1.2l.1-2-1.7-.1c-.4 1.7-1.8.2-1.1-.1.7-.4 1.4-1.1 1.4-1.1v-1.2l.7-.2.1-1.2h1.8l1.5-.7.4-.6 1.7-.1 2.4-2.2-.2-1c-1.4 0 0-1.1 0-1.1l-.8-3z"/>
  <path fill="#FFF" d="M268.4 218.6l-2.1-.2.1.9h.6c1 1.7.1 6 .1 6s-1.4.1-1.7-.6c-.2-.7-.8 1.6-.4 2 .5.4 2.1 0 2.3 1.4.1 1.4 1.1-.9 1.1-.9v-8.6z"/>
  <path fill="#FFF" d="M267.5 229.4l-1.2-.7v3l1.9 2.6.7-1.8.2-1.1-.8-.4.1-1.8.7-.2.2-.8-1.8 1.2zM269.4 235.8l-.9.1-.1 1 1 .1v-1.2zM268.3 242.1l-1 .1v.9l1-.1v-.9zM269.7 239.1c.3 0 .5-.2.5-.5s-.2-.5-.5-.5-.5.2-.5.5.2.5.5.5z"/>
  <ellipse cx="270.5" cy="241.2" fill="#FFF" rx=".5" ry=".5"/>
  <ellipse cx="270.6" cy="227" fill="#FFF" rx=".5" ry=".5"/>
  <path fill="#FFF" d="M309.5 215.9l.3-1.5.1-1.1.5-.8 1.4-.6v-2.4h-.7l-.1-.8-1.3-.1-.3.6h-.6l-.1 1h.7l.1.7-.4.5-.3.6-.9.3-2.2 2.1-.1 1-.6.9-.7 1.8-2.5.1-.5 2.3.4 1.8 2.1.9.3-1.2.7-.4.1-1.2.5-.9.7-.9.2-1 1.2-.7 1.4-.3.6-.7zM314.3 217.1v-1.7l-.2-1.6-1.8-.9-1.3 1.2-.2 1.7v1.1l-1.2.2-.2 3.4-.9.4.1 1.2-1.3.4-1.3.4-.2 1.6-.9.6-.5 1.5-.6 3.6s1.1 2.1 1.7 1.1 1.5-1.1 1.5-1.1l.4-.9 3.2.1c.2-1.4 1.8-.9 1.8-.2 0 .6 1.2.1 1.2.1l.8-1.4h1.3l.1-1.5.6-.4v-2c1.9-.6 1.7-2.5 1.7-2.5l.5-.6-.2-.9c-1-.4-.5-1.2.1-1s-.8-1.1-.8-1.1c-.7.6-1.3-.7-1.3-.7l-2.1-.1zM316.2 232.2c-.1 1.5-1.9 2-1.9 2l-1.3-.4-.7-.6-.1-1.7 1.1-.1.2.7 2.7.1zM322.6 224.2c.3 1.1.2-1.7.7-1.6.5.1.1-1.7.1-1.7l-2.1 1.6c1.1.1 1.2 1.2 1.3 1.7zM328.9 217.7c.5 1.1.4 2.7 2.1 4 .6.4-.4 1.2-1 .9-.6-.4-2.3-3.1-2.3-3.1v-1.6c.5-1 1-.6 1.2-.2zM329.7 254.9l-.8.6.4.4.3.6.9-1.4-.8-.2z"/>
  <path fill="none" d="M325.9 253.5v1.5"/>
  <path fill="#FFF" d="M344.1 251.1l-.4-.6-.9.6.3.6 1-.6zM377.5 277.6l1.1.5.1 2.1c1.4 1.5 6.1.2 6.1-.1 0-.4-.2-4.6-.2-4.6l-.6-.6-.1-3.1c.5-1.6-2.3-4-2.5-3.5s-1.8.1-1.8.6-.9 3-.5 3.9c.5.9-.4.9-.5 1.7-.1.9-1.3 2.4-1.1 3.1zM374.9 272.6c-.2.9-1.1 1.5-1.5 1.1-.5-.4.6.6.8 1.1.2.5.9.5 1.2 0 .2-.5.1-1.6.4-2.1.2-.4-.8-.6-.9-.1zM369.4 249.9h.8v2.4h-.8v-2.4zM381.7 225.9c-.5-.7 2.4-2 2.9-.5s0 1.2-.5 1.1c-.5-.1-1.7.4-2.4-.6zM384.1 210l1.3.3.2-.7-1.4-.3-.1.7zM381 211.7l.7-.3-.3-.6-.1-.4-.4.2-.9.5-.7-.5-.4.6.9.6.2.2.2-.1.7-.5.1.3zM385.4 181.2h-1.8s.6.2-1.1-1.4c-1.7-1.6-2.7.4-2.7.4l-1.9.2v2l-1 .4.1 1.2 1.3-.1s0 1.5.4.9 3.3.1 3.1 1.6c-.1.6 3 2.2 2.6 4.2 1.5.2 1.2 1.9 1.2 1.9l2 .2.6-1.2.6.1v-.7l-1.3-.4-.2-4-.8-.6.2-1-1-.4.5-1.6-.8-1.7zM390.6 193.9l-1-.1-2.1.4-1.2 2.4s.6.4 1.1 1.2c.5.9.7 6-.7 6.8-1.4.9.1.4.1.4l-.2 2.7c.4 1.2 1 .6 1.3 0 .4-.6.7-.7 1.2-1.4.5-.6 1.2-1.7 1.3-2.6.1-.9.7-2.2.4-2.6-.4-.4.4-2.1.4-2.1s.5-1 0-2 .1-2.1.5-2.6l-1.1-.5zM392 199l.2-1 .7.1-.2 1-.7-.1zM392 202.4l-.6-.3.3-.8.6.4-.3.7zM391 192.5l-.5-1.1s0-1 .2-1.5-.5-1-.8-1.1c-.4-.1-.2-1.1-.4-1.6-.1-.5-.9-.9-.9-.9s-.2-1.9-.2-2.2c0-.4-1.1-.9-.7-1.2.4-.4.6-.9 1-1.1.4-.2-.4-2 .2-1.6s.6 1 .8 1.5c.2.5-.1 2.2.5 2.6.6.4-.1 1.6.8 1.6 1 0 .4 2.4.4 2.4s-.2 1.7.4 1.9c.6.1.2 3.1.2 3.1l-1-.8zM383.2 172.4c.4.5 1.1.9 1.1 1.4s-.2.9.5 1 1.2-.1 1.4.5c.2.6.2 1.6.1 2.1s.1 1.2.7 1.2.7.1.7.5.7-1.4.7-1.4c-.6-.5-1.1-1.6-1.1-1.6s-.6-1.7-.6-2c0-.2-.8-.5-1.2-.6-.4-.1-1-1.2-1-1.2l-1.3.1zM384.4 171.3c-.4-.5-.7-.9-1.2-1.1-.5-.2-.8-.5-1.3-.5s-.9-.5-.7-1.1c.2-.6-.4-.9-.4-1.4s.4-.5 1-.1.5.5 1 1.1.7 1.2 1.2 1.1c.5-.1.8 1.1 1.3.7.5-.4.4.9.4.9l-1.3.4zM370.5 185.3c.7.7-3.6.5-3.6 0s.4-2.2 1.4-1.9c1.1.4 1.2-2.2 1.2-2.2s-.9.1-.1-.4 0-1.2-.4-1.6c-.4-.4-.7-1-.7-1h1.7c.7-.5.9-2.9.9-2.9 1.4.5 2.1-.5 2.1-.5s.2.7.7 1.4c.5.6-1.2.9-.6 1.2.6.4.8 1.5.6 1.9-.2.4-1.5.1-1.5-.4s-.5.6 0 1.2-.6 1.5-.8 1.5c-.2 0-1.8.2-.5 1 1.3.7 2.7.4 2.7.4s1.1-.1 1.4.5c.4.6-.1.7-.7.7s-3.4-.2-3.4-.2-.7 1-.4 1.3zM362.9 186.4c.6-.1 2-.2 2.3.1.2.4-.8.9-.8.9l-1.4.2c-.6-.5-.7-1-.1-1.2zM378.2 176c.9-.5 3-.5 2.9-1.2s1.2-1 1.2-1l.4 1.5 1.1.7.1 1.4s.4-.2-1 .1c-1.3.4-.5 1-.5 1l-2.9.1-.4-1.2-.9-1.4zM373.6 169.3c.7 0-.2 2.9 1.7 2.6 1.9-.2.1.9 1.5 1s1.1-1.1 1.5-2c.5-.9.2-1.4-.6-1.6-.8-.2-.8-.2-1.1-1.2-.2-1-1.2-1.2-1.2-1.2l-.4-1.5-1.5 1-1.5 2.1c.1 1.6.9.8 1.6.8zM376.7 179.8l.4-.7.6.3-.3.7-.7-.3zM375.5 178.6h.7v.9h-.7v-.9zM376.1 162.1l.1 1.1-.7.1-.1-1.1.7-.1zM374.1 173.6h.7v.6h-.7v-.6zM372.2 173.6l-.1-.7 1.2-.1.1.7-1.2.1zM362.4 185.6l-.6-.3.3-.9.7.3-.4.9zM358.7 183.3l-.1-.7 1.2-.1.1.7-1.2.1zM335.4 183.2l.1.8 2.6-.2-.1-.7-2.6.1zM333.7 184.2l-.2-1.1.6-.2.3 1.1-.7.2zM333.2 184.9l-.2-.7.3-.1.2.7-.3.1zM339.1 182.8l-.1.9 1.3.1s.6.5.6.9.8.7 1.3.7 1.8-1 1.8-1 .6-1.7.1-1.6c-.5.1-1.4.9-1.5.1-.1-.7-1.5-.4-1.5-.4l-2 .3zM345.1 181.5c0 .4-.2.9.5 1s2-.5 2.1.2.1 1.2 1.1 1.6c.9.4 1.5.5 2.3.5.7 0 2.3-.2 2.3-.2s1.7.3 2 .6c1.3 1.4 2.1 1.7 2.5 1.1.4-.6-.1-2-.2-2.5s-1.8-2.9-2.4-2.4-.7 0-1.8.4-3.3.1-3.4-.4-1.8-.7-1.8-1.2-1.2-1.1-1.1-.4c.1.7-.8 1.1-1.1.9-.3-.2-1 .8-1 .8zM372.4 165.6l.8-2.7c-1.2-.2-1-1.6-1-1.6-.1-1.1-1.8-2.4-2.4-2s-.4-2.6-.4-2.6 1.1-.7 1.5-.4c.5.4-4-6.2-5-5.6-.9.6-3.1-.6-3-1.7.1-1.1-4.3-4.8-4.3-4.8s-1.4-1-1.7-.2c-.2.7-.7 1.2 0 1.6.7.4.6-.6 1.4.2.8.9 2.4 2 1.8 2.7s-1.3 1-1.3 1l.8 1h1.3l.2 2.1s1.4.7 1.8 1.6c.4.9.4 1.4 0 1.9s-1.1 1.4-1 2.2c.1.9 1.1 1.2 1.1 1.2l.9.1.7.4v1.6c.9-.2 2.5 1.1 2.4 2s.2.4 1.4 1.2c1.2.9.8 1 1.7 1.6 1.2.7 2 .3 2.3-.8z"/>
  <path fill="#FFF" d="M352.8 148.7c-.1-.5-.4-2.2.4-2.1.7.1.2 0 1.1.4.8.4 1-.6 1-.6h1.3l1.7 1.4-.2 1.1-1.2.1c-.6-1-1.8-.6-1.5.2.2.9-.6 2.5-1.1 2.6s-2 .1-1.9-.6c-.1-.8.4-2.5.4-2.5zM351.9 145.3v-1s-.1-1-.7-1-1.7-.7-1.4-1.2c.2-.5-2-1-2-1s-2-2-1.3-1.7c.7.2.4-.9.4-.9s-1.4.2-1.8.1c-.4-.1-.2-1.2-.2-1.2s-1.4-.4-1.4 0 .5.4.7 1.1c.2.7.1 2 1.2 2.2s1.3.5 1.4 1 1.4.6 1.4.6l1 .5 2.7 2.5zM338.7 131.7l-1-.3v1.1l1.3.2-.3-1zM338.7 127.4c-1.2-1 1.7.7 1.7.7.9 0 1.5.7 1.5 1.1 0 .4 1.3.2 1.3.2l.1-.9-1-1.2-.8-.6s-1.3-.1-1.3-.5c0-.2-1.1 1.6-1.5 1.2zM360.5 128.2c-.3 1.1-.5 2.6-1.1 2.6s-.4 1.6-.4 1.6 1.5 0 2 .1.5 1.4.5 1.4c1.8-.1 2.5 2.4 2.3 3s.7.6.7.6 0 2-.2 2.5 1.5.9 2 1.6c.5.7-.2 3.2-.6 3.4-.4.1.9.5.8 1.1s.4 0 .5 1 .4 3.1.4 3.1l1.7.1c.2-1.6 3.3-1.7 3.8-1.5 2 .7 3.6 4 3.6 4.7s-1.3.9-1.3.9l.2 3.6c2 .6 3.7 3.6 3.4 4.1-.2.5 1.4.4 1.4.4.2-2.2 2.3-1.5 2.4-.7.1.7.5 2.4.5 2.4l.6 1.1.8.9 1.3-.1.4.7 1.5.2s1.3 1.5 1.4 1.9 1.9.2 2.4.4c.5.1 1.2.5 1.3 1.1.1.6.8 1.6.8 1.6s1.4.4 1.5.9.7 1.6.7 1.6l1.2 1 .1 1.1 1.3.1.4 1.5 2.1-.1 1.2-.9c1.5-.9 2.6-2 2.7-2.5s.4-2.4 1.5-2c1.2.4.4-2.7.4-2.7s-1.7-1.2-1.5-1.9c.1-.6-1.7-1.9-1.5-2.4.1-.5-1.5-1.5-1.4-2s-.8-1.9-.8-1.9l-1.8-1.7-.2-1.1-1.4-.1-2.9-3.6.1-1-.8-.1v-1.4l-.8-.5-1.3-.1-2.6-3-.2-1.4h-1.3l.2-2.6c.8-1.1.4-3.2.4-3.2s-1.7.9-2.5.5.4-1.2.4-1.2v-1l-.7-.7s-2 .2-2.1-.1l-.5-2-.1-2.1-.8-.4-.1-.7-1.3.1v-1.5l-.7-.2-.7-.4-.1-1.5-2.6-.1-.8-1.2-1-1.5-3-.2-.7-.7-1.2-.2-.8-.4-.4.6-2.3.1-.1.7c-1.4.4-6.2-.1-6.3.3zM373 125c-.2-1 2.4-1.9 3-1.1.6.7 2.3.9 2.5 4.6.1 1.3-2.1-1.4-2.1-1.4l-1.8-.6c-1-.3-1.5-.9-1.6-1.5zM338.1 126.5l-.6-.3.5-1.1.6.3-.5 1.1zM332 114.3l-1.5-1.6v-1.4l-.5-.5-.5-1.7-1.5-.5-1.5.6-1.7 1.1-1.8.2-1 1.1 3.8.4.7 1.2 2.7.2 1.8 1.9c1.6.6 2-.2 1-1zM331.8 108.2c-.3-1.1-1.8 1.4-.2 1.9 1.5.5 3.1 0 3.1 0l.4-.7 5.9.1c.5-.5.7-1.2.7-1.2s1.4-.5 2-.2c.6.2.1-1.7-.5-1.5s-1.8.1-1.8.1h-2.1c-.1-.9-2-.5-2.1 0s-.8.6-.8.6l-2.7.2c-.4.7-1.8 1.2-1.9.7zM320 129.2c1.8.6 2.5.2 2.6-.3s.2-.6 1-.7c.7-.1-.1-1.6-.8-1.5-.7.1-1.4-.2-1.5-.9-.1-.6-1.3-2.2-1.4-1s-.8 1.2-.7 2.1c0 .8.3 2.1.8 2.3zM306.3 130.5c-.1-.4 2.4-.5 2.7-.1.4.4.1 1 1.2 1s.6.7.5 1.1c-.1.4-1.3.2-1.4-.1-.1-.4-1.9-.5-1.9-.5s-.9-.7-1.1-1.4zM345.8 104.7l-.6-.6-.5.5.8.9.3.2.2-.2 1.2-1-.4-.6-1 .8zM339.4 101.2l-.3.6.9.6.2.1.2-.1 1.3-.9-.4-.6-1.1.8-.8-.5zM336.2 127.2l-1.2-.1-.1.7 1.1.1.7 1.2.6-.4-.8-1.3-.1-.2h-.2zM297.1 161.8l.1 1.4h1.8c.7 0-.6-.9-.6-.9s-1.5.2-1.3-.5zM299.3 161.9l.5-.6.7.6-.5.6-.7-.6zM277.7 138.6l.5-.5.7.8-.5.5-.7-.8zM311 297.9l-.3.7.7.4-.2.2.5.5.6-.6.3-.3-.4-.3-1.2-.6zM302.5 289l-.7.6-.3.3.3.3.9.6.4-.6-.5-.3.4-.3-.5-.6zM391.4 266c-.2-.6-.9-.9-.9-.9l-.2.7c.1 0 .1.1.2.1l.1.6c-.1.1-.1.2-.2.2l.5.5c.4-.4.6-.8.5-1.2zM391.3 263.6l.1-1.1 1.2.1-.1 1.1-1.2-.1zM420 254c.5-.3 1.2-.9 1.1.5s-.6.9-1.1 1.4c-.4.4-.7-1.5 0-1.9zM426.1 248.7v-.2c0-.2 0-.5-.2-.8l-.6.3c.1.2.1.3.1.5s0 .5.2.6c.1.1.3.1.5.1l-.1-.7c0 .1.1.2.1.2zM424.5 249.3c.2.8.4 1.5.5 1.5l.7-.3s-.3-.7-.4-1.5l-.8.3zM421.9 252.3l-.7-.1c-.1.6.1 1.3.6 1.4l.1-.7v-.6zM418.8 237.4c0-.2-.2-.4-.4-.5-.5-.2-1.4.2-1.9.5l.4.6c.5-.3 1-.5 1.2-.4l.7-.2zM385.8 197.7c-.5.5-1.5.7-1.5.7l-.4 1.4-.6.5s.1.4 0 1.2c-.1.9-1.2 1.4-1.2 1.4l-.5.6s-2.9.2-3.2 0c-1.1-.5-.4-2 .4-1.9.7.1-.1-2.1-.1-2.1l1-.1s.1-2.2.5-2.2-.1-.7-.6-1.1c-.5-.4-1.1-1.6-1.5-1.5-.5.1-2.4 0-2.4 0l-.4.7-1.3.2s.1 1-.1 1.2c-.7.9-3.4 2.7-2.3-.4l.4-.7v-1.1l-2.1-.1s-1.1-.4-1.1-.9-.1-1.1-.1-1.1l-2.5-2.9-3-.4-.2-.6-1.8-.2c-2.1-1.1-4-.1-3.7 1.7.4 1.9.9 2.6-.2 2.6-1.2 0-1.4-1-1.4-1s-.9-.4-.9.1-.4 1.5 0 2-.5 1.2-.8.9c-.4-.4-1.3-1.5-1.1-1.9.2-.4-1.7-2.7.2-3.1 1.9-.4-.1-1.5.6-1.7l.9-.5h.9l.6-.5-1.5-.2-.9-.1-1.8-.1c-1.8 1.2-2.1 2.7-2.1 2.7-1 1.9-3.2-.7-2.4-1.7.8-1-2.6-.1-3.2.4s-2.4.2-2.4.2c-.4 1.1-2-.1-1.5-.9.5-.7.5-1.2.5-1.2l-.6-.1-.7 1.4c-1.7 0-2.1 1-1.8 1.6.4.6-.5-.1-.7.7-.2.9.1.9.8 1.2.7.4-.4.4.1 1s1.9 0 1.1.9-2.5.5-2.5.5c-.1 1.1-2.4.9-2.6.5s-2-2.6-2-2.6l-2.3-.1c-.2-1.7 1.1-.9 1.5-2.2.5-1.4.7-3.6.7-3.6s-1.9-.1-2 .5-1.3 1-1.3 1-1 .4-.6.9-.7.7-.7.7.2.8-.1 1.1c-.9 1-3.3.1-3.7-.2l-1.4-.6-1.4-1-1.7.7-.5.5h-1.8l-.1 1.5 3.2.4.2 3.1-1.3-.5h-.8l-.4-.7-.7-.1v2.7l.7.6.6.6 1.2.1.2 1.5 3 .1.4.6 1.8.1 3.4 3.6-.2 1.1-.6.4c.2.9-1.5.4-1.5.4v.7l.8.1.8.5 1.2-2.1c1.3-.9 1.9.4 2 1.1.1.7-.6.6-.6.6v1.7l.7.2c1.2 1.5-.5 2.4-.5 2.4l-.4 1.2c-.4 1.1-1.7.9-1.7.9l-.5.7-1.4.4 2.8.4c.3-1 1-1.2 1.3-.7.4.5.4 1.4.4 1.4l.7.1-.1 1.4.7.2v4l.8 1c1.4-.6 1.4.4.7.9s-.2 2.7-.2 2.7l-.6.6v1l-.7.5v1.4c-1.2-.6-2.6-.4-3 0-1.1-.7-3.3-.5-3.3.1.7 1-.8 1.2-.8 1.2l-.8 1c.6 1.2-.6 1.4-.6 1.4v2.4l-1.4 1.4.1 3.2c0 .9 1.8 1 2.1.5.4-.5 1.8 1 1.8 1h1.1l.2-2.2-.7-.4v-3.6l1.2-1.4c1.4-.5 1 3.2 1 3.6.1 1.4.7 1.2 1.3 1 1.2-.5.2 1.4-.7 1.2-.9-.1-.4 1.2-.4 1.2l.6.2-1.1.9-.9 1.1-1.2-.4-1.4-.1-.5-.9-.8-.1-.1 1.7-.6.7-1.4 1.5c1.9 0-.2 1.4-.7 1.4 1.1.4-.1 1.5-2.9.6v.9l-1 .1.8 1 .9.1-.4 2.1c0 1.6-3.9.5-4.3.1l-.1 2.2-.7.1.1 1.5-.1 2.1 1.3-.2v.9l3.2.1 4.6-5.1 2.7-.6c.2-1.2 1.4.2 1.4.2 1.2-.1 1.4.7 1.4.7l1.5.2c1.3.4.5.5.6 1 .1.7.7.5.7.5l.2-1.6.7.1-.7-.9-1.3-.6-1.4-.6c-1-1.4.2-1.1 1.2-1h1.5s1.8 2.5 1.8 3.1.8.7.8.7l1.1-.1.4.9h1.1l.4.7h2.1l.1-1.1-2-.4-.1-1.2-1.4-.4c-.5-2.1.4-2.7.9-1.7l.7.1-.2-1.9.8-.2-.2-2.6-.7-.2v-.9l3 .1c-.2-1.6.1-2.4.1-2.4h.8l.1.6 3.6.4 2.6-3c-.1-.2.3-.4 0-.7-.4-.4-.8 0-1.4-.4s0-2.5-.1-3 2-1.2 1.7-.1c-.4 1.1 0 1.6 0 1.6 1.5-1.5 2.9.1 2.7.5-.1.4.8.7 1.4.4.6-.4 1.3 1.1 1.1 1.9-.2.7-2.4.6-2.5-.1-.1-.7-.5-.5-.7-.1s-1.3.6-1.9.2c-.1-.1-.2-.1-.2-.2l-2.6 3h.2c1.4.9.7 2 .2 2.2s-1.3.2-1.3.2l-.2.5-3.1.2-.2 1.2c-1.5-.3-2.1 1.5-1.8 2.4.4.9 0 1.6 0 1.6l1.3.6 1.7-.5c.2-1.2 1.3-1.5 2.3-2.2.9-.7 2.5 1.4 2 2.4s-.5 1.4-.5 1.4l.1 1.1-1.2.5-1 .5-.1.6h-3.2l-.6.6-1.5.1-.5.7-1.1.1s-1.8.9-1.1 1.9c.7 1-3 .9-3.8-.5-.2 1.2-1.5.1-1.5.1l-1.3-.4-.1-1.9c-.2-1.2-2.5-1.2-2.4-.4.1.9-4.3.4-4.3.4l-1.4.7-1.3.8-.1.6-2.1.2-.9.5-.4-.7h-1l-1 1.4c-2.5.1-4.9 1.6-4.6 2.2.2.6-.9 1.2-.9 1.2l-1.1.4-.7 1.1-1.4.5-.2 2.6-.7.5v1.1l-.8.2v.6l-1.2.1.7 1.9 1 .5c1.7.2.9 2.4.9 2.4l1 .1.5 1.4.9 2c.4 1.5 1.4 1.1 1.9 1s.9 1.5.9 1.5l4.8.1s-.2.5.6.7c.8.2 6.3.5 6.5.1-.2-1.1 3-1.4 4.3-.4s3.1.4 3.1.4l1.8 2.2 1.2 2.7 2 .6 1.4.4.5 2.1 1.1.1.4 1.4c1.3 1-.4 3.1-.4 3.1v2.7l1 .5-.1 1 1.5 1.6 1.8.1 4.5 5 3.6 1.1.6 2 1-.1.7-.6 2.9-.1 1.4-1.4 1.5-.2 13.2-11.6-1.2-.7v-2.7c2.1-1.6 2.3-4.5.2-4.7-1.5-.2-.8-1.9.6-2.1l.8-.4v-1.1l2.7-2.6v-2l-5.9-5.1c-2.6-1 0-7 1.8-6.8 1.8.1-.1-9.2-.1-9.2l-1-.5.2-3H367l-2.1 2.9-.6 2c-.2 2.6-7.6 2.1-8 1.7s-2.9-1.5-2.9-1.5-1.9-1.6-2.3-1.1-2-.6-2-.2-1.5-.9-1.5-.9l-2.4-.9 1.8-.4-.4-1.5 3.1 1.6c.4.5 1.9.4 1.9.4l.5.6s1-.1 1.5.6c.6.7 3.7.1 3.7.1l.8.7 1.3.5 3.7.1.1-2.4.7-.7-.1-1.5.8-.7v-1.2l.7-.2.1-2.7.6-.1v-6l-1.8-1.7c-.1.6-2 .6-2 .6s-.5.9-.8.9c-.4 0 .5 1.1.2 1.9-.2.7-1.2.7-1.2.7l-1.8.5-.5.6h-1.9l-.2-1.6 2.1-.6 1.2-.6.6-1.2c.1-1.2 1.5-1.1 1.5-1.1s2.7-2.4 2.9-3.5c.1-1.1 1.1-4.2 2.7-4.2h3.1c1.2-.5.8-2.1.8-2.1l1.5-.2.2.9s2.1.2 2.4-.1c.2-.4.7-1.2 1.3-.9.6.4 2.5-.9 2.5-.9.1-.9 3.1-.5 3.1-.5l.4-1.1s-2-2.9-2.4-2.9-2.3-1.7-2.5-1.1c-1.9-.5-1.8-3.2-1.8-3.2l-.7-1.7c0-1-1.8-3.1-2.1-2.9-1.8-1.4-.5-3 0-3.1s1.7-1.9 1.7-1.9l.6-1.7 2-.6.2-1.6-1.1-.1s1.2-2.2 1.8-2.2c.6 0 4.5 0 4.9-.2s1.1-2.2 1.1-2.6c0-.4 1-.5 1.3-.6.4-.1 1.2-1.1 1.4-1.6.5 0-.4-3.2-.9-2.7z"/>
  <path fill="#FFF" d="M320 242.5c.2-.2.4.6.7.5.4-.1.5.7.2.7-.4 0-.4.5-.4.7s0 .7-.3.9c-.3.3-.5.1-.9-.1s-.5-.2-1-.2c-.4 0-.1.7-.1.7s-1.9-.1-1.5-.4c.4-.3.7-.4.4-.6-.3-.2 0-.4 0-.7 0-.4.9-.2.6-.5s0-1.4.4-.7l.3-.7c-.3-.3-.1-.4-.6-.6-.5-.2-.1-1.3-.1-1.3l.1-.7c.2-.9 2-1 2.1-.2s0 1.4 0 1.4l.5.2s-.1.6-.5.6 0 .3-.3.6l.4.4zM314.1 243.5c.3-.6.9-3 1.6-2.2.7.7 1.2 0 1.2 0s.4.4.2 1.1c-.2.7-.4 1.5-.8 1.6s-.8.4-1.3.5c-.6 0-.9-1-.9-1z"/>
</svg>
