<svg xmlns="http://www.w3.org/2000/svg" viewBox="0 0 640 480">
  <g fill="#fff">
    <path d="M0 0h639v480H0z"/>
    <path d="M0 322h639v157.65H0z"/>
    <path d="M66 345h3v3.08h-3zM60 329h46v3.17H60zM111 329h3v18.9h-3zM96 345h9v3.17h-9z"/>
    <path d="M96 337h3v10.57h-3zM111 345h17v3.17h-17z"/>
    <path d="M96 337h17v3.17H96zM60 337h17v3.17H60zM118 329h3v18.9h-3zM126 329h3v18.9h-3z"/>
    <path d="M96 337h3v10.57h-3z"/>
    <path d="M96 337h3v10.57h-3zM73 337h3v10.57h-3zM60 337h3v10.57h-3zM87 337h3v10.57h-3z"/>
    <path d="M96 337h3v10.57h-3zM75 345h14v3.17H75zM81 337h9v3.17h-9zM21 345h9v3.17h-9zM35 329h3v18.9h-3zM0 329h30v3.17H0z"/>
    <path d="M21 337h3v10.57h-3zM36 345h17v3.17H36zM0 337h1v3.17H0z"/>
    <path d="M43 329h3v18.9h-3zM21 337h17v3.17H21zM51 329h3v18.9h-3z"/>
    <path d="M21 337h3v10.57h-3z"/>
    <path d="M21 337h3v10.57h-3zM11 337h3v10.57h-3zM0 337h1v10.57H0z"/>
    <path d="M21 337h3v10.57h-3zM0 345h13v3.17H0zM5 337h9v3.17H5zM141 345h3v3.08h-3zM134 329h46v3.17h-46zM185 329h3v18.9h-3zM171 345h9v3.17h-9z"/>
    <path d="M171 337h3v10.57h-3zM186 345h17v3.17h-17zM134 337h17v3.17h-17z"/>
    <path d="M171 337h17v3.17h-17zM201 329h3v18.9h-3zM193 329h3v18.9h-3z"/>
    <path d="M171 337h3v10.57h-3z"/>
    <path d="M171 337h3v10.57h-3zM134 337h3v10.57h-3zM148 337h3v10.57h-3z"/>
    <path d="M171 337h3v10.57h-3zM161 337h3v10.57h-3z"/>
    <path d="M156 337h9v3.17h-9zM149 345h14v3.17h-14zM216 345h3v3.08h-3zM210 329h46v3.17h-46zM246 345h9v3.17h-9zM261 329h3v18.9h-3z"/>
    <path d="M246 337h3v10.57h-3zM261 345h17v3.17h-17zM210 337h17v3.17h-17z"/>
    <path d="M246 337h17v3.17h-17zM268 329h3v18.9h-3zM276 329h3v18.9h-3z"/>
    <path d="M246 337h3v10.57h-3z"/>
    <path d="M246 337h3v10.57h-3z"/>
    <path d="M246 337h3v10.57h-3zM223 337h3v10.57h-3zM210 337h3v10.57h-3zM237 337h3v10.57h-3z"/>
    <path d="M225 345h14v3.17h-14zM231 337h9v3.17h-9z"/>
    <g>
      <path d="M292 345h3v3.08h-3zM285 329h46v3.17h-46zM322 345h9v3.17h-9zM336 329h3v18.9h-3z"/>
      <path d="M322 337h3v10.57h-3zM337 345h17v3.17h-17zM285 337h17v3.17h-17z"/>
      <path d="M322 337h17v3.17h-17zM352 329h3v18.9h-3zM344 329h3v18.9h-3z"/>
      <path d="M322 337h3v10.57h-3z"/>
      <path d="M322 337h3v10.57h-3zM285 337h3v10.57h-3zM299 337h3v10.57h-3zM312 337h3v10.57h-3z"/>
      <path d="M322 337h3v10.57h-3zM300 345h14v3.17h-14zM306 337h9v3.17h-9z"/>
    </g>
    <path d="M0 0h639v157.65H0z"/>
    <g>
      <path d="M412 329h3v18.9h-3zM368 345h3v3.08h-3zM361 329h46v3.17h-46zM398 345h9v3.17h-9z"/>
      <path d="M398 337h3v10.57h-3zM413 345h17v3.17h-17z"/>
      <path d="M398 337h17v3.17h-17zM361 337h17v3.17h-17zM428 329h3v18.9h-3zM420 329h3v18.9h-3z"/>
      <path d="M398 337h3v10.57h-3z"/>
      <path d="M398 337h3v10.57h-3zM375 337h3v10.57h-3zM361 337h3v10.57h-3zM388 337h3v10.57h-3z"/>
      <path d="M398 337h3v10.57h-3zM376 345h14v3.17h-14zM382 337h9v3.17h-9z"/>
    </g>
    <g>
      <path d="M488 329h3v18.9h-3zM443 345h3v3.08h-3zM437 329h46v3.17h-46zM473 345h9v3.17h-9z"/>
      <path d="M473 337h3v10.57h-3zM488 345h17v3.17h-17z"/>
      <path d="M473 337h17v3.17h-17zM437 337h17v3.17h-17zM503 329h3v18.9h-3zM495 329h3v18.9h-3z"/>
      <path d="M473 337h3v10.57h-3z"/>
      <path d="M473 337h3v10.57h-3zM437 337h3v10.57h-3zM450 337h3v10.57h-3z"/>
      <path d="M473 337h3v10.57h-3zM464 337h3v10.57h-3z"/>
      <path d="M452 345h14v3.17h-14zM458 337h9v3.17h-9z"/>
    </g>
    <g>
      <path d="M519 345h3v3.08h-3zM512 329h46v3.17h-46zM549 345h9v3.17h-9zM563 329h3v18.9h-3z"/>
      <path d="M564 345h17v3.17h-17zM549 337h3v10.57h-3zM512 337h17v3.17h-17z"/>
      <path d="M549 337h17v3.17h-17zM571 329h3v18.9h-3zM579 329h3v18.9h-3z"/>
      <path d="M549 337h3v10.57h-3z"/>
      <path d="M549 337h3v10.57h-3zM526 337h3v10.57h-3zM512 337h3v10.57h-3z"/>
      <path d="M549 337h3v10.57h-3zM539 337h3v10.57h-3z"/>
      <path d="M527 345h14v3.17h-14zM533 337h9v3.17h-9z"/>
    </g>
    <g>
      <path d="M639 329v19M625 345h9v3.17h-9zM595 345h3v3.08h-3zM588 329h46v3.17h-46zM640 345v3"/>
      <path d="M625 337h3v10.57h-3zM639 337v3M588 337h17v3.17h-17z"/>
      <path d="M625 337h14v3.17h-14z"/>
      <path d="M625 337h3v10.57h-3z"/>
      <path d="M625 337h3v10.57h-3zM602 337h3v10.57h-3zM588 337h3v10.57h-3zM615 337h3v10.57h-3z"/>
      <path d="M625 337h3v10.57h-3zM603 345h14v3.17h-14zM609 337h9v3.17h-9z"/>
    </g>
    <g>
      <path d="M60 134h46v3.17H60zM66 150h3v3.08h-3zM96 150h9v3.17h-9zM111 134h3v18.9h-3z"/>
      <path d="M96 143h3v10.57h-3zM111 150h17v3.17h-17zM60 142h17v3.17H60z"/>
      <path d="M96 142h17v3.17H96zM126 134h3v18.9h-3zM118 134h3v18.9h-3z"/>
      <path d="M96 143h3v10.57h-3z"/>
      <path d="M96 143h3v10.57h-3zM60 143h3v10.57h-3zM73 143h3v10.57h-3zM87 143h3v10.57h-3z"/>
      <path d="M96 143h3v10.57h-3zM75 150h14v3.17H75zM81 142h9v3.17h-9z"/>
    </g>
    <g>
      <path d="M21 150h9v3.17h-9zM0 134h30v3.17H0zM35 134h3v18.9h-3z"/>
      <path d="M21 143h3v10.57h-3zM36 150h17v3.17H36zM0 142h1v3.17H0z"/>
      <path d="M51 134h3v18.9h-3zM43 134h3v18.9h-3zM21 142h17v3.17H21z"/>
      <path d="M21 143h3v10.57h-3z"/>
      <path d="M21 143h3v10.57h-3z"/>
      <path d="M21 143h3v10.57h-3zM0 143h1v10.57H0zM11 143h3v10.57h-3z"/>
      <path d="M5 142h9v3.17H5zM0 150h13v3.17H0z"/>
    </g>
    <g>
      <path d="M134 134h46v3.17h-46zM141 150h3v3.08h-3zM171 150h9v3.17h-9zM185 134h3v18.9h-3z"/>
      <path d="M171 143h3v10.57h-3zM186 150h17v3.17h-17zM134 142h17v3.17h-17z"/>
      <path d="M171 142h17v3.17h-17zM193 134h3v18.9h-3zM201 134h3v18.9h-3z"/>
      <path d="M171 143h3v10.57h-3z"/>
      <path d="M171 143h3v10.57h-3zM134 143h3v10.57h-3zM148 143h3v10.57h-3z"/>
      <path d="M171 143h3v10.57h-3zM161 143h3v10.57h-3z"/>
      <path d="M149 150h14v3.17h-14zM156 142h9v3.17h-9z"/>
    </g>
    <g>
      <path d="M261 134h3v18.9h-3zM210 134h46v3.17h-46zM216 150h3v3.08h-3zM246 150h9v3.17h-9z"/>
      <path d="M246 143h3v10.57h-3zM261 150h17v3.17h-17z"/>
      <path d="M246 142h17v3.17h-17zM210 142h17v3.17h-17zM268 134h3v18.9h-3zM276 134h3v18.9h-3z"/>
      <path d="M246 143h3v10.57h-3z"/>
      <path d="M246 143h3v10.57h-3zM223 143h3v10.57h-3zM210 143h3v10.57h-3zM237 143h3v10.57h-3z"/>
      <path d="M246 143h3v10.57h-3zM225 150h14v3.17h-14zM231 142h9v3.17h-9z"/>
    </g>
    <g>
      <path d="M292 150h3v3.08h-3zM285 134h46v3.17h-46zM322 150h9v3.17h-9zM336 134h3v18.9h-3z"/>
      <path d="M322 143h3v10.57h-3zM337 150h17v3.17h-17z"/>
      <path d="M322 142h17v3.17h-17zM285 142h17v3.17h-17zM352 134h3v18.9h-3zM344 134h3v18.9h-3z"/>
      <path d="M322 143h3v10.57h-3z"/>
      <path d="M322 143h3v10.57h-3zM299 143h3v10.57h-3z"/>
      <path d="M322 143h3v10.57h-3zM285 143h3v10.57h-3zM312 143h3v10.57h-3z"/>
      <path d="M300 150h14v3.17h-14zM306 142h9v3.17h-9z"/>
    </g>
    <g>
      <path d="M361 134h46v3.17h-46zM368 150h3v3.08h-3zM398 150h9v3.17h-9zM412 134h3v18.9h-3z"/>
      <path d="M413 150h17v3.17h-17zM398 143h3v10.57h-3z"/>
      <path d="M398 142h17v3.17h-17zM428 134h3v18.9h-3zM361 142h17v3.17h-17zM420 134h3v18.9h-3z"/>
      <path d="M398 143h3v10.57h-3z"/>
      <path d="M398 143h3v10.57h-3zM375 143h3v10.57h-3zM361 143h3v10.57h-3z"/>
      <path d="M398 143h3v10.57h-3zM388 143h3v10.57h-3z"/>
      <path d="M376 150h14v3.17h-14zM382 142h9v3.17h-9z"/>
    </g>
    <g>
      <path d="M443 150h3v3.08h-3zM437 134h46v3.17h-46zM488 134h3v18.9h-3zM473 150h9v3.17h-9z"/>
      <path d="M473 143h3v10.57h-3zM488 150h17v3.17h-17zM437 142h17v3.17h-17z"/>
      <path d="M473 142h17v3.17h-17zM503 134h3v18.9h-3zM495 134h3v18.9h-3z"/>
      <path d="M473 143h3v10.57h-3z"/>
      <path d="M473 143h3v10.57h-3z"/>
      <path d="M473 143h3v10.57h-3zM450 143h3v10.57h-3zM437 143h3v10.57h-3zM464 143h3v10.57h-3z"/>
      <path d="M452 150h14v3.17h-14zM458 142h9v3.17h-9z"/>
    </g>
    <g>
      <path d="M519 150h3v3.08h-3zM512 134h46v3.17h-46zM549 150h9v3.17h-9zM563 134h3v18.9h-3z"/>
      <path d="M549 143h3v10.57h-3zM564 150h17v3.17h-17zM512 142h17v3.17h-17z"/>
      <path d="M579 134h3v18.9h-3zM549 142h17v3.17h-17zM571 134h3v18.9h-3z"/>
      <path d="M549 143h3v10.57h-3z"/>
      <path d="M549 143h3v10.57h-3zM526 143h3v10.57h-3zM512 143h3v10.57h-3z"/>
      <path d="M549 143h3v10.57h-3zM539 143h3v10.57h-3z"/>
      <path d="M533 142h9v3.17h-9zM527 150h14v3.17h-14z"/>
    </g>
    <g>
      <path d="M639 134v19M625 150h9v3.17h-9zM595 150h3v3.08h-3zM588 134h46v3.17h-46zM640 150v3"/>
      <path d="M625 143h3v10.57h-3zM639 142v3M588 142h17v3.17h-17z"/>
      <path d="M625 142h14v3.17h-14z"/>
      <path d="M625 143h3v10.57h-3z"/>
      <path d="M625 143h3v10.57h-3zM602 143h3v10.57h-3zM588 143h3v10.57h-3zM615 143h3v10.57h-3z"/>
      <path d="M625 143h3v10.57h-3zM603 150h14v3.17h-14zM609 142h9v3.17h-9z"/>
    </g>
    <path d="M507 318h6v9.85h-6zM15 318h6v9.85h-6zM430 318h6v9.85h-6zM468 318h6v9.85h-6zM619 318h6v9.85h-6zM543 318h6v9.85h-6zM581 318h6v9.85h-6zM393 318h6v9.85h-6zM128 318h6v9.85h-6zM90 318h6v9.85h-6zM166 318h6v9.85h-6zM354 318h6v9.85h-6zM52 318h6v9.85h-6zM317 318h6v9.85h-6zM279 318h6v9.85h-6zM241 318h6v9.85h-6zM203 318h6v9.85h-6zM581 152h6v9.85h-6zM543 152h6v9.85h-6zM468 152h6v9.85h-6zM507 152h6v9.85h-6zM619 152h6v9.85h-6zM90 152h6v9.85h-6zM15 152h6v9.85h-6zM52 152h6v9.85h-6zM354 152h6v9.85h-6zM241 152h6v9.85h-6zM430 152h6v9.85h-6zM279 152h6v9.85h-6zM166 152h6v9.85h-6zM203 152h6v9.85h-6zM317 152h6v9.85h-6zM393 152h6v9.85h-6zM128 152h6v9.85h-6z"/>
    <g>
      <path d="M342 185c8 10 32 63-15 99-22 17-8 18-8 20 36-19 47-45 47-67s-12-44-24-52zM278 288c-41-51-3-96 15-105-73 24-41 99-15 105z"/>
      <path d="M346 183c18 9 56 54 15 105 25-6 58-81-15-105zM312 284c-47-35-23-89-15-99-12 8-24 28-24 51s11 49 47 67c0-2 14-3-8-19zM319 180c1 4 20 8 18-11-3 7-12 7-18 4s-15 3-18-4c-3 14 11 18 18 11z"/>
      <path d="M320 290l6 11c12 1 30 3 38-2-14 0-31-2-44-9zM276 299c9 5 26 3 38 2l6-11c-13 7-31 9-44 9z"/>
      <path d="M311 189l1 114 8 8 7-9 1-112-9-8-8 7"/>
    </g>
  </g>
  <path fill="#fff" d="M0 0h639v480H0z"/>
  <path fill="#da0000" d="M0 322h639v157.65H0z"/>
  <g fill="#fff">
    <path d="M66 345h3v3.08h-3zM60 329h46v3.17H60zM111 329h3v18.9h-3zM96 345h9v3.17h-9z"/>
    <path d="M96 337h3v10.57h-3zM111 345h17v3.17h-17z"/>
    <path d="M96 337h17v3.17H96zM60 337h17v3.17H60zM118 329h3v18.9h-3zM126 329h3v18.9h-3z"/>
    <path d="M96 337h3v10.57h-3z"/>
    <path d="M96 337h3v10.57h-3zM73 337h3v10.57h-3zM60 337h3v10.57h-3zM87 337h3v10.57h-3z"/>
    <path d="M96 337h3v10.57h-3zM75 345h14v3.17H75zM81 337h9v3.17h-9z"/>
  </g>
  <g fill="#fff">
    <path d="M21 345h9v3.17h-9zM35 329h3v18.9h-3zM0 329h30v3.17H0z"/>
    <path d="M21 337h3v10.57h-3zM36 345h17v3.17H36zM0 337h1v3.17H0z"/>
    <path d="M43 329h3v18.9h-3zM21 337h17v3.17H21zM51 329h3v18.9h-3z"/>
    <path d="M21 337h3v10.57h-3z"/>
    <path d="M21 337h3v10.57h-3zM11 337h3v10.57h-3zM0 337h1v10.57H0z"/>
    <path d="M21 337h3v10.57h-3zM0 345h13v3.17H0zM5 337h9v3.17H5z"/>
  </g>
  <g fill="#fff">
    <path d="M141 345h3v3.08h-3zM134 329h46v3.17h-46zM185 329h3v18.9h-3zM171 345h9v3.17h-9z"/>
    <path d="M171 337h3v10.57h-3zM186 345h17v3.17h-17zM134 337h17v3.17h-17z"/>
    <path d="M171 337h17v3.17h-17zM201 329h3v18.9h-3zM193 329h3v18.9h-3z"/>
    <path d="M171 337h3v10.57h-3z"/>
    <path d="M171 337h3v10.57h-3zM134 337h3v10.57h-3zM148 337h3v10.57h-3z"/>
    <path d="M171 337h3v10.57h-3zM161 337h3v10.57h-3z"/>
    <path d="M156 337h9v3.17h-9zM149 345h14v3.17h-14z"/>
  </g>
  <g fill="#fff">
    <path d="M216 345h3v3.08h-3zM210 329h46v3.17h-46zM246 345h9v3.17h-9zM261 329h3v18.9h-3z"/>
    <path d="M246 337h3v10.57h-3zM261 345h17v3.17h-17zM210 337h17v3.17h-17z"/>
    <path d="M246 337h17v3.17h-17zM268 329h3v18.9h-3zM276 329h3v18.9h-3z"/>
    <path d="M246 337h3v10.57h-3z"/>
    <path d="M246 337h3v10.57h-3z"/>
    <path d="M246 337h3v10.57h-3zM223 337h3v10.57h-3zM210 337h3v10.57h-3zM237 337h3v10.57h-3z"/>
    <path d="M225 345h14v3.17h-14zM231 337h9v3.17h-9z"/>
  </g>
  <g fill="#fff">
    <path d="M292 345h3v3.08h-3zM285 329h46v3.17h-46zM322 345h9v3.17h-9zM336 329h3v18.9h-3z"/>
    <path d="M322 337h3v10.57h-3zM337 345h17v3.17h-17zM285 337h17v3.17h-17z"/>
    <path d="M322 337h17v3.17h-17zM352 329h3v18.9h-3zM344 329h3v18.9h-3z"/>
    <path d="M322 337h3v10.57h-3z"/>
    <path d="M322 337h3v10.57h-3zM285 337h3v10.57h-3zM299 337h3v10.57h-3zM312 337h3v10.57h-3z"/>
    <path d="M322 337h3v10.57h-3zM300 345h14v3.17h-14zM306 337h9v3.17h-9z"/>
  </g>
  <path fill="#239f40" d="M0 0h639v157.65H0z"/>
  <g fill="#fff">
    <path d="M412 329h3v18.9h-3zM368 345h3v3.08h-3zM361 329h46v3.17h-46zM398 345h9v3.17h-9z"/>
    <path d="M398 337h3v10.57h-3zM413 345h17v3.17h-17z"/>
    <path d="M398 337h17v3.17h-17zM361 337h17v3.17h-17zM428 329h3v18.9h-3zM420 329h3v18.9h-3z"/>
    <path d="M398 337h3v10.57h-3z"/>
    <path d="M398 337h3v10.57h-3zM375 337h3v10.57h-3zM361 337h3v10.57h-3zM388 337h3v10.57h-3z"/>
    <path d="M398 337h3v10.57h-3zM376 345h14v3.17h-14zM382 337h9v3.17h-9z"/>
  </g>
  <g fill="#fff">
    <path d="M488 329h3v18.9h-3zM443 345h3v3.08h-3zM437 329h46v3.17h-46zM473 345h9v3.17h-9z"/>
    <path d="M473 337h3v10.57h-3zM488 345h17v3.17h-17z"/>
    <path d="M473 337h17v3.17h-17zM437 337h17v3.17h-17zM503 329h3v18.9h-3zM495 329h3v18.9h-3z"/>
    <path d="M473 337h3v10.57h-3z"/>
    <path d="M473 337h3v10.57h-3zM437 337h3v10.57h-3zM450 337h3v10.57h-3z"/>
    <path d="M473 337h3v10.57h-3zM464 337h3v10.57h-3z"/>
    <path d="M452 345h14v3.17h-14zM458 337h9v3.17h-9z"/>
  </g>
  <g fill="#fff">
    <path d="M519 345h3v3.08h-3zM512 329h46v3.17h-46zM549 345h9v3.17h-9zM563 329h3v18.9h-3z"/>
    <path d="M564 345h17v3.17h-17zM549 337h3v10.57h-3zM512 337h17v3.17h-17z"/>
    <path d="M549 337h17v3.17h-17zM571 329h3v18.9h-3zM579 329h3v18.9h-3z"/>
    <path d="M549 337h3v10.57h-3z"/>
    <path d="M549 337h3v10.57h-3zM526 337h3v10.57h-3zM512 337h3v10.57h-3z"/>
    <path d="M549 337h3v10.57h-3zM539 337h3v10.57h-3z"/>
    <path d="M527 345h14v3.17h-14zM533 337h9v3.17h-9z"/>
  </g>
  <g fill="#fff">
    <path d="M639 329v19M625 345h9v3.17h-9zM595 345h3v3.08h-3zM588 329h46v3.17h-46zM640 345v3"/>
    <path d="M625 337h3v10.57h-3zM639 337v3M588 337h17v3.17h-17z"/>
    <path d="M625 337h14v3.17h-14z"/>
    <path d="M625 337h3v10.57h-3z"/>
    <path d="M625 337h3v10.57h-3zM602 337h3v10.57h-3zM588 337h3v10.57h-3zM615 337h3v10.57h-3z"/>
    <path d="M625 337h3v10.57h-3zM603 345h14v3.17h-14zM609 337h9v3.17h-9z"/>
  </g>
  <g fill="#fff">
    <path d="M60 134h46v3.17H60zM66 150h3v3.08h-3zM96 150h9v3.17h-9zM111 134h3v18.9h-3z"/>
    <path d="M96 143h3v10.57h-3zM111 150h17v3.17h-17zM60 142h17v3.17H60z"/>
    <path d="M96 142h17v3.17H96zM126 134h3v18.9h-3zM118 134h3v18.9h-3z"/>
    <path d="M96 143h3v10.57h-3z"/>
    <path d="M96 143h3v10.57h-3zM60 143h3v10.57h-3zM73 143h3v10.57h-3zM87 143h3v10.57h-3z"/>
    <path d="M96 143h3v10.57h-3zM75 150h14v3.17H75zM81 142h9v3.17h-9z"/>
  </g>
  <g fill="#fff">
    <path d="M21 150h9v3.17h-9zM0 134h30v3.17H0zM35 134h3v18.9h-3z"/>
    <path d="M21 143h3v10.57h-3zM36 150h17v3.17H36zM0 142h1v3.17H0z"/>
    <path d="M51 134h3v18.9h-3zM43 134h3v18.9h-3zM21 142h17v3.17H21z"/>
    <path d="M21 143h3v10.57h-3z"/>
    <path d="M21 143h3v10.57h-3z"/>
    <path d="M21 143h3v10.57h-3zM0 143h1v10.57H0zM11 143h3v10.57h-3z"/>
    <path d="M5 142h9v3.17H5zM0 150h13v3.17H0z"/>
  </g>
  <g fill="#fff">
    <path d="M134 134h46v3.17h-46zM141 150h3v3.08h-3zM171 150h9v3.17h-9zM185 134h3v18.9h-3z"/>
    <path d="M171 143h3v10.57h-3zM186 150h17v3.17h-17zM134 142h17v3.17h-17z"/>
    <path d="M171 142h17v3.17h-17zM193 134h3v18.9h-3zM201 134h3v18.9h-3z"/>
    <path d="M171 143h3v10.57h-3z"/>
    <path d="M171 143h3v10.57h-3zM134 143h3v10.57h-3zM148 143h3v10.57h-3z"/>
    <path d="M171 143h3v10.57h-3zM161 143h3v10.57h-3z"/>
    <path d="M149 150h14v3.17h-14zM156 142h9v3.17h-9z"/>
  </g>
  <g fill="#fff">
    <path d="M261 134h3v18.9h-3zM210 134h46v3.17h-46zM216 150h3v3.08h-3zM246 150h9v3.17h-9z"/>
    <path d="M246 143h3v10.57h-3zM261 150h17v3.17h-17z"/>
    <path d="M246 142h17v3.17h-17zM210 142h17v3.17h-17zM268 134h3v18.9h-3zM276 134h3v18.9h-3z"/>
    <path d="M246 143h3v10.57h-3z"/>
    <path d="M246 143h3v10.57h-3zM223 143h3v10.57h-3zM210 143h3v10.57h-3zM237 143h3v10.57h-3z"/>
    <path d="M246 143h3v10.57h-3zM225 150h14v3.17h-14zM231 142h9v3.17h-9z"/>
  </g>
  <g fill="#fff">
    <path d="M292 150h3v3.08h-3zM285 134h46v3.17h-46zM322 150h9v3.17h-9zM336 134h3v18.9h-3z"/>
    <path d="M322 143h3v10.57h-3zM337 150h17v3.17h-17z"/>
    <path d="M322 142h17v3.17h-17zM285 142h17v3.17h-17zM352 134h3v18.9h-3zM344 134h3v18.9h-3z"/>
    <path d="M322 143h3v10.57h-3z"/>
    <path d="M322 143h3v10.57h-3zM299 143h3v10.57h-3z"/>
    <path d="M322 143h3v10.57h-3zM285 143h3v10.57h-3zM312 143h3v10.57h-3z"/>
    <path d="M300 150h14v3.17h-14zM306 142h9v3.17h-9z"/>
  </g>
  <g fill="#fff">
    <path d="M361 134h46v3.17h-46zM368 150h3v3.08h-3zM398 150h9v3.17h-9zM412 134h3v18.9h-3z"/>
    <path d="M413 150h17v3.17h-17zM398 143h3v10.57h-3z"/>
    <path d="M398 142h17v3.17h-17zM428 134h3v18.9h-3zM361 142h17v3.17h-17zM420 134h3v18.9h-3z"/>
    <path d="M398 143h3v10.57h-3z"/>
    <path d="M398 143h3v10.57h-3zM375 143h3v10.57h-3zM361 143h3v10.57h-3z"/>
    <path d="M398 143h3v10.57h-3zM388 143h3v10.57h-3z"/>
    <path d="M376 150h14v3.17h-14zM382 142h9v3.17h-9z"/>
  </g>
  <g fill="#fff">
    <path d="M443 150h3v3.08h-3zM437 134h46v3.17h-46zM488 134h3v18.9h-3zM473 150h9v3.17h-9z"/>
    <path d="M473 143h3v10.57h-3zM488 150h17v3.17h-17zM437 142h17v3.17h-17z"/>
    <path d="M473 142h17v3.17h-17zM503 134h3v18.9h-3zM495 134h3v18.9h-3z"/>
    <path d="M473 143h3v10.57h-3z"/>
    <path d="M473 143h3v10.57h-3z"/>
    <path d="M473 143h3v10.57h-3zM450 143h3v10.57h-3zM437 143h3v10.57h-3zM464 143h3v10.57h-3z"/>
    <path d="M452 150h14v3.17h-14zM458 142h9v3.17h-9z"/>
  </g>
  <g fill="#fff">
    <path d="M519 150h3v3.08h-3zM512 134h46v3.17h-46zM549 150h9v3.17h-9zM563 134h3v18.9h-3z"/>
    <path d="M549 143h3v10.57h-3zM564 150h17v3.17h-17zM512 142h17v3.17h-17z"/>
    <path d="M579 134h3v18.9h-3zM549 142h17v3.17h-17zM571 134h3v18.9h-3z"/>
    <path d="M549 143h3v10.57h-3z"/>
    <path d="M549 143h3v10.57h-3zM526 143h3v10.57h-3zM512 143h3v10.57h-3z"/>
    <path d="M549 143h3v10.57h-3zM539 143h3v10.57h-3z"/>
    <path d="M533 142h9v3.17h-9zM527 150h14v3.17h-14z"/>
  </g>
  <g fill="#fff">
    <path d="M639 134v19M625 150h9v3.17h-9zM595 150h3v3.08h-3zM588 134h46v3.17h-46zM640 150v3"/>
    <path d="M625 143h3v10.57h-3zM639 142v3M588 142h17v3.17h-17z"/>
    <path d="M625 142h14v3.17h-14z"/>
    <path d="M625 143h3v10.57h-3z"/>
    <path d="M625 143h3v10.57h-3zM602 143h3v10.57h-3zM588 143h3v10.57h-3zM615 143h3v10.57h-3z"/>
    <path d="M625 143h3v10.57h-3zM603 150h14v3.17h-14zM609 142h9v3.17h-9z"/>
  </g>
  <path fill="#d90000" d="M507 318h6v9.85h-6zM15 318h6v9.85h-6zM430 318h6v9.85h-6zM468 318h6v9.85h-6zM619 318h6v9.85h-6zM543 318h6v9.85h-6zM581 318h6v9.85h-6zM393 318h6v9.85h-6zM128 318h6v9.85h-6zM90 318h6v9.85h-6zM166 318h6v9.85h-6zM354 318h6v9.85h-6zM52 318h6v9.85h-6zM317 318h6v9.85h-6zM279 318h6v9.85h-6zM241 318h6v9.85h-6zM203 318h6v9.85h-6z"/>
  <path fill="#239e3f" d="M581 152h6v9.85h-6zM543 152h6v9.85h-6zM468 152h6v9.85h-6zM507 152h6v9.85h-6zM619 152h6v9.85h-6zM90 152h6v9.85h-6zM15 152h6v9.85h-6zM52 152h6v9.85h-6zM354 152h6v9.85h-6zM241 152h6v9.85h-6zM430 152h6v9.85h-6zM279 152h6v9.85h-6zM166 152h6v9.85h-6zM203 152h6v9.85h-6zM317 152h6v9.85h-6zM393 152h6v9.85h-6zM128 152h6v9.85h-6z"/>
  <g fill="#da0000">
    <path d="M342 185c8 10 32 63-15 99-22 17-8 18-8 20 36-19 47-45 47-67s-12-44-24-52zM278 288c-41-51-3-96 15-105-73 24-41 99-15 105z"/>
    <path d="M346 183c18 9 56 54 15 105 25-6 58-81-15-105zM312 284c-47-35-23-89-15-99-12 8-24 28-24 51s11 49 47 67c0-2 14-3-8-19zM319 180c1 4 20 8 18-11-3 7-12 7-18 4s-15 3-18-4c-3 14 11 18 18 11z"/>
    <path d="M320 290l6 11c12 1 30 3 38-2-14 0-31-2-44-9zM276 299c9 5 26 3 38 2l6-11c-13 7-31 9-44 9z"/>
    <path d="M311 189l1 114 8 8 7-9 1-112-9-8-8 7"/>
  </g>
</svg>
