<svg xmlns="http://www.w3.org/2000/svg" viewBox="0 0 640 480">
  <path fill="#cc0001" d="M0 0h640v480H0z"/>
  <path fill="#fff" d="M0 446h640v34H0zM0 377h640v34H0zM0 309h640v34H0zM0 240h640v34H0zM0 171h640v34H0zM0 103h640v34H0zM0 34h640v35H0z"/>
  <path fill="#010066" d="M0 0h373v274H0z"/>
  <g fill="#fc0">
    <path d="M150 49c-49 0-89 40-89 89s40 89 89 89a89 89 0 0 0 48-14 79 79 0 1 1 2-148 89 89 0 0 0-50-16z"/>
    <path d="M297 183l-37-20 11 40-25-33-8 41-8-41-25 33 11-40-38 19 28-31-42 2 39-16-39-16 42 2-27-32 37 20-11-40 25 33 8-41 8 41 25-33-11 40 38-19-28 31 42-2-39 16 39 16-42-2z"/>
  </g>
</svg>
