<svg xmlns="http://www.w3.org/2000/svg" xmlns:xlink="http://www.w3.org/1999/xlink" viewBox="0 0 640 480">
  <defs>
    <clipPath id="aNZ">
      <path fill="none" d="M0 0h320v160H0z"/>
    </clipPath>
    <clipPath id="bNZ">
      <path fill="none" d="M0 0l160 80h-160v-80zm160 0h160l-160 80v-80zm0 80h160v80l-160-80zm0 0v80h-160l160-80z"/>
    </clipPath>
  </defs>

  <path fill="#00247d" d="M0 0h640v480H0z"/>

  <g clip-path="url(#aNZ)">
    <path stroke="#FFFFFF" stroke-width="45" d="M0 0l320 160m-320 0l320-160"/>

    <g clip-path="url(#bNZ)">
      <path stroke="#CC142B" stroke-width="29" d="M0 0l320 160m-320 0l320-160"/>
    </g>

    <path stroke="#FFFFFF" stroke-width="61" d="M160 0v160m-160-80h320"/>
    <path stroke="#CC142B" stroke-width="42" d="M160 0v160m-160-80h320"/>
  </g>

  <path fill="#fff" d="M500.33 279.46l16.61-12.07h-20.53l-6.35-19.53-6.34 19.53h-20.54l16.61 12.07-6.34 19.53 16.61-12.07 16.62 12.07"/>
  <path fill="#CC142B" d="M497.19 278.44l11.54-8.38h-14.26l-4.41-13.56-4.4 13.56H471.4l11.53 8.38-4.4 13.56 11.53-8.38L501.6 292"/>
  <path fill="#fff" d="M561.67 141.89l13.32-9.67h-16.46l-5.09-15.66-5.09 15.66h-16.46l13.32 9.67-5.09 15.66 13.32-9.68 13.32 9.68"/>
  <path fill="#CC142B" d="M558.53 140.87l8.24-5.98h-10.18l-3.15-9.69-3.15 9.69h-10.18l8.24 5.98-3.15 9.69 8.24-5.99 8.24 5.99"/>
  <path fill="#fff" d="M425.31 161.66l14.97-10.88h-18.5l-5.72-17.59-5.71 17.59h-18.5l14.96 10.88-5.71 17.59 14.96-10.88 14.97 10.88"/>
  <path fill="#CC142B" d="M432.06 153.45h-12.22l-3.78-11.62-3.77 11.62h-12.23l9.89 7.19-3.78 11.62 9.89-7.18 9.89 7.18-3.78-11.62"/>
  <path fill="#fff" d="M499.31 87.13l14.97-10.87h-18.5l-5.72-17.59-5.71 17.59h-18.5l14.96 10.87-5.71 17.59 14.96-10.87 14.97 10.87"/>
  <path fill="#CC142B" d="M506.06 78.93h-12.22l-3.78-11.63-3.77 11.63h-12.23l9.89 7.18-3.78 11.63 9.89-7.19 9.89 7.19-3.78-11.63"/>
</svg>