<svg xmlns="http://www.w3.org/2000/svg" viewBox="0 0 640 480"><path fill="red" d="M0 0h640v480H0z"/><path fill="#060" d="M0 0h256v480H0z"/><path fill="#bfbb11" d="M339.5 279.5c-32.2-1-180-93.2-181-107.9l8.2-13.6c14.7 21.3 165.7 111 180.6 107.8l-7.8 13.7"/><path fill="#bfbb11" d="M256.2 180.5c32.3-.3 72.1-4.4 95-13.5l-4.9-8c-13.5 7.5-53.6 12.4-90.3 13.2-43.5-.4-74.1-4.4-89.5-14.8l-4.7 8.5c28.2 11.9 57.2 14.5 94.4 14.6m-105.9 38.9c19.8 10.7 63.9 16 105.6 16.4 38 .1 87.4-5.9 105.9-15.7l-.5-10.7c-5.8 9-58.8 17.7-105.8 17.4s-90.7-7.6-105.3-17l.1 9.6m105.5 58.3c-45.6-.3-84.7-12.4-93-14.4l6 9.4c14.6 6.1 52.7 15.3 87.4 14.3s65-3.7 86.3-14.1l6.2-9.8c-14.5 6.8-64.1 14.5-92.9 14.6"/><path fill="#bfbb11" d="M255.6 108.2c-58.1 0-105.5 47.3-105.5 105.3s47.4 105.3 105.5 105.3 105.9-47.3 105.9-105.3-47.8-105.3-105.9-105.3zm-.2 200.3a95.4 95.4 0 1195.4-95.4 95.38 95.38 0 01-95.4 95.4z"/><path fill="#bfbb11" d="M255.9 107.8a105.6 105.6 0 11-105.6 105.6 105.76 105.76 0 01105.6-105.6zM152.6 213.4c0 56.8 46.7 103.3 103.3 103.3s103.3-46.5 103.3-103.3-46.7-103.3-103.3-103.3-103.3 46.5-103.3 103.3z"/><path fill="#bfbb11" d="M256 116.6c53 0 96.7 43.5 96.7 96.8S309 310.2 256 310.2s-96.7-43.5-96.7-96.8 43.6-96.8 96.7-96.8zm-94.4 96.7c0 51.9 42.6 94.4 94.4 94.4s94.4-42.5 94.4-94.4-42.6-94.4-94.4-94.4-94.4 42.5-94.4 94.4z"/><path fill="#bfbb11" d="M260.2 107.4h-9.1v212.2h9.1z"/><path fill="#bfbb11" d="M361.6 217.5v-7.8l-6.4-6-36.3-9.6-52.3-5.3-62.9 3.2-44.8 10.7-9 6.7v7.8l22.9-10.3 54.4-8.5h52.3l38.4 4.3 26.7 6.4 17 8.4zm-106.2-75.7c39.3-.2 73.6 5.5 89.3 13.5l5.7 9.9c-13.6-7.3-50.6-15-94.9-13.8-36.1.2-74.7 4-94.1 14.3l6.8-11.4c16-8.2 53.4-12.4 87.2-12.5m53 115.5c-19.4-3.6-38.9-4.2-52.5-4-65.5.8-86.7 13.4-89.2 17.3l-4.9-8c16.7-12.1 52.3-18.9 94.5-18.2 21.9.4 40.8 1.8 56.7 4.9l-4.6 8"/><path fill="#bfbb11" d="M349.4 263.9l-7.9 12.2-22.6-20.1-58.7-39.5-66.1-36.3-34.3-11.7 7.3-13.6 2.5-1.4 21.3 5.3 70.4 36.3 40.5 25.6 34.1 24.5 13.9 16-.4 2.7z"/><path fill="#fff" stroke="#000" stroke-width=".67" d="M192.6 225.1a63.86 63.86 0 0063.2 63.3 63.33 63.33 0 0063.4-63.2h0v-84.5l-126.7-.2.1 84.6z"/><path fill="red" d="M195 225.2a60.95 60.95 0 0060.8 60.5 60.88 60.88 0 0042.9-17.7 60.08 60.08 0 0017.8-42.7v-81.9H195.1l-.1 81.8m97.1-57.3v57.7a32.91 32.91 0 01-.3 4.5 35.68 35.68 0 01-10.4 21 36.39 36.39 0 01-25.6 10.6 36.72 36.72 0 01-36.1-36.3v-57.6l72.4.1z"/><path fill="#bfbb11" d="M198.2 165.9h18.1a.71.71 0 00.7-.8.77.77 0 00-.7-.8h-.2l-.8-6.5h.3c.3 0 .6-.4.6-.8a.78.78 0 00-.3-.7h.1a.77.77 0 00.7-.8.71.71 0 00-.7-.8h-.9l-.1-3.7h-4.2l-.1 3.7h-1.1l-.3-6.9h-4l-.3 6.9h-1.2l-.1-3.7h-4.2l-.1 3.7h-.8c-.3 0-.6.4-.6.8a.71.71 0 00.7.8.78.78 0 00-.3.7c0 .5.3.8.6.8h.3l-.7 6.5h-.4a.86.86 0 00-.7.8.77.77 0 00.7.8zm6.8-18.3h4.6a.65.65 0 00.6-.6v-2.1h-1.3v.9h-1v-.9h-1.3v.9h-1v-.9h-1.3l.1 2.1a.65.65 0 00.6.6z"/><path fill="#bfbb11" d="M199.2 150.8h4.6a.65.65 0 00.6-.6v-2.1h-1.3v1h-.9v-.9h-1.3v1h-.9v-.9h-1.3l-.1 1.9a.65.65 0 00.6.6zm10.8-2.5l-.1 1.9a.65.65 0 00.6.6h4.6a.65.65 0 00.6-.6v-2.1h-1.3v1h-.9v-.9h-1.3v1h-.9v-.9zm7 66.2a.77.77 0 00-.7-.8h-.2l-.8-6.5h.3c.3 0 .6-.4.6-.8a.78.78 0 00-.3-.7h.1a.77.77 0 00.7-.8.71.71 0 00-.7-.8h-.9l-.1-3.7h-4.2l-.1 3.7h-1.1l-.3-6.9h-4l-.3 6.9h-1.2l-.1-3.7h-4.2l-.1 3.7h-.8c-.3 0-.6.4-.6.8a.71.71 0 00.7.8.78.78 0 00-.3.7c0 .5.3.8.6.8h.3l-.7 6.5h-.4a.86.86 0 00-.7.8.77.77 0 00.7.8h18.1a.71.71 0 00.7-.8zM205 197h4.6a.65.65 0 00.6-.6v-2.1h-1.3v.9h-1v-.9h-1.3v.9h-1v-.9h-1.3l.1 2.1a.65.65 0 00.6.6z"/><path fill="#bfbb11" d="M198.7 197.7l-.1 1.9a.65.65 0 00.6.6h4.6a.65.65 0 00.6-.6v-2.1h-1.3v1h-.9v-.9h-1.3v1h-.9v-.9zm11.8 2.5h4.6a.65.65 0 00.6-.6v-2.1h-1.3v1h-.9v-.9h-1.3v1h-.9v-.9H210l-.1 1.9a.65.65 0 00.6.6zm20.8 55.6l-3.3 3.3 3.1-3.1-5.2-4.1.3-.3a.79.79 0 00-1.1-1.1l.2-.2a.77.77 0 00-.1-1 .68.68 0 00-1-.1l-8.5 8.6-2.7-2.5.2-.2a.61.61 0 000-.8l-1.5-1.5-.9.9.7.7-.7.7-.7-.7-.9.9.7.7-.7.7-.7-.7-.9.9 1.6 1.5a.61.61 0 00.8 0l.1-.2 2.5 2.6-.6.6a.77.77 0 00.1 1 .68.68 0 001 .1l7.3-7.4-7 7.1a.68.68 0 00.1 1 .78.78 0 001 .1l.1-.1 4.2 5.1-.2.2c-.3.2-.2.7.1 1.1a.79.79 0 001.1.1l12.7-12.8a.79.79 0 00-.1-1.1.9.9 0 00-1.1 0z"/><path fill="#bfbb11" d="M219.7 253.7l-5.1-4.6-2.8 2.7 4.7 5.1zm-3.3-5.7l-.9.9 1.6 1.5a.61.61 0 00.8 0l.1-.2 2.5 2.7 3.1-3.1-2.7-2.5.2-.2a.61.61 0 000-.8l-1.5-1.5-.9.9.7.7-.7.7-.7-.7-.9.9.7.7-.7.7-.7-.7zm-6.4 1.7l-.9.9 1.5 1.4a.52.52 0 00.8 0l3.3-3.3a.61.61 0 000-.8l-1.5-1.5-.9 1 .7.7-.7.7-.7-.7-.9.9.7.7-.7.7-.7-.7zm55.1-85.4h-.3l-.8-6.5h.3c.3 0 .6-.4.6-.8a.78.78 0 00-.3-.7h.1a.77.77 0 00.7-.8.71.71 0 00-.7-.8h-.8l-.2-3.7h-4.1l-.1 3.7h-1.2l-.3-6.9h-4l-.3 6.9h-1.1l-.2-3.7h-4.1l-.1 3.7h-.8a.77.77 0 00-.7.8.71.71 0 00.7.8.78.78 0 00-.3.7c0 .5.3.8.6.8h.3l-.7 6.5h-.3a.81.81 0 000 1.6h18.1a.71.71 0 00.7-.8.77.77 0 00-.7-.8zm-11.4-16.7h4.7a.65.65 0 00.6-.6v-2.1h-1.3v.9h-1v-.9h-1.3v.9h-1v-.9h-1.3v2.1a.65.65 0 00.6.6z"/><path fill="#bfbb11" d="M248 150.8h4.6a.65.65 0 00.6-.6v-2.1h-1.3v1h-.9v-.9h-1.3v1h-.9v-.9h-1.3l-.1 1.9a.65.65 0 00.6.6zm10.8-2.5l-.1 1.9a.65.65 0 00.6.6h4.6a.65.65 0 00.6-.6v-2.1h-1.3v1h-.9v-.9H261v1h-.9v-.9zm36.6 17.6h18.1a.81.81 0 000-1.6h-.3l-.7-6.5h.3c.3 0 .6-.3.6-.8a.78.78 0 00-.3-.7h.1a.71.71 0 00.7-.8c-.1-.4-.4-.8-.7-.8h-.8l-.2-3.7h-4.1l-.1 3.7h-1.2l-.3-6.9h-4l-.3 6.9h-1.1l-.2-3.7h-4.1l-.1 3.7h-.8a.71.71 0 00-.7.8.86.86 0 01.4 1.5c0 .4.3.8.6.8h.3l-.8 6.5h-.3a.77.77 0 00-.7.8.71.71 0 00.7.8zm6.7-18.3h4.7a.65.65 0 00.6-.6v-2.1h-1.3v.9h-1v-.9h-1.3v.9h-1v-.9h-1.3v2.1a.65.65 0 00.6.6z"/><path fill="#bfbb11" d="M307.4 148.1v2.1a.65.65 0 00.6.6h4.6a.65.65 0 00.6-.6l-.1-1.9h-1.3v.9h-.9v-1h-1.3v.9h-.9v-1zm-10.8 2.7h4.6a.65.65 0 00.6-.6l-.1-1.9h-1.3v.9h-.9v-1h-1.3v.9h-.9v-1H296v2.1a.65.65 0 00.6.6zm16.9 62.9h-.3l-.7-6.5h.3c.3 0 .6-.3.6-.8a1.14 1.14 0 00-.3-.7h.1a.71.71 0 00.7-.8c-.1-.4-.4-.8-.7-.8h-.8l-.2-3.7h-4.1l-.1 3.7h-1.2l-.3-6.9h-4l-.3 6.9h-1.1l-.2-3.7h-4.1l-.1 3.7h-.8a.71.71 0 00-.7.8.86.86 0 01.4 1.5c0 .4.3.8.6.8h.3l-.8 6.5h-.3a.77.77 0 00-.7.8.71.71 0 00.7.8h18.1a.81.81 0 000-1.6zm-6.7-16.7a.65.65 0 00.6-.6v-2.1h-1.3v.9h-1v-.9h-1.3v.9h-1v-.9h-1.3v2.1a.65.65 0 00.6.6z"/><path fill="#bfbb11" d="M308 200.2h4.6a.65.65 0 00.6-.6l-.1-1.9h-1.3v.9h-.9v-1h-1.3v.9h-.9v-1h-1.3v2.1a.65.65 0 00.6.6zm-12-2.7v2.1a.65.65 0 00.6.6h4.6a.65.65 0 00.6-.6l-.1-1.9h-1.3v.9h-.9v-1h-1.3v.9h-.9v-1zm2.5 48.9l-1.5 1.5a.61.61 0 000 .8l3.3 3.3a.52.52 0 00.8 0l1.5-1.4-.9-.9-.7.7-.7-.7.7-.7-.9-.9-.7.7-.7-.7.7-.7-.9-1zm-3.2 10.6l4.7-5.1-2.9-2.8-5.1 4.6z"/><path fill="#bfbb11" d="M298.8 255.3l-2.7 2.5 2.9 3-11.5-11.6a.68.68 0 00-1 .1.77.77 0 00-.1 1l.1.1a.83.83 0 00-.8.2.77.77 0 00-.1 1l.3.3-5.2 4.1 3 3-3.2-3.2a.86.86 0 00-1.2 1.2l12.7 12.8a.79.79 0 001.1-.1c.3-.4.4-.9.1-1.1l-.2-.2 4.2-5.1.1.1a.8.8 0 001.2-.9l.1.1a.68.68 0 001-.1.61.61 0 00.1-1l-.5-.5 2.5-2.7-2.9-3z"/><path fill="#bfbb11" d="M288.1 249.8l3.1 3.1 2.6-2.7.1.2a.61.61 0 00.8 0l1.5-1.5-.9-.9-.7.7-.6-.7.7-.7-.9-.9-.7.7-.7-.7.7-.7-.9-.9-1.5 1.5a.61.61 0 000 .8l1.6 1.6-1.5-1.5-2.7 2.6zm14.5 6.9l-.6-.7.7-.7-.9-.9-.7.7-.7-.7.7-.7-.9-.9-1.5 1.5a.61.61 0 000 .8l3.2 3.3a.61.61 0 00.8 0l1.5-1.5-.9-.9-.7.7z"/><path fill="#039" d="M248.1 215.9a8.79 8.79 0 002.4 6.1 7.72 7.72 0 005.7 2.5 8.11 8.11 0 005.7-2.5 9.19 9.19 0 002.3-6.1v-11.5h-16l-.1 11.5M248.1 188.1a8.79 8.79 0 002.4 6.1 7.72 7.72 0 005.7 2.5 8.11 8.11 0 005.7-2.5 9.19 9.19 0 002.3-6.1v-11.5h-16l-.1 11.5M226 215.9a8.79 8.79 0 002.4 6.1 7.72 7.72 0 005.7 2.5 8.11 8.11 0 005.7-2.5 9.19 9.19 0 002.3-6.1v-11.5h-16l-.1 11.5M270.3 215.9a8.79 8.79 0 002.4 6.1 7.72 7.72 0 005.7 2.5 8.11 8.11 0 005.7-2.5 9.19 9.19 0 002.3-6.1v-11.5h-16l-.1 11.5M248.1 243.4a8.79 8.79 0 002.4 6.1 7.72 7.72 0 005.7 2.5 8.11 8.11 0 005.7-2.5 9.19 9.19 0 002.3-6.1v-11.5h-16l-.1 11.5"/></svg>
