<svg xmlns="http://www.w3.org/2000/svg" width="640" height="480" viewBox="0 0 640 480"><style>.sa0{fill:#199D00;} .sa1{fill:#FFFFFF;} .sa2{fill:#1BA400;} .sa3{fill:#1B9D00;} .sa4{fill:#259F00;} .sa5{fill:#209000;}</style><path d="M-.001 0h639.999v479.997H-.001V0z" class="sa0"/><path d="M141.443 136.062c-.828 11.214-1.827 30.951 7.704 32.976 11.529 1.107 5.166-19.503 9.342-23.247.792-1.845 2.241-1.854 2.358.477v17.487c-.108 5.688 3.636 7.362 6.534 8.532 3.024-.234 5.04-.135 6.228 2.808l1.413 30.249s7.011 2.007 7.344-17.01c.333-11.169-2.232-20.511-.729-22.689.054-2.133 2.781-2.259 4.671-1.224 3.015 2.124 4.356 4.752 9.036 3.699 7.119-1.962 11.403-5.427 11.511-10.899-.414-5.202-.999-10.395-3.249-15.597.315-.945-1.377-3.393-1.062-4.338 1.278 2.007 3.231 1.836 3.672 0-1.215-3.996-3.096-7.821-6.147-9.477-2.52-2.223-6.21-1.764-7.56 2.862-.621 5.337 1.926 11.673 5.814 16.848.828 2.016 1.989 5.373 1.476 8.397-2.07 1.179-4.131.684-5.868-1.143 0 0-5.67-4.248-5.67-5.193 1.503-9.63.333-10.728-.504-13.401-.585-3.69-2.331-4.878-3.753-7.398-1.422-1.503-3.339-1.503-4.257 0-2.511 4.347-1.341 13.671.468 17.847 1.305 3.843 3.303 6.255 2.358 6.255-.774 2.169-2.385 1.674-3.555-.837-1.674-5.184-2.007-12.906-2.007-16.389-.504-4.311-1.053-13.518-3.888-15.858-1.728-2.358-4.302-1.206-5.193.945-.189 4.284-.207 8.568.279 12.51 1.944 6.921 2.556 13.005 3.501 20.097.261 9.495-5.49 4.122-5.229-.585 1.323-6.111.981-15.741-.198-18.18-.936-2.439-2.034-3.042-4.311-2.637-1.809-.108-6.444 4.959-7.749 13.374 0 0-1.116 4.329-1.584 8.172-.639 4.347-3.501 7.407-5.499-.612-1.728-5.832-2.799-20.187-5.697-16.821z" class="sa1"/><path d="M172.763 182.07c-10.17 4.968-20.007 9.612-30.006 14.418.369-6.804 14.265-19.08 23.751-19.251 6.156.171 4.608 2.385 6.255 4.833z" class="sa1"/><path d="M167.516 191.475c-15.813 40.77 37.035 46.449 42.939 1.674.558-1.836 2.781-3.672 3.177-.666-1.224 40.545-40.878 43.335-47.619 30.573-1.674-3.006-2.169-9.693-2.34-13.698-.999-7.965-5.175-4.896-5.85 3.006-.666 4.401-.504 5.625-.504 9.855 2.115 32.022 53.19 18.27 61.488-8.19 4.401-14.652-.729-25.452 1.674-25.398 5.067 5.454 12.141.72 13.698-1.17.666-.945 2.34-1.557 3.51-.333 3.951 2.844 10.917 1.503 12.366-3.51.837-4.905 1.503-9.972 1.674-15.201-3.231.999-5.625 1.674-5.85 3.006l-.666 4.347c-.279 1.395-3.069 1.449-3.177-.333-1.224-5.571-6.291-6.291-9.36 2.34-2.061 1.674-5.796 2.007-6.183-.504.504-5.796-1.836-6.57-6.516-3.843-1.503-11.475-3.006-22.446-4.509-33.921 1.953-.054 3.735 1.395 5.517-.837-1.953-6.066-6.075-18.486-8.361-19.386-1.116-1.332-2.061-.504-3.51-.171-2.448.783-4.734 2.898-4.014 7.02 2.898 17.595 4.788 31.023 7.686 48.618.441 2.061-1.278 4.788-3.51 4.509-3.789-2.565-4.734-7.74-11.196-7.515-4.68.054-10.026 5.121-10.692 10.026-.783 3.897-1.062 8.127 0 11.529 3.285 3.951 7.245 3.564 10.692 2.673 2.844-1.17 5.175-4.014 6.183-3.339.666.837.162 10.188-13.365 17.379-8.19 3.672-14.706 4.509-18.207-2.169-2.169-4.176.171-20.052-5.175-16.371z" class="sa1"/><path d="M234.602 150.03c3.177-1.17 18.216-18.378 18.216-18.378-.783-.666-1.476-1.17-2.259-1.836-.837-.72-.756-1.449 0-2.169 3.735-2.169 2.538-6.93.585-9.108-3.231-1.449-6.039-.972-8.109.081-2.619 2.511-3.231 6.516-1.17 9.027 2.007.945 4.014 2.979 2.673 4.095-6.156 6.57-23.004 17.91-21.051 18.297.423.549 10.782.522 11.115-.009zm-90.819 60.912c-5.643 8.982-6.129 22.41-3.015 26.415 1.656 1.89 4.374 2.718 6.381 2.124 3.546-1.539 5.094-8.721 4.257-11.34-1.179-1.854-2.115-2.142-3.294-.567-2.493 5.058-3.528 1.593-3.744-1.242-.378-5.364.126-10.305.702-14.22.612-4.023-.018-2.79-1.287-1.17zm241.011-14.391c-5.454-11.736-13.005-23.337-15.408-27.792-2.403-4.455-20.538-30.771-23.202-33.732-5.895-7.002 9.567 2.916-1.953-10.98-4.392-3.771-4.644-3.996-8.298-7.074-1.836-1.305-6.327-3.69-7.128.261-.396 3.483-.189 5.373.396 8.271.45 1.935 3.267 5.175 4.653 7.047 18.396 24.732 34.713 49.707 50.445 81.108 2.493-1.188 1.953-15.147.495-17.109z" class="sa1"/><path d="M360.863 235.818c-1.071 1.206 2.646 6.354 7.479 6.345 8.082-.936 15.201-5.481 21.789-17.433 1.764-2.79 4.86-8.748 4.95-13.374.621-27.117-1.359-48.222-5.418-67.815-.261-1.908-.099-4.149.225-4.725.522-.621 2.295 0 3.24-1.539 1.386-1.413-3.672-13.095-6.552-17.595-1.026-2.007-1.377-3.357-3.069.234-1.782 2.916-2.979 8.001-2.835 12.762 3.861 26.703 5.04 50.058 7.56 76.761.207 2.583-.171 6.336-1.89 7.83-6.345 6.624-15.516 14.787-25.479 18.549zm109.206-.144c-5.805 3.357-5.805 7.209-1.116 7.353 8.082-.936 17.64-1.611 24.228-11.556 1.764-2.79 3.861-10.323 3.951-14.949.612-27.117-.351-47.358-4.419-66.96-.261-1.908-1.107-6.3-.783-6.876.522-1.341 3.159.144 4.104-1.395 1.377-1.413-6.822-11.952-9.702-16.452-1.026-2.007-1.377-3.348-3.069.234-1.782 2.916-2.403 8.145-1.692 12.762 4.284 28.998 7.479 50.778 8.136 76.473-.369 2.439-.459 3.753-1.602 6.831-2.529 3.24-5.337 7.299-7.965 9.261-2.628 1.953-8.244 3.825-10.071 5.274z" class="sa1"/><path d="M474.425 209.682c-.063-6.777.099-12.636-.126-17.694s-1.116-9.18-2.871-12.762c-1.656-3.852-.63-6.939-1.404-11.043-.774-4.095-.585-10.242-1.764-15.102-.324-1.899-1.305-7.983-.999-8.568.477-1.359 2.304.045 3.195-1.53 1.332-1.458-4.626-16.884-7.65-21.285-1.089-1.971-3.06-1.296-5.499 1.908-2.259 2.115-1.422 6.93-.558 11.52 5.805 30.276 10.125 57.672 9.18 86.49-.297 2.448 8.55-7.308 8.496-11.934zm-42.867-37.548c-3.645-.063-11.295-7.101-13.518-11.223-.846-2.367-.306-4.671.441-6.021 1.35-.882 3.429-1.863 4.986-.918 0 0 1.611 2.25 1.296 2.538 1.989.954 2.835.405 3.042-.405.135-1.422-.585-2.268-.594-3.825.846-4.239 5.688-4.896 7.515-2.196 1.332 1.647 1.827 5.148 2.025 7.515-.018 1.206-1.98-.207-3.087.081-1.116.288-1.377 1.575-1.467 2.736-.207 3.069-.567 8.001-.639 11.718zm-67.338 45.063c1.008-9.216-.369-25.623-.459-31.059-.369-12.843-2.466-37.656-3.465-41.796-1.125-7.812 3.213.855 2.61-3.681-1.404-7.803-5.733-13.086-10.818-20.232-1.638-2.322-1.584-2.799-4.113.567-2.799 6.354-.387 10.728.342 15.678 3.672 16.128 5.805 30.969 6.804 45.648s1.305 30.537.396 45.99c2.736.108 7.155-4.455 8.703-11.115z" class="sa1"/><path d="M486.845 202.446c-6.435-10.791-16.146-22.491-18.738-26.838-2.592-4.347-24.534-32.652-27.324-35.496-8.028-8.433 3.681-1.377-1.539-7.884-4.41-4.842-5.697-6.363-9.477-9.279-1.89-1.224-3.042-3.564-3.663.423-.252 3.501-.504 7.551-.27 10.494-.009 1.638 1.692 4.716 3.159 6.534 19.458 23.904 40.68 48.312 57.762 79.002 2.439-1.287 1.629-15.057.09-16.956z" class="sa1"/><path d="M194.93 182.52c-.459.81-1.494 1.863-1.152 2.952.72.981 1.296 1.179 2.502 1.233 1.044 0 2.502.243 2.817-.369.558-.621.99-1.881.522-3.078-1.089-2.718-4.122-1.701-4.689-.738z" class="sa2"/><path d="M412.028 339.885c8.604.315 14.238.396 21.888 1.305 0 0 6.597-.648 8.955-1.008 9.963-.954 10.404 14.229 10.404 14.229-.108 8.901-3.546 9.369-7.929 10.305-2.502.315-3.825-1.503-5.139-3.438-1.656.693-3.897.792-6.624.414-3.582-.225-7.173-.207-10.755-.432-3.807-.333-5.832.396-9.648.063-.783 1.233-1.809 2.943-4.131 2.394-1.935-.216-4.239-5.652-3.555-9.792 1.404-2.97 1.017-2.016.873-3.312-35.181-.9-70.695-2.466-105.21-2.016-27 .108-53.667 1.233-80.334 2.349-14.229-.225-25.092-2.466-32.598-13.446.675 0 36.297 2.016 46.719 1.341 19.269-.225 36.864-1.791 56.466-2.349 38.655.675 76.968.675 115.623 3.357-3.699-2.529-3.834-8.505 1.863-9.963.486-.333.729 2.97 1.584 2.907 4.545-.351 2.547 5.814 1.548 7.092zM256.85 126.828c-5.859 16.74 3.357 35.055 9.747 33.273 4.608 1.908 7.542-6.858 9.432-16.461 1.287-2.7 2.268-2.979 2.925-1.593-.171 12.771.918 15.606 4.203 19.476 7.326 5.652 13.383.72 13.86.243l5.706-5.706c1.269-1.332 2.961-1.413 4.752-.234 1.746 1.584 1.494 4.32 5.229 6.219 3.141 1.26 9.855.288 11.412-2.412 2.088-3.591 2.592-4.815 3.564-6.183 1.494-1.989 4.041-1.107 4.041-.477-.234 1.107-1.728 2.223-.711 4.212 1.773 1.332 2.187.477 3.24.18 3.717-1.773 6.507-9.864 6.507-9.864.162-3.006-1.521-2.763-2.61-2.142-1.422.873-1.521 1.152-2.943 2.025-1.818.27-5.346 1.476-7.083-1.224-1.782-3.249-1.8-7.776-3.168-11.043 0-.234-2.358-5.157-.162-5.472 1.107.207 3.474.837 3.852-1.161 1.161-1.944-2.493-7.443-4.986-10.224-2.169-2.385-5.175-2.673-8.082-.234-2.034 1.872-1.737 3.96-2.142 5.94-.513 2.277-.405 5.076 1.899 8.082 2.025 3.996 5.733 9.153 4.518 16.398 0 0-2.16 3.429-5.931 2.979-1.575-.342-4.113-1.008-5.481-11.061-1.026-7.605.243-18.243-2.988-23.238-1.17-3.015-2.016-5.922-4.86-.765-.765 2.025-4.041 5.094-1.665 11.412 1.944 4.005 2.736 10.521 1.854 17.766-1.35 2.061-1.647 2.754-3.411 4.815-2.484 2.664-5.175 1.989-7.236.99-1.926-1.296-3.438-1.971-4.311-6.093.162-6.579.522-17.334-.675-19.62-1.773-3.537-4.689-2.259-5.94-1.188-5.994 5.481-8.964 14.733-10.773 22.104-1.665 5.373-3.429 3.834-4.68 1.665-3.042-2.835-3.249-25.038-6.903-21.384z" class="sa1"/><path d="M274.481 163.215c2.664-1.881 1.413-3.204 5.391.774 4.977 8.514 8.181 19.539 8.658 29.313-.207 2.403 1.485 3.933 2.259 3.411.459-5.652 14.202-13.527 26.811-14.679 1.926-.423.99-4.113 1.305-5.994-.756-6.993 3.933-13.365 10.503-13.878 8.946 1.323 11.916 6.093 12.069 13.383-.963 13.986-15.543 16.362-23.724 17.478-1.26.477-1.782 1.053 0 1.737l34.308.153 1.746 1.008c.207.819-.504.135-1.854 2.367s-3.348 7.371-3.456 10.809c-10.224 3.285-20.79 4.725-31.536 6.03-3.735 1.89-5.58 4.401-4.815 7.236 1.26 3.141 9.522 6.273 9.522 6.426 1.566.981 3.429 3.285-.441 7.992-16.731-.738-29.7-7.857-34.191-17.91-1.35-1.053-2.808-.009-3.744 1.35-6.534 8.424-12.96 16.011-24.102 20.034-6.642 1.656-13.446-1.017-16.659-5.373-2.151-2.475-2.07-5.211-2.862-5.805-3.591 1.584-34.488 14.715-30.573 8.604 7.515-8.046 20.538-13.959 32.031-21.906.828-2.664 2.34-11.664 6.876-14.598.261.018-.72 5.292-.621 7.506.054 1.827-.135 2.538.261 2.07.774-.495 14.724-11.457 15.804-14.814 1.359-1.926.405-6.813.405-6.957-2.619-6.741-6.282-7.317-7.65-10.665-1.224-4.446-.666-9.531 1.872-10.944 2.259-2.052 4.932-1.8 7.398.441 2.817 2.52 5.319 7.452 6.048 11.133-.486 1.449-3.69-.963-4.797-.243 1.971 2.034 2.889 4.383 3.591 7.263 1.818 7.695 1.26 10.683-.567 15.66-6.192 13.023-14.112 16.911-21.033 21.735-.189.063-.306 3.303 2.295 5.058.9.945 4.509 1.431 8.757.063 8.208-4.473 16.731-12.717 20.961-21.906 1.224-6.948-.477-14.319-2.286-20.745-2.718-6.282-5.931-15.246-5.931-15.39-.063-3.915.261-5.274 1.971-7.227zm-89.82-36.216c3.951 1.881 11.376 1.08 11.061-5.283 0-.558-.144-2.466-.198-2.988-.81-1.881-3.006-1.413-3.501.522-.153.639.279 1.665-.297 1.989-.333.333-1.593.135-1.539-1.62 0-.558-.414-1.161-.666-1.521-.252-.162-.405-.207-.864-.207-.549.018-.54.162-.846.63-.126.468-.306.927-.306 1.467-.072.63-.306.846-.765.945-.513 0-.396.054-.819-.207-.252-.27-.558-.378-.558-.837 0-.477-.108-1.251-.252-1.566-.216-.288-.567-.423-.963-.522-2.16.009-2.304 2.466-2.178 3.402-.162.171-.252 4.581 2.691 5.796z" class="sa1"/><path d="M300.41 175.995c3.951 1.881 13.347.801 11.061-5.283 0-.567-.144-2.466-.198-2.988-.81-1.881-3.006-1.413-3.501.522-.153.639.279 1.665-.297 1.989-.333.333-1.593.135-1.539-1.62 0-.558-.414-1.161-.666-1.521-.252-.162-.405-.207-.864-.207-.549.018-.54.162-.846.63-.126.468-.306.927-.306 1.467-.072.63-.306.846-.765.945-.513 0-.396.054-.819-.207-.243-.27-.558-.378-.558-.837 0-.477-.108-1.251-.252-1.566-.216-.288-.567-.423-.963-.522-2.16.009-2.304 2.466-2.178 3.402-.153.162-.243 4.581 2.691 5.796zm67.5-20.277c3.951 1.881 11.376 1.08 11.061-5.283 0-.558-.144-2.466-.198-2.988-.81-1.881-3.006-1.413-3.501.522-.153.639.279 1.665-.297 1.989-.333.333-1.593.135-1.539-1.62 0-.558-.414-1.161-.666-1.521-.252-.162-.405-.207-.864-.207-.549.018-.54.162-.846.63-.126.468-.306.927-.306 1.467-.072.63-.306.846-.765.945-.513 0-.396.054-.819-.207-.252-.27-.558-.378-.558-.837 0-.477-.108-1.251-.252-1.566-.216-.288-.567-.423-.963-.522-2.16.009-2.304 2.466-2.178 3.402-.153.162-.243 4.572 2.691 5.796zm34.965 50.931c-6.885 7.758-3.843 20.583-2.295 23.346 2.268 4.536 4.095 7.452 8.514 9.693 4.023 2.961 7.155 1.107 8.883-.963 4.05-4.194 4.095-14.904 5.994-17.019 1.332-3.897 4.689-3.231 6.318-1.503 1.575 2.268 3.438 3.735 5.76 4.968 3.771 3.33 8.28 3.942 12.726.9 3.033-1.701 5.004-3.906 6.786-8.271 1.971-5.274.873-29.673.477-44.127-.153-1.134-3.924-19.881-3.924-20.088 0-.207-.495-9.567-.909-11.799-.072-.909-.297-1.161.648-1.053 1.008.846 1.143.9 1.773 1.179 1.017.189 1.926-1.539 1.314-3.132l-9.423-17.379c-.756-.747-1.728-1.566-2.934.207-1.143 1.008-2.367 2.826-2.331 5.157.279 4.113.999 8.307 1.278 12.429l3.771 21.141c1.188 15.075 1.485 27.405 2.673 42.48-.162 6.381-2.151 11.943-4.014 12.744 0 0-2.835 1.638-4.734-.171-1.377-.558-6.903-9.207-6.903-9.207-2.826-2.592-4.689-1.854-6.696 0-5.544 5.355-8.055 15.372-11.817 22.275-.972 1.539-3.717 2.862-6.759-.108-7.749-10.539-3.213-25.56-4.176-21.699zm-33.192-87.894c3.537 1.485 6.03 8.649 5.22 12.141-.702 4.329-2.583 9-3.933 8.397-1.467-.54.999-4.302-.414-8.244-.783-2.565-5.607-7.254-5.103-8.64-.99-2.898 2.061-4.167 4.23-3.654z" class="sa1"/><path d="M414.26 210.897c.747-8.604-.513-13.851-.738-18.909-.225-5.058-5.724-43.65-6.831-47.475-1.341-7.236 5.346-.972 4.608-5.175-2.313-5.31-8.073-13.032-9.882-17.64-1.089-1.971-.63-3.735-3.069-.522-2.259 7.38-3.042 13.419-2.178 18.009 5.796 30.276 11.754 55.44 10.809 84.258 2.754.018 5.922-6.291 7.281-12.546zm60.444-79.947c3.222 1.602 5.112 10.584 4.761 13.149-.639 4.689-2.349 9.747-3.582 9.09-1.341-.585.27-6.948-.378-8.928-.711-2.781-5.112-7.857-4.653-9.351-.909-3.141 1.872-4.509 3.852-3.96zm-239.688 63.675c3.087 1.179 4.896 7.776 4.554 9.666-.612 3.438-2.25 7.164-3.429 6.678-1.278-.432.261-5.112-.36-6.561-.261-3.528-4.545-5.346-4.455-6.876-.792-2.799 1.791-3.312 3.69-2.907z" class="sa1"/><path d="M309.554 204.534c3.978.252 5.976 3.375 2.241 4.689-3.681 1.26-7.218 2.241-7.227 7.56 1.359 7.407-1.863 4.869-3.789 3.861-2.268-1.629-8.631-5.553-9.54-14.013-.135-2.016 1.44-3.717 3.978-3.708 3.816 1.035 9.45 1.107 14.337 1.611z" class="sa3"/><path d="M152.558 116.613c4.554 1.368 4.824 8.064 4.482 10.017-.603 3.573-2.223 7.425-3.375 6.921-1.26-.45-.054-5.292-.657-6.804-.675-2.115-4.518-5.985-4.086-7.128-.846-2.376 1.773-3.429 3.636-3.006zm89.892 31.536c-3.492 1.89-4.851 7.515-2.673 10.8 2.034 2.889 5.238 1.818 5.661 1.818 3.42.432 5.454-6.417 5.454-6.417s.108-1.926-3.951 1.71c-1.71.324-1.926-.324-2.349-1.287-.36-1.782-.288-3.564.531-5.346.603-1.701-.711-2.448-2.673-1.278zm26.19-34.119c-1.755 1.179-5.247 4.797-5.355 8.964-.108 2.349-.54 2.349.999 3.843 1.116 1.602 2.232 1.458 4.482.288 1.287-.954 1.728-1.584 2.16-3.177.531-2.673-2.826 1.269-3.249-1.71-.747-2.763 1.413-3.888 3.438-6.561.063-1.836.027-3.132-2.475-1.647zm21.105 3.744c-.756 1.674-1.665 10.404-1.512 10.404-.603 2.601 2.718 3.717 4.23.369 2.268-6.129 2.268-8.73 2.421-11.331-.702-3.96-3.375-3.834-5.139.558zm133.047 67.707c.45-.45 18.747-13.455 18.747-13.455 1.863-.657 1.458 6.705.603 6.651.351 1.458-18.045 13.959-19.35 13.455-.909.657-1.809-5.031 0-6.651zm16.677-.108c3.222 1.602 4.509 11.034 4.149 13.599.117 4.986-3.105 8.991-4.338 8.334-1.341-.585.117-6.192-.522-8.172-.711-2.781-3.447-8.01-2.988-9.504-.9-3.132 1.728-4.806 3.699-4.257zm-108.81 40.626c1.269-1.863 5.202-4.536 5.292-4.536 1.809-.909 3.582.711 3.474.603.297 1.818-1.152 3.501-.693 5.922.396.972.684 2.061 2.475 1.647 2.907-2.286 5.598-2.43 8.505-2.574 2.223.135 2.313 3.906.909 3.933-5.364 1.161-7.767 2.601-11.601 4.059-1.818 1.062-3.375-.288-3.375-.432s-1.062-1.026-.324-3.429c.135-1.926-.648-2.988-2.25-2.763-1.206.657-2.277 1.089-2.88-.306-.234-1.035-.306-1.53.468-2.124zm128.061 5.085c.783.999 1.287 1.917-.063 3.564-1.287 1.179-2.187 1.827-3.474 2.997-.603 1.035-.99 2.601.864 3.096 3.42.963 11.331-4.167 11.331-4.275 1.287-.963.855-2.781.747-2.781-.747-.855-2.43-.351-3.564-.486-.54 0-2.313-.27-1.467-1.836.702-.972.954-1.575 1.431-2.772.531-1.179.072-1.962-1.854-2.601-1.962-.36-2.745-.18-4.914 0-1.179.252-1.575.774-1.791 2.196.081 2.169 1.404 2.043 2.754 2.898z" class="sa1"/><path d="M331.361 177.885c-.504.864-2.196.828-3.789-.09s-2.475-2.367-1.971-3.24c.504-.864 2.196-.828 3.789.099 1.584.918 2.466 2.367 1.971 3.231zm-83.511-50.247c-.954.234-2.196-.612-2.772-1.89-.585-1.278-.279-2.502.666-2.736.954-.234 2.196.612 2.772 1.89.585 1.278.288 2.502-.666 2.736z" class="sa4"/><path d="M413.036 351.531c8.766.432 17.001.099 25.767.531 1.584 1.35.45 4.662-.603 4.428-2.853-.072-4.491-.144-7.344-.216-.099-2.79-7.227-2.331-7.02.09-3.852.459-7.317-.135-11.169-.279-1.134-1.413-.99-3.969.369-4.554z" class="sa5"/></svg>