<svg xmlns="http://www.w3.org/2000/svg" width="640" height="480" viewBox="0 0 640 480">
  <style>
    .si0{fill:#DE2918;} .si1{fill:#08399C;} .si2{fill:#FFFFFF;} .si3{fill:#FFCC00;}
  </style>
  <path d="M0 320h640v160H0V320z" class="si0"/>
  <path d="M0 160h640v160H0V160z" class="si1"/>
  <path d="M0 0h640v160H0V0z" class="si2"/>
  <path d="M219.093 93.141c-3.213 55.8-5.049 86.382-12.555 100.53-8.109 15.192-16.002 26.325-47.655 39.717-31.653-13.401-39.546-24.525-47.664-39.726-7.506-14.148-9.342-44.721-12.555-100.521l4.68-1.782c9.414-3.249 16.443-5.868 21.636-7.029 7.443-1.782 13.77-3.798 33.768-4.275 20.007.387 26.361 2.529 33.804 4.32 5.157 1.242 12.483 3.69 21.825 7.011l4.716 1.755z" class="si0"/>
  <path d="M214.485 91.314c-3.042 55.683-5.58 81.18-9.549 93.447-7.695 20.988-19.872 32.499-46.089 43.479-26.217-10.989-38.394-22.5-46.089-43.488-3.969-12.258-6.471-37.692-9.423-93.501 9.216-3.258 16.443-5.805 21.645-6.966 7.443-1.782 13.77-3.888 33.768-4.275 20.007.387 26.406 2.493 33.849 4.275 5.193 1.161 12.573 3.708 21.879 7.029h.009z" class="si1"/>
  <path d="M158.82 108.36l1.26 3.366 5.526.855-3.582 2.448 3.465 2.619-5.031.954-1.53 3.051-1.719-3.141-4.788-.765 3.258-2.673-3.357-2.439 5.301-.918 1.197-3.357z" class="si3"/>
  <path d="M203.037 171.558l-3.06-2.745-2.214-4.122-4.329-4.257-2.259-4.302-4.338-4.392-2.124-4.302-2.304-2.106-1.521-1.656-3.915 3.888-2.133 4.221-2.655 2.727-2.925-2.583-2.205-4.401-8.199-16.488-8.199 16.488-2.205 4.401-2.916 2.583-2.655-2.727-2.133-4.221-3.915-3.888-1.521 1.656-2.304 2.106-2.124 4.302-4.338 4.392-2.259 4.302-4.338 4.257-2.214 4.122-3.051 2.808c1.584 15.282 10.188 27.261 14.877 32.733 5.229 5.751 16.011 13.446 29.205 18.54 13.221-4.986 24.156-12.789 29.394-18.54 4.68-5.472 13.284-17.442 14.877-32.796z" class="si2"/>
  <path d="M172.005 84.915l1.26 3.366 5.526.855-3.582 2.448 3.465 2.619-5.031.954-1.53 3.051-1.719-3.141-4.788-.765 3.258-2.673-3.357-2.439 5.301-.918 1.197-3.357zm-26.361-.045l1.26 3.366 5.526.855-3.582 2.448 3.465 2.619-5.031.954-1.53 3.051-1.719-3.141-4.788-.765 3.258-2.673-3.357-2.439 5.301-.918 1.197-3.357z" class="si3"/>
  <path d="M196.197 192.753l-5.967.018-5.508-.468-6.669-3.708-7.524.054-6.516 3.6-5.139.513-5.139-.513-6.516-3.6-7.524-.054-6.669 3.708-5.508.468-6.048-.09-2.916-5.598.108-.126 8.928 1.674 5.508-.459 6.669-3.708 7.533.036 6.516 3.6 5.139.513 5.139-.513 6.516-3.6 7.524-.054 6.669 3.708 5.508.459 8.694-1.728.117.261-2.925 5.607zm-69.111 8.604l5.913-.468 6.669-3.708 7.524.054 6.516 3.6 5.139.513 5.139-.513 6.516-3.6 7.524-.054 6.669 3.708 5.985.468 3.861-5.391-.126-.126-4.14 1.368-5.508-.459-6.669-3.708-7.524.054-6.516 3.6-5.139.513-5.139-.513-6.516-3.6-7.524-.054-6.669 3.708-5.508.468-4.059-1.161-.045.225 3.627 5.076z" class="si1"/>
</svg>
