<svg xmlns="http://www.w3.org/2000/svg" viewBox="0 0 640 480">
  <path fill="#ee1c25" d="M0 0h640v480H0z"/>
  <path fill="#0b4ea2" d="M0 0h640v320H0z"/>
  <path fill="#fff" d="M0 0h640v160H0z"/>
  <path fill="#fff" d="M233 371c-43-21-105-62-105-143s4-118 4-118h202s4 37 4 118-62 122-105 143z"/>
  <path fill="#ee1c25" d="M233 360c-39-19-96-57-96-131s4-109 4-109h184s4 34 4 109-57 112-96 131z"/>
  <path fill="#fff" d="M241 209c11 0 32 1 50-6v28c-17-6-38-6-50-6v41h-16v-39c-12 0-33 0-50 6v-28c19 6 39 6 50 6v-28c-10 0-24 0-40 6v-28c16 5 30 6 40 6-1-16-5-37-5-37h28s-5 21-5 37c10 0 24 0 40-6v28c-16-5-30-6-40-6v26z"/>
  <path fill="#0b4ea2" d="M233 263c-20 0-31 28-31 28a24 24 0 0 0-22-13c-11 0-19 10-24 19 20 32 52 51 77 63 25-12 57-32 77-63-5-9-13-19-24-19a24 24 0 0 0-22 13s-11-28-31-28z"/>
</svg>
