<svg xmlns="http://www.w3.org/2000/svg" viewBox="0 0 640 480">
  <path fill="#de2110" d="M0 0h640v480H0z"/>
  <path fill="#08399c" d="M0 0h347v230H0z"/>
  <path fill="#fff" d="M254 161l-43-9 9 43-33-29-13 41-14-41-32 29 9-43-43 9 29-33-41-13 41-14-29-32 43 9-9-43 33 29 13-41 14 41 32-29-9 43 43-9-29 33 41 13-41 14z"/>
  <path fill="#005387" d="M215 157l-13 7-13 8h-31l-13-8-13-7-7-13-8-13v-31l8-13 7-13 13-7 13-8h30l13 8 13 7 7 13 8 13v30l-8 13z"/>
  <path fill="#fff" d="M220 115a47 47 0 1 1-47-47 47 47 0 0 1 47 47z"/>
</svg>
