<svg xmlns="http://www.w3.org/2000/svg" viewBox="0 0 640 480">
  <path fill="#006" d="M0 0h640v480H0z"/>
  <path fill="#fff" d="M427 240l213-106V26L320 186l107 54m-107 54l320 160V346L427 240l-107 54m-107-54L0 346v108l320-160-107-54m107-54L0 26v108l213 106 107-54"/>
  <path fill="#fff" d="M240 160h160v160H240zm0 320h160v.01H240zm0-160h160v159.99H240zm160-160h240v160H400zM240 0h160v160H240zM0 160h240v160H0z"/>
  <path fill="#c00" d="M272 192h96v96h-96zm0 288h96v.01h-96zm96-288h272v96H368zM160 320L0 400v36l232-116h-72m112-32h96v191.99h-96zm208-128l160-80V44L408 160h72m0 160l160 80v-36l-88-44h-72M272 0h96v192h-96zM0 192h272v96H0zm160-32L0 80v36l88 44h72"/>
</svg>
