<svg xmlns="http://www.w3.org/2000/svg" viewBox="0 0 640 480">
  <path fill="#bd3d44" d="M0 0h640v37H0zm0 74h640v37H0zm0 74h640v37H0zm0 74h640v37H0zm0 74h640v37H0zm0 74h640v37H0zm0 74h640v37H0z"/>
  <path fill="#fff" d="M0 37h640v37H0zm0 74h640v37H0zm0 74h640v37H0zm0 74h640v37H0zm0 74h640v37H0zm0 74h640v37H0z"/>
  <path fill="#192f5d" d="M0 0h327v258H0z"/>
  <path fill="#fff" d="M27 11l3 10h10l-8 6 3 10-8-6-8 6 3-10-8-6h10zm55 0l3 10h9l-8 6 3 10-8-6-8 6 3-10-8-6h11zm55 0l3 10h10l-8 6 3 10-8-6-8 6 3-10-8-6h10zm55 0l3 10h10l-8 6 3 10-8-6-8 6 3-10-8-6h10zm55 0l3 10h10l-8 6 3 10-8-6-8 6 3-10-8-6h10zm55 0l3 10h10l-8 6 3 10-8-6-8 6 3-10-8-6h10zM55 37l3 10h9l-8 6 3 10-8-6-8 6 3-10-8-6h11zm55 0l3 10h10l-8 6 3 10-8-6-8 6 3-10-8-6h10zm55 0l3 10h10l-8 6 3 10-8-6-8 6 3-10-8-6h10zm55 0l3 10h10l-8 6 3 10-8-6-8 6 3-10-8-6h10zm55 0l3 10h10l-8 6 3 10-8-6-8 6 3-10-8-6h10zM27 63l3 10h10l-8 6 3 10-8-6-8 6 3-10-8-6h10zm55 0l3 10h9l-8 6 3 10-8-6-8 6 3-10-8-6h11zm55 0l3 10h10l-8 6 3 10-8-6-8 6 3-10-8-6h10zm55 0l3 10h10l-8 6 3 10-8-6-8 6 3-10-8-6h10zm55 0l3 10h10l-8 6 3 10-8-6-8 6 3-10-8-6h10zm55 0l3 10h10l-8 6 3 10-8-6-8 6 3-10-8-6h10zM55 89l3 10h9l-8 6 3 10-8-6-8 6 3-10-8-6h11zm55 0l3 10h10l-8 6 3 10-8-6-8 6 3-10-8-6h10zm55 0l3 10h10l-8 6 3 10-8-6-8 6 3-10-8-6h10zm55 0l3 10h10l-8 6 3 10-8-6-8 6 3-10-8-6h10zm55 0l3 10h10l-8 6 3 10-8-6-8 6 3-10-8-6h10zM27 114l3 10h10l-8 6 3 10-8-6-8 6 3-10-8-6h10zm55 0l3 10h9l-8 6 3 10-8-6-8 6 3-10-8-6h11zm55 0l3 10h10l-8 6 3 10-8-6-8 6 3-10-8-6h10zm55 0l3 10h10l-8 6 3 10-8-6-8 6 3-10-8-6h10zm55 0l3 10h10l-8 6 3 10-8-6-8 6 3-10-8-6h10zm55 0l3 10h10l-8 6 3 10-8-6-8 6 3-10-8-6h10zM55 140l3 10h9l-8 6 3 10-8-6-8 6 3-10-8-6h11zm55 0l3 10h10l-8 6 3 10-8-6-8 6 3-10-8-6h10zm55 0l3 10h10l-8 6 3 10-8-6-8 6 3-10-8-6h10zm55 0l3 10h10l-8 6 3 10-8-6-8 6 3-10-8-6h10zm55 0l3 10h10l-8 6 3 10-8-6-8 6 3-10-8-6h10zM27 166l3 10h10l-8 6 3 10-8-6-8 6 3-10-8-6h10zm55 0l3 10h9l-8 6 3 10-8-6-8 6 3-10-8-6h11zm55 0l3 10h10l-8 6 3 10-8-6-8 6 3-10-8-6h10zm55 0l3 10h10l-8 6 3 10-8-6-8 6 3-10-8-6h10zm55 0l3 10h10l-8 6 3 10-8-6-8 6 3-10-8-6h10zm55 0l3 10h10l-8 6 3 10-8-6-8 6 3-10-8-6h10zM55 192l3 10h9l-8 6 3 10-8-6-8 6 3-10-8-6h11zm55 0l3 10h10l-8 6 3 10-8-6-8 6 3-10-8-6h10zm55 0l3 10h10l-8 6 3 10-8-6-8 6 3-10-8-6h10zm55 0l3 10h10l-8 6 3 10-8-6-8 6 3-10-8-6h10zm55 0l3 10h10l-8 6 3 10-8-6-8 6 3-10-8-6h10zM27 218l3 10h10l-8 6 3 10-8-6-8 6 3-10-8-6h10zm55 0l3 10h9l-8 6 3 10-8-6-8 6 3-10-8-6h11zm55 0l3 10h10l-8 6 3 10-8-6-8 6 3-10-8-6h10zm55 0l3 10h10l-8 6 3 10-8-6-8 6 3-10-8-6h10zm55 0l3 10h10l-8 6 3 10-8-6-8 6 3-10-8-6h10zm55 0l3 10h10l-8 6 3 10-8-6-8 6 3-10-8-6h10z"/>
</svg>
